MonaSans-CondensedExtraLightItalic.ufo
<glyph name="exclam" format="2">
  <advance width="165"/>
  <unicode hex="0021"/>
  <outline>
    <contour>
      <point x="48" y="146" type="line"/>
      <point x="70" y="146" type="line"/>
      <point x="155" y="523" type="line"/>
      <point x="197" y="729" type="line"/>
      <point x="166" y="729" type="line"/>
      <point x="123" y="523" type="line"/>
    </contour>
    <contour>
      <point x="31" y="-6" type="curve" smooth="yes"/>
      <point x="45" y="-6"/>
      <point x="56" y="4"/>
      <point x="56" y="19" type="curve" smooth="yes"/>
      <point x="56" y="33"/>
      <point x="46" y="42"/>
      <point x="33" y="42" type="curve" smooth="yes"/>
      <point x="19" y="42"/>
      <point x="8" y="32"/>
      <point x="8" y="17" type="curve" smooth="yes"/>
      <point x="8" y="3"/>
      <point x="18" y="-6"/>
    </contour>
  </outline>
</glyph>
<glyph name="numbersign" format="2">
  <advance width="419"/>
  <unicode hex="0023"/>
  <outline>
    <contour>
      <point x="71" y="0" type="line"/>
      <point x="99" y="0" type="line"/>
      <point x="153" y="265" type="line"/>
      <point x="274" y="265" type="line"/>
      <point x="220" y="0" type="line"/>
      <point x="248" y="0" type="line"/>
      <point x="302" y="265" type="line"/>
      <point x="414" y="265" type="line"/>
      <point x="420" y="291" type="line"/>
      <point x="308" y="291" type="line"/>
      <point x="343" y="462" type="line"/>
      <point x="455" y="462" type="line"/>
      <point x="461" y="488" type="line"/>
      <point x="349" y="488" type="line"/>
      <point x="398" y="729" type="line"/>
      <point x="370" y="729" type="line"/>
      <point x="321" y="488" type="line"/>
      <point x="200" y="488" type="line"/>
      <point x="249" y="729" type="line"/>
      <point x="221" y="729" type="line"/>
      <point x="172" y="488" type="line"/>
      <point x="54" y="488" type="line"/>
      <point x="48" y="462" type="line"/>
      <point x="166" y="462" type="line"/>
      <point x="131" y="291" type="line"/>
      <point x="13" y="291" type="line"/>
      <point x="7" y="265" type="line"/>
      <point x="125" y="265" type="line"/>
    </contour>
    <contour>
      <point x="159" y="291" type="line"/>
      <point x="194" y="462" type="line"/>
      <point x="315" y="462" type="line"/>
      <point x="280" y="291" type="line"/>
    </contour>
  </outline>
</glyph>
<glyph name="dollar" format="2">
  <advance width="397"/>
  <unicode hex="0024"/>
  <outline>
    <contour>
      <point x="171" y="11" type="curve" smooth="yes"/>
      <point x="279" y="11"/>
      <point x="343" y="95"/>
      <point x="343" y="215" type="curve" smooth="yes"/>
      <point x="343" y="271"/>
      <point x="310" y="328"/>
      <point x="246" y="376" type="curve" smooth="yes"/>
      <point x="173" y="432"/>
      <point x="145" y="461"/>
      <point x="145" y="524" type="curve" smooth="yes"/>
      <point x="145" y="626"/>
      <point x="195" y="688"/>
      <point x="271" y="688" type="curve" smooth="yes"/>
      <point x="353" y="688"/>
      <point x="389" y="640"/>
      <point x="368" y="523" type="curve"/>
      <point x="401" y="523" type="line"/>
      <point x="421" y="636"/>
      <point x="387" y="719"/>
      <point x="274" y="719" type="curve" smooth="yes"/>
      <point x="155" y="719"/>
      <point x="113" y="622"/>
      <point x="113" y="519" type="curve" smooth="yes"/>
      <point x="113" y="442"/>
      <point x="149" y="407"/>
      <point x="216" y="356" type="curve" smooth="yes"/>
      <point x="257" y="325"/>
      <point x="310" y="284"/>
      <point x="310" y="216" type="curve" smooth="yes"/>
      <point x="310" y="107"/>
      <point x="258" y="42"/>
      <point x="171" y="42" type="curve" smooth="yes"/>
      <point x="63" y="42"/>
      <point x="47" y="126"/>
      <point x="68" y="233" type="curve"/>
      <point x="35" y="233" type="line"/>
      <point x="9" y="87"/>
      <point x="53" y="11"/>
    </contour>
    <contour>
      <point x="107" y="-85" type="line"/>
      <point x="136" y="-85" type="line"/>
      <point x="160" y="31" type="line"/>
      <point x="131" y="31" type="line"/>
    </contour>
    <contour>
      <point x="271" y="697" type="line"/>
      <point x="300" y="697" type="line"/>
      <point x="324" y="814" type="line"/>
      <point x="296" y="814" type="line"/>
    </contour>
  </outline>
</glyph>
<glyph name="percent" format="2">
  <advance width="605"/>
  <unicode hex="0025"/>
  <outline>
    <contour>
      <point x="93" y="0" type="line"/>
      <point x="127" y="0" type="line"/>
      <point x="559" y="729" type="line"/>
      <point x="523" y="729" type="line"/>
    </contour>
    <contour>
      <point x="177" y="325" type="curve" smooth="yes"/>
      <point x="236" y="325"/>
      <point x="277" y="393"/>
      <point x="304" y="517" type="curve" smooth="yes"/>
      <point x="328" y="634"/>
      <point x="327" y="729"/>
      <point x="247" y="729" type="curve" smooth="yes"/>
      <point x="188" y="729"/>
      <point x="146" y="664"/>
      <point x="120" y="539" type="curve" smooth="yes"/>
      <point x="89" y="393"/>
      <point x="108" y="325"/>
    </contour>
    <contour>
      <point x="172" y="353" type="curve" smooth="yes"/>
      <point x="121" y="357"/>
      <point x="136" y="455"/>
      <point x="152" y="532" type="curve" smooth="yes"/>
      <point x="178" y="656"/>
      <point x="204" y="700"/>
      <point x="244" y="700" type="curve" smooth="yes"/>
      <point x="295" y="700"/>
      <point x="296" y="634"/>
      <point x="272" y="522" type="curve" smooth="yes"/>
      <point x="242" y="380"/>
      <point x="212" y="350"/>
    </contour>
    <contour>
      <point x="402" y="-5" type="curve" smooth="yes"/>
      <point x="464" y="-5"/>
      <point x="503" y="67"/>
      <point x="529" y="189" type="curve" smooth="yes"/>
      <point x="556" y="317"/>
      <point x="546" y="399"/>
      <point x="472" y="399" type="curve" smooth="yes"/>
      <point x="409" y="399"/>
      <point x="369" y="327"/>
      <point x="344" y="205" type="curve" smooth="yes"/>
      <point x="319" y="88"/>
      <point x="323" y="-5"/>
    </contour>
    <contour>
      <point x="396" y="24" type="curve" smooth="yes"/>
      <point x="346" y="28"/>
      <point x="360" y="123"/>
      <point x="377" y="204" type="curve" smooth="yes"/>
      <point x="403" y="331"/>
      <point x="431" y="371"/>
      <point x="469" y="371" type="curve" smooth="yes"/>
      <point x="521" y="371"/>
      <point x="520" y="302"/>
      <point x="496" y="189" type="curve" smooth="yes"/>
      <point x="467" y="50"/>
      <point x="438" y="21"/>
    </contour>
  </outline>
</glyph>
<glyph name="ampersand" format="2">
  <advance width="483"/>
  <unicode hex="0026"/>
  <outline>
    <contour>
      <point x="397" y="-4" type="curve" smooth="yes"/>
      <point x="402" y="-4"/>
      <point x="408" y="-4"/>
      <point x="414" y="-3" type="curve"/>
      <point x="420" y="26" type="line"/>
      <point x="412" y="24"/>
      <point x="406" y="24"/>
      <point x="400" y="24" type="curve" smooth="yes"/>
      <point x="351" y="24"/>
      <point x="323" y="57"/>
      <point x="290" y="159" type="curve" smooth="yes"/>
      <point x="223" y="367" type="line" smooth="yes"/>
      <point x="186" y="481"/>
      <point x="186" y="514"/>
      <point x="186" y="571" type="curve" smooth="yes"/>
      <point x="186" y="655"/>
      <point x="223" y="711"/>
      <point x="279" y="711" type="curve" smooth="yes"/>
      <point x="315" y="711"/>
      <point x="339" y="687"/>
      <point x="339" y="635" type="curve" smooth="yes"/>
      <point x="339" y="562"/>
      <point x="277" y="476"/>
      <point x="202" y="424" type="curve"/>
      <point x="210" y="400" type="line"/>
      <point x="290" y="453"/>
      <point x="368" y="548"/>
      <point x="368" y="636" type="curve" smooth="yes"/>
      <point x="368" y="703"/>
      <point x="335" y="739"/>
      <point x="283" y="739" type="curve" smooth="yes"/>
      <point x="196" y="739"/>
      <point x="157" y="646"/>
      <point x="157" y="563" type="curve" smooth="yes"/>
      <point x="157" y="497"/>
      <point x="164" y="465"/>
      <point x="203" y="339" type="curve" smooth="yes"/>
      <point x="260" y="157" type="line" smooth="yes"/>
      <point x="302" y="24"/>
      <point x="344" y="-4"/>
    </contour>
    <contour>
      <point x="130" y="-7" type="curve" smooth="yes"/>
      <point x="198" y="-7"/>
      <point x="259" y="34"/>
      <point x="290" y="112" type="curve"/>
      <point x="274" y="137" type="line"/>
      <point x="251" y="68"/>
      <point x="200" y="22"/>
      <point x="136" y="22" type="curve" smooth="yes"/>
      <point x="79" y="22"/>
      <point x="41" y="58"/>
      <point x="41" y="134" type="curve" smooth="yes"/>
      <point x="41" y="218"/>
      <point x="98" y="319"/>
      <point x="194" y="388" type="curve"/>
      <point x="182" y="411" type="line"/>
      <point x="86" y="342"/>
      <point x="10" y="237"/>
      <point x="10" y="134" type="curve" smooth="yes"/>
      <point x="10" y="47"/>
      <point x="59" y="-7"/>
    </contour>
    <contour>
      <point x="293" y="113" type="line"/>
      <point x="326" y="176"/>
      <point x="359" y="275"/>
      <point x="378" y="352" type="curve"/>
      <point x="450" y="350" type="line"/>
      <point x="460" y="376" type="line"/>
      <point x="353" y="376" type="line"/>
      <point x="352" y="369" type="line"/>
      <point x="340" y="299"/>
      <point x="308" y="209"/>
      <point x="281" y="141" type="curve"/>
    </contour>
  </outline>
</glyph>
<glyph name="quotesingle" format="2">
  <advance width="122"/>
  <unicode hex="0027"/>
  <anchor x="-27" y="0" name="#entry"/>
  <anchor x="103" y="0" name="#exit"/>
  <outline>
    <contour>
      <point x="100" y="493" type="line"/>
      <point x="120" y="493" type="line"/>
      <point x="151" y="624" type="line"/>
      <point x="172" y="729" type="line"/>
      <point x="144" y="729" type="line"/>
      <point x="123" y="624" type="line"/>
    </contour>
  </outline>
</glyph>
<glyph name="parenleft" format="2">
  <advance width="215"/>
  <unicode hex="0028"/>
  <outline>
    <contour>
      <point x="90" y="-167" type="curve"/>
      <point x="120" y="-167" type="line"/>
      <point x="83" y="-108"/>
      <point x="58" y="5"/>
      <point x="58" y="115" type="curve" smooth="yes"/>
      <point x="58" y="367"/>
      <point x="174" y="657"/>
      <point x="321" y="793" type="curve"/>
      <point x="286" y="793" type="line"/>
      <point x="131" y="641"/>
      <point x="27" y="367"/>
      <point x="27" y="114" type="curve" smooth="yes"/>
      <point x="27" y="7"/>
      <point x="52" y="-105"/>
    </contour>
  </outline>
</glyph>
<glyph name="asterisk" format="2">
  <advance width="277"/>
  <unicode hex="002A"/>
  <outline>
    <contour>
      <point x="187" y="453" type="line"/>
      <point x="216" y="453" type="line"/>
      <point x="218" y="512" type="line"/>
      <point x="213" y="580" type="line"/>
      <point x="267" y="540" type="line"/>
      <point x="316" y="510" type="line"/>
      <point x="331" y="535" type="line"/>
      <point x="281" y="565" type="line"/>
      <point x="224" y="592" type="line"/>
      <point x="283" y="619" type="line"/>
      <point x="334" y="647" type="line"/>
      <point x="322" y="672" type="line"/>
      <point x="270" y="644" type="line"/>
      <point x="214" y="605" type="line"/>
      <point x="224" y="672" type="line"/>
      <point x="226" y="729" type="line"/>
      <point x="197" y="729" type="line"/>
      <point x="195" y="672" type="line"/>
      <point x="202" y="605" type="line"/>
      <point x="149" y="644" type="line"/>
      <point x="99" y="672" type="line"/>
      <point x="84" y="647" type="line"/>
      <point x="133" y="619" type="line"/>
      <point x="191" y="592" type="line"/>
      <point x="131" y="565" type="line"/>
      <point x="79" y="535" type="line"/>
      <point x="93" y="510" type="line"/>
      <point x="145" y="540" type="line"/>
      <point x="201" y="580" type="line"/>
      <point x="190" y="512" type="line"/>
    </contour>
  </outline>
</glyph>
<glyph name="plus" format="2">
  <advance width="480"/>
  <unicode hex="002B"/>
  <outline>
    <contour>
      <point x="205" y="168" type="line"/>
      <point x="235" y="168" type="line"/>
      <point x="273" y="347" type="line"/>
      <point x="449" y="347" type="line"/>
      <point x="455" y="375" type="line"/>
      <point x="277" y="375" type="line"/>
      <point x="315" y="554" type="line"/>
      <point x="286" y="554" type="line"/>
      <point x="248" y="375" type="line"/>
      <point x="73" y="375" type="line"/>
      <point x="67" y="347" type="line"/>
      <point x="243" y="347" type="line"/>
    </contour>
  </outline>
</glyph>
<glyph name="comma" format="2">
  <advance width="128"/>
  <unicode hex="002C"/>
  <anchor x="-22" y="0" name="#entry"/>
  <anchor x="86" y="0" name="#exit"/>
  <anchor x="115" y="522" name="top"/>
  <outline>
    <contour>
      <point x="-67" y="-123" type="curve"/>
      <point x="-44" y="-123" type="line"/>
      <point x="-16" y="-100"/>
      <point x="39" y="-26"/>
      <point x="39" y="14" type="curve" smooth="yes"/>
      <point x="39" y="30"/>
      <point x="29" y="41"/>
      <point x="13" y="41" type="curve" smooth="yes"/>
      <point x="-1" y="41"/>
      <point x="-12" y="32"/>
      <point x="-12" y="16" type="curve" smooth="yes"/>
      <point x="-12" y="2"/>
      <point x="-2" y="-7"/>
      <point x="12" y="-7" type="curve" smooth="yes"/>
      <point x="17" y="-7"/>
      <point x="21" y="-6"/>
      <point x="24" y="-4" type="curve"/>
      <point x="19" y="1" type="line"/>
      <point x="9" y="-36"/>
      <point x="-28" y="-86"/>
    </contour>
  </outline>
</glyph>
<glyph name="period" format="2">
  <advance width="123"/>
  <unicode hex="002E"/>
  <anchor x="-66" y="0" name="#entry"/>
  <anchor x="83" y="0" name="#exit"/>
  <anchor x="15" y="42" name="_top"/>
  <anchor x="115" y="522" name="top"/>
  <outline>
    <contour>
      <point x="12" y="-6" type="curve" smooth="yes"/>
      <point x="26" y="-6"/>
      <point x="36" y="3"/>
      <point x="36" y="18" type="curve" smooth="yes"/>
      <point x="36" y="33"/>
      <point x="26" y="42"/>
      <point x="12" y="42" type="curve" smooth="yes"/>
      <point x="-1" y="42"/>
      <point x="-12" y="33"/>
      <point x="-12" y="18" type="curve" smooth="yes"/>
      <point x="-12" y="3"/>
      <point x="-1" y="-6"/>
    </contour>
  </outline>
</glyph>
<glyph name="slash" format="2">
  <advance width="200"/>
  <unicode hex="002F"/>
  <outline>
    <contour>
      <point x="-94" y="-82" type="line"/>
      <point x="-65" y="-82" type="line"/>
      <point x="309" y="729" type="line"/>
      <point x="279" y="729" type="line"/>
    </contour>
  </outline>
</glyph>
<glyph name="zero" format="2">
  <advance width="404"/>
  <unicode hex="0030"/>
  <outline>
    <contour>
      <point x="157" y="-9" type="curve" smooth="yes"/>
      <point x="267" y="-9"/>
      <point x="332" y="133"/>
      <point x="378" y="347" type="curve" smooth="yes"/>
      <point x="418" y="539"/>
      <point x="430" y="729"/>
      <point x="288" y="729" type="curve" smooth="yes"/>
      <point x="178" y="729"/>
      <point x="113" y="589"/>
      <point x="68" y="375" type="curve" smooth="yes"/>
      <point x="26" y="177"/>
      <point x="17" y="-9"/>
    </contour>
    <contour>
      <point x="151" y="20" type="curve" smooth="yes"/>
      <point x="40" y="29"/>
      <point x="65" y="208"/>
      <point x="98" y="369" type="curve" smooth="yes"/>
      <point x="153" y="635"/>
      <point x="214" y="700"/>
      <point x="284" y="700" type="curve" smooth="yes"/>
      <point x="404" y="700"/>
      <point x="384" y="527"/>
      <point x="347" y="351" type="curve" smooth="yes"/>
      <point x="290" y="76"/>
      <point x="226" y="14"/>
    </contour>
  </outline>
</glyph>
<glyph name="one" format="2">
  <advance width="190"/>
  <unicode hex="0031"/>
  <outline>
    <contour>
      <point x="38" y="0" type="line"/>
      <point x="69" y="0" type="line"/>
      <point x="221" y="721" type="line"/>
      <point x="192" y="721" type="line"/>
      <point x="178" y="665"/>
      <point x="152" y="627"/>
      <point x="97" y="627" type="curve" smooth="yes"/>
      <point x="79" y="627" type="line"/>
      <point x="73" y="597" type="line"/>
      <point x="164" y="597" type="line"/>
    </contour>
  </outline>
</glyph>
<glyph name="two" format="2">
  <advance width="334"/>
  <unicode hex="0032"/>
  <outline>
    <contour>
      <point x="-21" y="0" type="line"/>
      <point x="262" y="0" type="line"/>
      <point x="267" y="29" type="line"/>
      <point x="19" y="29" type="line"/>
      <point x="40" y="186"/>
      <point x="314" y="323"/>
      <point x="362" y="550" type="curve" smooth="yes"/>
      <point x="382" y="649"/>
      <point x="350" y="730"/>
      <point x="252" y="730" type="curve" smooth="yes"/>
      <point x="171" y="730"/>
      <point x="112" y="662"/>
      <point x="88" y="532" type="curve"/>
      <point x="120" y="532" type="line"/>
      <point x="139" y="637"/>
      <point x="180" y="700"/>
      <point x="249" y="700" type="curve" smooth="yes"/>
      <point x="322" y="700"/>
      <point x="348" y="638"/>
      <point x="330" y="552" type="curve" smooth="yes"/>
      <point x="285" y="335"/>
      <point x="21" y="219"/>
      <point x="-16" y="27" type="curve" smooth="yes"/>
    </contour>
  </outline>
</glyph>
<glyph name="three" format="2">
  <advance width="360"/>
  <unicode hex="0033"/>
  <outline>
    <contour>
      <point x="138" y="-8" type="curve" smooth="yes"/>
      <point x="221" y="-8"/>
      <point x="280" y="62"/>
      <point x="305" y="184" type="curve" smooth="yes"/>
      <point x="322" y="262"/>
      <point x="310" y="338"/>
      <point x="249" y="369" type="curve"/>
      <point x="250" y="373" type="line"/>
      <point x="309" y="390"/>
      <point x="354" y="457"/>
      <point x="369" y="531" type="curve" smooth="yes"/>
      <point x="392" y="643"/>
      <point x="356" y="729"/>
      <point x="252" y="729" type="curve" smooth="yes"/>
      <point x="176" y="729"/>
      <point x="114" y="667"/>
      <point x="89" y="532" type="curve"/>
      <point x="119" y="532" type="line"/>
      <point x="139" y="634"/>
      <point x="179" y="700"/>
      <point x="249" y="700" type="curve" smooth="yes"/>
      <point x="331" y="700"/>
      <point x="356" y="625"/>
      <point x="337" y="534" type="curve" smooth="yes"/>
      <point x="318" y="445"/>
      <point x="273" y="390"/>
      <point x="211" y="390" type="curve" smooth="yes"/>
      <point x="169" y="390" type="line"/>
      <point x="161" y="359" type="line"/>
      <point x="197" y="359" type="line" smooth="yes"/>
      <point x="275" y="359"/>
      <point x="293" y="278"/>
      <point x="274" y="187" type="curve" smooth="yes"/>
      <point x="251" y="79"/>
      <point x="209" y="19"/>
      <point x="139" y="19" type="curve" smooth="yes"/>
      <point x="40" y="19"/>
      <point x="30" y="114"/>
      <point x="56" y="230" type="curve"/>
      <point x="23" y="230" type="line"/>
      <point x="-6" y="94"/>
      <point x="18" y="-8"/>
    </contour>
  </outline>
</glyph>
<glyph name="four" format="2">
  <advance width="361"/>
  <unicode hex="0034"/>
  <outline>
    <contour>
      <point x="186" y="0" type="line"/>
      <point x="217" y="0" type="line"/>
      <point x="369" y="721" type="line"/>
      <point x="324" y="721" type="line"/>
      <point x="0" y="221" type="line"/>
      <point x="-5" y="195" type="line"/>
      <point x="345" y="195" type="line"/>
      <point x="351" y="224" type="line"/>
      <point x="36" y="224" type="line"/>
      <point x="330" y="681" type="line"/>
      <point x="329" y="681" type="line"/>
    </contour>
  </outline>
</glyph>
<glyph name="five" format="2">
  <advance width="369"/>
  <unicode hex="0035"/>
  <outline>
    <contour>
      <point x="139" y="-7" type="curve" smooth="yes"/>
      <point x="228" y="-15"/>
      <point x="293" y="54"/>
      <point x="329" y="221" type="curve" smooth="yes"/>
      <point x="355" y="347"/>
      <point x="349" y="468"/>
      <point x="229" y="468" type="curve" smooth="yes"/>
      <point x="184" y="468"/>
      <point x="146" y="444"/>
      <point x="119" y="405" type="curve"/>
      <point x="116" y="405" type="line"/>
      <point x="186" y="692" type="line"/>
      <point x="416" y="692" type="line"/>
      <point x="421" y="721" type="line"/>
      <point x="162" y="721" type="line"/>
      <point x="69" y="329" type="line"/>
      <point x="101" y="326" type="line"/>
      <point x="126" y="399"/>
      <point x="165" y="440"/>
      <point x="220" y="440" type="curve" smooth="yes"/>
      <point x="319" y="440"/>
      <point x="323" y="346"/>
      <point x="297" y="222" type="curve" smooth="yes"/>
      <point x="267" y="79"/>
      <point x="221" y="19"/>
      <point x="153" y="19" type="curve" smooth="yes"/>
      <point x="55" y="19"/>
      <point x="46" y="117"/>
      <point x="72" y="229" type="curve"/>
      <point x="42" y="229" type="line"/>
      <point x="16" y="107"/>
      <point x="28" y="3"/>
    </contour>
  </outline>
</glyph>
<glyph name="six" format="2">
  <advance width="383"/>
  <unicode hex="0036"/>
  <outline>
    <contour>
      <point x="163" y="-10" type="curve" smooth="yes"/>
      <point x="239" y="-10"/>
      <point x="302" y="48"/>
      <point x="337" y="218" type="curve" smooth="yes"/>
      <point x="365" y="348"/>
      <point x="357" y="463"/>
      <point x="236" y="463" type="curve" smooth="yes"/>
      <point x="188" y="463"/>
      <point x="133" y="435"/>
      <point x="95" y="337" type="curve"/>
      <point x="89" y="337" type="line"/>
      <point x="145" y="580"/>
      <point x="191" y="699"/>
      <point x="282" y="699" type="curve" smooth="yes"/>
      <point x="373" y="699"/>
      <point x="367" y="615"/>
      <point x="360" y="541" type="curve"/>
      <point x="389" y="541" type="line"/>
      <point x="398" y="633"/>
      <point x="397" y="729"/>
      <point x="282" y="729" type="curve" smooth="yes"/>
      <point x="194" y="729"/>
      <point x="121" y="642"/>
      <point x="60" y="324" type="curve" smooth="yes"/>
      <point x="24" y="136"/>
      <point x="22" y="-10"/>
    </contour>
    <contour>
      <point x="165" y="18" type="curve" smooth="yes"/>
      <point x="68" y="18"/>
      <point x="59" y="119"/>
      <point x="83" y="232" type="curve" smooth="yes"/>
      <point x="109" y="356"/>
      <point x="158" y="436"/>
      <point x="230" y="436" type="curve" smooth="yes"/>
      <point x="327" y="436"/>
      <point x="332" y="344"/>
      <point x="306" y="221" type="curve" smooth="yes"/>
      <point x="280" y="98"/>
      <point x="244" y="18"/>
    </contour>
  </outline>
</glyph>
<glyph name="seven" format="2">
  <advance width="331"/>
  <unicode hex="0037"/>
  <outline>
    <contour>
      <point x="68" y="0" type="curve"/>
      <point x="102" y="0" type="line"/>
      <point x="143" y="197"/>
      <point x="224" y="401"/>
      <point x="416" y="694" type="curve"/>
      <point x="422" y="721" type="line"/>
      <point x="113" y="721" type="line"/>
      <point x="72" y="523" type="line"/>
      <point x="100" y="523" type="line"/>
      <point x="136" y="691" type="line"/>
      <point x="379" y="691" type="line"/>
      <point x="235" y="463"/>
      <point x="122" y="252"/>
    </contour>
  </outline>
</glyph>
<glyph name="eight" format="2">
  <advance width="393"/>
  <unicode hex="0038"/>
  <outline>
    <contour>
      <point x="160" y="-8" type="curve" smooth="yes"/>
      <point x="244" y="-8"/>
      <point x="313" y="51"/>
      <point x="340" y="185" type="curve" smooth="yes"/>
      <point x="355" y="255"/>
      <point x="344" y="341"/>
      <point x="281" y="369" type="curve"/>
      <point x="281" y="373" type="line"/>
      <point x="341" y="389"/>
      <point x="386" y="454"/>
      <point x="403" y="533" type="curve" smooth="yes"/>
      <point x="427" y="646"/>
      <point x="386" y="729"/>
      <point x="280" y="729" type="curve" smooth="yes"/>
      <point x="201" y="729"/>
      <point x="134" y="668"/>
      <point x="112" y="561" type="curve" smooth="yes"/>
      <point x="96" y="486"/>
      <point x="107" y="412"/>
      <point x="162" y="383" type="curve"/>
      <point x="161" y="379" type="line"/>
      <point x="102" y="366"/>
      <point x="47" y="303"/>
      <point x="28" y="209" type="curve" smooth="yes"/>
      <point x="2" y="81"/>
      <point x="40" y="-8"/>
    </contour>
    <contour>
      <point x="162" y="19" type="curve" smooth="yes"/>
      <point x="61" y="19"/>
      <point x="36" y="98"/>
      <point x="60" y="208" type="curve" smooth="yes"/>
      <point x="80" y="301"/>
      <point x="127" y="362"/>
      <point x="205" y="362" type="curve" smooth="yes"/>
      <point x="303" y="362"/>
      <point x="329" y="283"/>
      <point x="309" y="188" type="curve" smooth="yes"/>
      <point x="287" y="86"/>
      <point x="243" y="19"/>
    </contour>
    <contour>
      <point x="235" y="388" type="curve" smooth="yes"/>
      <point x="153" y="388"/>
      <point x="121" y="459"/>
      <point x="141" y="554" type="curve" smooth="yes"/>
      <point x="160" y="644"/>
      <point x="206" y="701"/>
      <point x="277" y="701" type="curve" smooth="yes"/>
      <point x="368" y="701"/>
      <point x="391" y="626"/>
      <point x="372" y="535" type="curve" smooth="yes"/>
      <point x="354" y="446"/>
      <point x="304" y="388"/>
    </contour>
  </outline>
</glyph>
<glyph name="equal" format="2">
  <advance width="480"/>
  <unicode hex="003D"/>
  <anchor x="263" y="366" name="center"/>
  <outline>
    <contour>
      <point x="89" y="447" type="line"/>
      <point x="471" y="447" type="line"/>
      <point x="477" y="475" type="line"/>
      <point x="95" y="475" type="line"/>
    </contour>
    <contour>
      <point x="47" y="247" type="line"/>
      <point x="429" y="247" type="line"/>
      <point x="435" y="275" type="line"/>
      <point x="53" y="275" type="line"/>
    </contour>
  </outline>
</glyph>
<glyph name="greater" format="2">
  <advance width="480"/>
  <unicode hex="003E"/>
  <outline>
    <contour>
      <point x="5" y="145" type="line"/>
      <point x="473" y="339" type="line"/>
      <point x="483" y="383" type="line"/>
      <point x="96" y="577" type="line"/>
      <point x="90" y="545" type="line"/>
      <point x="448" y="365" type="line"/>
      <point x="448" y="361" type="line"/>
      <point x="13" y="181" type="line"/>
    </contour>
  </outline>
</glyph>
<glyph name="question" format="2">
  <advance width="325"/>
  <unicode hex="003F"/>
  <outline>
    <contour>
      <point x="143" y="160" type="line"/>
      <point x="174" y="160" type="line"/>
      <point x="180" y="188" type="line" smooth="yes"/>
      <point x="213" y="340"/>
      <point x="330" y="407"/>
      <point x="362" y="562" type="curve" smooth="yes"/>
      <point x="384" y="662"/>
      <point x="358" y="738"/>
      <point x="260" y="738" type="curve" smooth="yes"/>
      <point x="187" y="738"/>
      <point x="128" y="682"/>
      <point x="102" y="545" type="curve"/>
      <point x="132" y="545" type="line"/>
      <point x="151" y="647"/>
      <point x="189" y="710"/>
      <point x="258" y="710" type="curve" smooth="yes"/>
      <point x="334" y="710"/>
      <point x="349" y="649"/>
      <point x="331" y="565" type="curve" smooth="yes"/>
      <point x="300" y="417"/>
      <point x="182" y="350"/>
      <point x="149" y="189" type="curve" smooth="yes"/>
    </contour>
    <contour>
      <point x="135" y="-6" type="curve" smooth="yes"/>
      <point x="149" y="-6"/>
      <point x="160" y="4"/>
      <point x="160" y="19" type="curve" smooth="yes"/>
      <point x="160" y="33"/>
      <point x="150" y="42"/>
      <point x="137" y="42" type="curve" smooth="yes"/>
      <point x="123" y="42"/>
      <point x="112" y="32"/>
      <point x="112" y="17" type="curve" smooth="yes"/>
      <point x="112" y="3"/>
      <point x="122" y="-6"/>
    </contour>
  </outline>
</glyph>
<glyph name="at" format="2">
  <advance width="623"/>
  <unicode hex="0040"/>
  <outline>
    <contour>
      <point x="266" y="-101" type="curve" smooth="yes"/>
      <point x="316" y="-101"/>
      <point x="379" y="-84"/>
      <point x="422" y="-46" type="curve"/>
      <point x="416" y="-21" type="line"/>
      <point x="379" y="-54"/>
      <point x="325" y="-76"/>
      <point x="272" y="-76" type="curve" smooth="yes"/>
      <point x="108" y="-76"/>
      <point x="30" y="73"/>
      <point x="85" y="337" type="curve" smooth="yes"/>
      <point x="132" y="562"/>
      <point x="259" y="712"/>
      <point x="402" y="712" type="curve" smooth="yes"/>
      <point x="553" y="712"/>
      <point x="628" y="580"/>
      <point x="578" y="345" type="curve" smooth="yes"/>
      <point x="551" y="211"/>
      <point x="494" y="116"/>
      <point x="440" y="116" type="curve" smooth="yes"/>
      <point x="394" y="116"/>
      <point x="395" y="172"/>
      <point x="411" y="236" type="curve" smooth="yes"/>
      <point x="477" y="493" type="line"/>
      <point x="455" y="495" type="line"/>
      <point x="429" y="400" type="line"/>
      <point x="426" y="400" type="line"/>
      <point x="431" y="475"/>
      <point x="403" y="515"/>
      <point x="362" y="515" type="curve" smooth="yes"/>
      <point x="298" y="515"/>
      <point x="240" y="429"/>
      <point x="214" y="301" type="curve" smooth="yes"/>
      <point x="195" y="210"/>
      <point x="202" y="108"/>
      <point x="277" y="108" type="curve" smooth="yes"/>
      <point x="311" y="108"/>
      <point x="352" y="139"/>
      <point x="387" y="218" type="curve"/>
      <point x="389" y="218" type="line"/>
      <point x="374" y="151"/>
      <point x="382" y="92"/>
      <point x="438" y="92" type="curve" smooth="yes"/>
      <point x="508" y="92"/>
      <point x="572" y="197"/>
      <point x="603" y="344" type="curve" smooth="yes"/>
      <point x="654" y="580"/>
      <point x="574" y="737"/>
      <point x="405" y="737" type="curve" smooth="yes"/>
      <point x="249" y="737"/>
      <point x="113" y="593"/>
      <point x="58" y="337" type="curve" smooth="yes"/>
      <point x="3" y="73"/>
      <point x="85" y="-101"/>
    </contour>
    <contour>
      <point x="285" y="133" type="curve" smooth="yes"/>
      <point x="225" y="133"/>
      <point x="222" y="216"/>
      <point x="239" y="302" type="curve" smooth="yes"/>
      <point x="262" y="415"/>
      <point x="308" y="492"/>
      <point x="362" y="492" type="curve" smooth="yes"/>
      <point x="422" y="492"/>
      <point x="424" y="403"/>
      <point x="407" y="316" type="curve" smooth="yes"/>
      <point x="383" y="210"/>
      <point x="334" y="133"/>
    </contour>
  </outline>
</glyph>
<glyph name="A" format="2">
  <advance width="389"/>
  <unicode hex="0041"/>
  <anchor x="148" y="0" name="bottom"/>
  <anchor x="326" y="0" name="ogonek"/>
  <anchor x="293" y="729" name="top"/>
  <outline>
    <contour>
      <point x="-44" y="0" type="line"/>
      <point x="-10" y="0" type="line"/>
      <point x="222" y="540" type="line"/>
      <point x="285" y="702" type="line"/>
      <point x="291" y="702" type="line"/>
      <point x="289" y="538" type="line"/>
      <point x="294" y="0" type="line"/>
      <point x="326" y="0" type="line"/>
      <point x="315" y="729" type="line"/>
      <point x="271" y="729" type="line"/>
    </contour>
    <contour>
      <point x="67" y="205" type="line"/>
      <point x="313" y="205" type="line"/>
      <point x="310" y="231" type="line"/>
      <point x="79" y="231" type="line"/>
    </contour>
  </outline>
</glyph>
<glyph name="B" format="2">
  <advance width="371"/>
  <unicode hex="0042"/>
  <anchor x="137" y="0" name="bottom"/>
  <anchor x="288" y="729" name="top"/>
  <outline>
    <contour>
      <point x="12" y="0" type="line"/>
      <point x="118" y="0" type="line" smooth="yes"/>
      <point x="250" y="0"/>
      <point x="320" y="89"/>
      <point x="325" y="240" type="curve" smooth="yes"/>
      <point x="327" y="301"/>
      <point x="303" y="351"/>
      <point x="247" y="370" type="curve"/>
      <point x="247" y="373" type="line"/>
      <point x="335" y="398"/>
      <point x="386" y="490"/>
      <point x="386" y="596" type="curve" smooth="yes"/>
      <point x="386" y="676"/>
      <point x="345" y="729"/>
      <point x="259" y="729" type="curve" smooth="yes"/>
      <point x="164" y="729" type="line"/>
    </contour>
    <contour>
      <point x="49" y="29" type="line"/>
      <point x="188" y="700" type="line"/>
      <point x="253" y="700" type="line" smooth="yes"/>
      <point x="315" y="700"/>
      <point x="354" y="670"/>
      <point x="354" y="596" type="curve" smooth="yes"/>
      <point x="354" y="484"/>
      <point x="299" y="389"/>
      <point x="209" y="389" type="curve" smooth="yes"/>
      <point x="117" y="389" type="line"/>
      <point x="109" y="359" type="line"/>
      <point x="192" y="359" type="line" smooth="yes"/>
      <point x="261" y="359"/>
      <point x="295" y="315"/>
      <point x="293" y="242" type="curve" smooth="yes"/>
      <point x="288" y="106"/>
      <point x="227" y="29"/>
      <point x="124" y="29" type="curve" smooth="yes"/>
    </contour>
  </outline>
</glyph>
<glyph name="C" format="2">
  <advance width="401"/>
  <unicode hex="0043"/>
  <anchor x="164" y="0" name="bottom"/>
  <anchor x="298" y="729" name="top"/>
  <outline>
    <contour>
      <point x="167" y="-9" type="curve" smooth="yes"/>
      <point x="248" y="-9"/>
      <point x="326" y="46"/>
      <point x="364" y="234" type="curve"/>
      <point x="333" y="234" type="line"/>
      <point x="301" y="100"/>
      <point x="256" y="20"/>
      <point x="170" y="20" type="curve" smooth="yes"/>
      <point x="49" y="20"/>
      <point x="62" y="185"/>
      <point x="101" y="374" type="curve" smooth="yes"/>
      <point x="147" y="593"/>
      <point x="204" y="708"/>
      <point x="294" y="708" type="curve" smooth="yes"/>
      <point x="396" y="708"/>
      <point x="402" y="617"/>
      <point x="387" y="495" type="curve"/>
      <point x="418" y="495" type="line"/>
      <point x="441" y="652"/>
      <point x="412" y="738"/>
      <point x="298" y="738" type="curve" smooth="yes"/>
      <point x="199" y="738"/>
      <point x="126" y="645"/>
      <point x="69" y="375" type="curve" smooth="yes"/>
      <point x="27" y="177"/>
      <point x="12" y="-9"/>
    </contour>
  </outline>
</glyph>
<glyph name="D" format="2">
  <advance width="416"/>
  <unicode hex="0044"/>
  <anchor x="167" y="0" name="bottom"/>
  <anchor x="118" y="365" name="center"/>
  <anchor x="270" y="729" name="top"/>
  <outline>
    <contour>
      <point x="12" y="0" type="line"/>
      <point x="118" y="0" type="line" smooth="yes"/>
      <point x="276" y="0"/>
      <point x="410" y="221"/>
      <point x="420" y="516" type="curve" smooth="yes"/>
      <point x="425" y="655"/>
      <point x="374" y="729"/>
      <point x="270" y="729" type="curve" smooth="yes"/>
      <point x="163" y="729" type="line"/>
    </contour>
    <contour>
      <point x="49" y="30" type="line"/>
      <point x="188" y="699" type="line"/>
      <point x="265" y="699" type="line" smooth="yes"/>
      <point x="348" y="699"/>
      <point x="393" y="643"/>
      <point x="389" y="520" type="curve" smooth="yes"/>
      <point x="379" y="248"/>
      <point x="262" y="30"/>
      <point x="125" y="30" type="curve" smooth="yes"/>
    </contour>
  </outline>
</glyph>
<glyph name="E" format="2">
  <advance width="310"/>
  <unicode hex="0045"/>
  <anchor x="119" y="0" name="bottom"/>
  <anchor x="246" y="0" name="ogonek"/>
  <anchor x="270" y="729" name="top"/>
  <anchor x="130" y="729" name="topleft"/>
  <outline>
    <contour>
      <point x="12" y="0" type="line"/>
      <point x="246" y="0" type="line"/>
      <point x="252" y="28" type="line"/>
      <point x="39" y="28" type="line"/>
      <point x="46" y="17" type="line"/>
      <point x="191" y="714" type="line"/>
      <point x="176" y="701" type="line"/>
      <point x="392" y="701" type="line"/>
      <point x="397" y="729" type="line"/>
      <point x="163" y="729" type="line"/>
    </contour>
    <contour>
      <point x="104" y="361" type="line"/>
      <point x="291" y="361" type="line"/>
      <point x="296" y="389" type="line"/>
      <point x="112" y="389" type="line"/>
    </contour>
  </outline>
</glyph>
<glyph name="F" format="2">
  <advance width="290"/>
  <unicode hex="0046"/>
  <anchor x="112" y="0" name="bottom"/>
  <anchor x="263" y="729" name="top"/>
  <outline>
    <contour>
      <point x="12" y="0" type="line"/>
      <point x="43" y="0" type="line"/>
      <point x="191" y="714" type="line"/>
      <point x="176" y="700" type="line"/>
      <point x="378" y="700" type="line"/>
      <point x="384" y="729" type="line"/>
      <point x="163" y="729" type="line"/>
    </contour>
    <contour>
      <point x="93" y="353" type="line"/>
      <point x="281" y="353" type="line"/>
      <point x="287" y="382" type="line"/>
      <point x="103" y="382" type="line"/>
    </contour>
  </outline>
</glyph>
<glyph name="G" format="2">
  <advance width="416"/>
  <unicode hex="0047"/>
  <anchor x="156" y="0" name="bottom"/>
  <anchor x="298" y="729" name="top"/>
  <outline>
    <contour>
      <point x="156" y="-9" type="curve" smooth="yes"/>
      <point x="215" y="-9"/>
      <point x="269" y="32"/>
      <point x="305" y="128" type="curve"/>
      <point x="309" y="128" type="line"/>
      <point x="283" y="0" type="line"/>
      <point x="309" y="0" type="line"/>
      <point x="386" y="374" type="line"/>
      <point x="215" y="374" type="line"/>
      <point x="209" y="344" type="line"/>
      <point x="357" y="344" type="line"/>
      <point x="350" y="353" type="line"/>
      <point x="337" y="291" type="line" smooth="yes"/>
      <point x="301" y="118"/>
      <point x="242" y="20"/>
      <point x="162" y="20" type="curve" smooth="yes"/>
      <point x="47" y="20"/>
      <point x="64" y="193"/>
      <point x="101" y="374" type="curve" smooth="yes"/>
      <point x="148" y="602"/>
      <point x="208" y="708"/>
      <point x="294" y="708" type="curve" smooth="yes"/>
      <point x="394" y="708"/>
      <point x="401" y="619"/>
      <point x="387" y="495" type="curve"/>
      <point x="417" y="495" type="line"/>
      <point x="438" y="640"/>
      <point x="416" y="738"/>
      <point x="298" y="738" type="curve" smooth="yes"/>
      <point x="201" y="738"/>
      <point x="127" y="652"/>
      <point x="69" y="373" type="curve" smooth="yes"/>
      <point x="29" y="184"/>
      <point x="11" y="-9"/>
    </contour>
  </outline>
</glyph>
<glyph name="H" format="2">
  <advance width="422"/>
  <unicode hex="0048"/>
  <anchor x="169" y="0" name="bottom"/>
  <anchor x="282" y="592" name="center"/>
  <anchor x="320" y="729" name="top"/>
  <anchor x="130" y="729" name="topleft"/>
  <outline>
    <contour>
      <point x="12" y="0" type="line"/>
      <point x="43" y="0" type="line"/>
      <point x="195" y="729" type="line"/>
      <point x="164" y="729" type="line"/>
    </contour>
    <contour>
      <point x="273" y="0" type="line"/>
      <point x="303" y="0" type="line"/>
      <point x="455" y="729" type="line"/>
      <point x="426" y="729" type="line"/>
    </contour>
    <contour>
      <point x="97" y="355" type="line"/>
      <point x="362" y="355" type="line"/>
      <point x="371" y="385" type="line"/>
      <point x="109" y="385" type="line"/>
    </contour>
  </outline>
</glyph>
<glyph name="I" format="2">
  <advance width="161"/>
  <unicode hex="0049"/>
  <anchor x="28" y="0" name="bottom"/>
  <anchor x="43" y="0" name="ogonek"/>
  <anchor x="179" y="729" name="top"/>
  <anchor x="130" y="729" name="topleft"/>
  <outline>
    <contour>
      <point x="12" y="0" type="line"/>
      <point x="43" y="0" type="line"/>
      <point x="194" y="729" type="line"/>
      <point x="163" y="729" type="line"/>
    </contour>
  </outline>
</glyph>
<glyph name="J" format="2">
  <advance width="178"/>
  <unicode hex="004A"/>
  <anchor x="-39" y="0" name="bottom"/>
  <anchor x="197" y="729" name="top"/>
  <outline>
    <contour>
      <point x="-54" y="0" type="line"/>
      <point x="-18" y="0" type="line" smooth="yes"/>
      <point x="28" y="0"/>
      <point x="65" y="23"/>
      <point x="80" y="94" type="curve" smooth="yes"/>
      <point x="212" y="729" type="line"/>
      <point x="181" y="729" type="line"/>
      <point x="51" y="103" type="line" smooth="yes"/>
      <point x="40" y="49"/>
      <point x="24" y="27"/>
      <point x="-14" y="27" type="curve" smooth="yes"/>
      <point x="-48" y="27" type="line"/>
    </contour>
  </outline>
</glyph>
<glyph name="K" format="2">
  <advance width="366"/>
  <unicode hex="004B"/>
  <anchor x="143" y="0" name="bottom"/>
  <anchor x="294" y="729" name="top"/>
  <outline>
    <contour>
      <point x="273" y="0" type="line"/>
      <point x="304" y="0" type="line"/>
      <point x="224" y="424" type="line"/>
      <point x="449" y="729" type="line"/>
      <point x="414" y="729" type="line"/>
      <point x="97" y="296" type="line"/>
      <point x="84" y="234" type="line"/>
      <point x="201" y="392" type="line"/>
    </contour>
    <contour>
      <point x="12" y="0" type="line"/>
      <point x="43" y="0" type="line"/>
      <point x="194" y="729" type="line"/>
      <point x="163" y="729" type="line"/>
    </contour>
  </outline>
</glyph>
<glyph name="L" format="2">
  <advance width="257"/>
  <unicode hex="004C"/>
  <anchor x="98" y="0" name="bottom"/>
  <anchor x="173" y="365" name="center"/>
  <anchor x="179" y="729" name="top"/>
  <anchor x="226" y="729" name="topright"/>
  <outline>
    <contour>
      <point x="12" y="0" type="line"/>
      <point x="204" y="0" type="line"/>
      <point x="210" y="29" type="line"/>
      <point x="40" y="29" type="line"/>
      <point x="47" y="21" type="line"/>
      <point x="194" y="729" type="line"/>
      <point x="163" y="729" type="line"/>
    </contour>
  </outline>
</glyph>
<glyph name="M" format="2">
  <advance width="513"/>
  <unicode hex="004D"/>
  <anchor x="203" y="0" name="bottom"/>
  <anchor x="354" y="729" name="top"/>
  <outline>
    <contour>
      <point x="12" y="0" type="line"/>
      <point x="43" y="0" type="line"/>
      <point x="127" y="407" type="line"/>
      <point x="186" y="698" type="line"/>
      <point x="192" y="698" type="line"/>
      <point x="188" y="415" type="line"/>
      <point x="182" y="0" type="line"/>
      <point x="226" y="0" type="line"/>
      <point x="391" y="417" type="line"/>
      <point x="504" y="699" type="line"/>
      <point x="510" y="699" type="line"/>
      <point x="448" y="407" type="line"/>
      <point x="364" y="0" type="line"/>
      <point x="395" y="0" type="line"/>
      <point x="546" y="729" type="line"/>
      <point x="486" y="729" type="line"/>
      <point x="305" y="279" type="line"/>
      <point x="215" y="44" type="line"/>
      <point x="209" y="44" type="line"/>
      <point x="216" y="279" type="line"/>
      <point x="221" y="729" type="line"/>
      <point x="163" y="729" type="line"/>
    </contour>
  </outline>
</glyph>
<glyph name="N" format="2">
  <advance width="444"/>
  <unicode hex="004E"/>
  <anchor x="169" y="0" name="bottom"/>
  <anchor x="320" y="729" name="top"/>
  <outline>
    <contour>
      <point x="12" y="0" type="line"/>
      <point x="43" y="0" type="line"/>
      <point x="128" y="410" type="line"/>
      <point x="182" y="685" type="line"/>
      <point x="188" y="685" type="line"/>
      <point x="277" y="0" type="line"/>
      <point x="326" y="0" type="line"/>
      <point x="477" y="729" type="line"/>
      <point x="446" y="729" type="line"/>
      <point x="363" y="328" type="line"/>
      <point x="306" y="39" type="line"/>
      <point x="301" y="39" type="line"/>
      <point x="212" y="729" type="line"/>
      <point x="163" y="729" type="line"/>
    </contour>
  </outline>
</glyph>
<glyph name="O" format="2">
  <advance width="419"/>
  <unicode hex="004F"/>
  <anchor x="166" y="0" name="bottom"/>
  <anchor x="241" y="365" name="center"/>
  <anchor x="330" y="10" name="ogonek"/>
  <anchor x="298" y="729" name="top"/>
  <anchor x="135" y="729" name="topleft"/>
  <anchor x="387" y="699" name="topright"/>
  <outline>
    <contour>
      <point x="166" y="-9" type="curve" smooth="yes"/>
      <point x="270" y="-9"/>
      <point x="339" y="93"/>
      <point x="393" y="350" type="curve" smooth="yes"/>
      <point x="432" y="543"/>
      <point x="456" y="737"/>
      <point x="296" y="737" type="curve" smooth="yes"/>
      <point x="201" y="737"/>
      <point x="127" y="655"/>
      <point x="69" y="373" type="curve" smooth="yes"/>
      <point x="28" y="177"/>
      <point x="13" y="-9"/>
    </contour>
    <contour>
      <point x="168" y="20" type="curve" smooth="yes"/>
      <point x="44" y="20"/>
      <point x="64" y="193"/>
      <point x="101" y="373" type="curve" smooth="yes"/>
      <point x="143" y="573"/>
      <point x="195" y="708"/>
      <point x="294" y="708" type="curve" smooth="yes"/>
      <point x="412" y="708"/>
      <point x="400" y="543"/>
      <point x="361" y="356" type="curve" smooth="yes"/>
      <point x="313" y="126"/>
      <point x="255" y="20"/>
    </contour>
  </outline>
</glyph>
<glyph name="P" format="2">
  <advance width="368"/>
  <unicode hex="0050"/>
  <anchor x="149" y="0" name="bottom"/>
  <anchor x="300" y="729" name="top"/>
  <outline>
    <contour>
      <point x="12" y="0" type="line"/>
      <point x="43" y="0" type="line"/>
      <point x="190" y="711" type="line"/>
      <point x="176" y="701" type="line"/>
      <point x="261" y="701" type="line" smooth="yes"/>
      <point x="353" y="701"/>
      <point x="396" y="645"/>
      <point x="367" y="510" type="curve" smooth="yes"/>
      <point x="340" y="382"/>
      <point x="279" y="343"/>
      <point x="197" y="343" type="curve" smooth="yes"/>
      <point x="107" y="343" type="line"/>
      <point x="101" y="315" type="line"/>
      <point x="193" y="315" type="line" smooth="yes"/>
      <point x="313" y="315"/>
      <point x="374" y="392"/>
      <point x="399" y="505" type="curve" smooth="yes"/>
      <point x="426" y="632"/>
      <point x="395" y="729"/>
      <point x="269" y="729" type="curve" smooth="yes"/>
      <point x="164" y="729" type="line"/>
    </contour>
  </outline>
</glyph>
<glyph name="R" format="2">
  <advance width="402"/>
  <unicode hex="0052"/>
  <anchor x="157" y="0" name="bottom"/>
  <anchor x="262" y="729" name="top"/>
  <outline>
    <contour>
      <point x="12" y="0" type="line"/>
      <point x="43" y="0" type="line"/>
      <point x="188" y="701" type="line"/>
      <point x="275" y="701" type="line" smooth="yes"/>
      <point x="407" y="701"/>
      <point x="395" y="576"/>
      <point x="382" y="521" type="curve" smooth="yes"/>
      <point x="363" y="429"/>
      <point x="305" y="370"/>
      <point x="228" y="370" type="curve" smooth="yes"/>
      <point x="113" y="370" type="line"/>
      <point x="107" y="341" type="line"/>
      <point x="249" y="341" type="line" smooth="yes"/>
      <point x="307" y="341"/>
      <point x="321" y="292"/>
      <point x="303" y="205" type="curve" smooth="yes"/>
      <point x="276" y="71" type="line" smooth="yes"/>
      <point x="270" y="43"/>
      <point x="266" y="12"/>
      <point x="267" y="0" type="curve"/>
      <point x="296" y="0" type="line"/>
      <point x="297" y="21"/>
      <point x="299" y="41"/>
      <point x="304" y="63" type="curve" smooth="yes"/>
      <point x="334" y="198" type="line" smooth="yes"/>
      <point x="353" y="283"/>
      <point x="341" y="334"/>
      <point x="287" y="354" type="curve"/>
      <point x="288" y="359" type="line"/>
      <point x="352" y="378"/>
      <point x="397" y="441"/>
      <point x="414" y="520" type="curve" smooth="yes"/>
      <point x="425" y="568"/>
      <point x="442" y="729"/>
      <point x="284" y="729" type="curve" smooth="yes"/>
      <point x="163" y="729" type="line"/>
    </contour>
  </outline>
</glyph>
<glyph name="S" format="2">
  <advance width="373"/>
  <unicode hex="0053"/>
  <anchor x="152" y="0" name="bottom"/>
  <anchor x="268" y="729" name="top"/>
  <outline>
    <contour>
      <point x="155" y="-8" type="curve" smooth="yes"/>
      <point x="275" y="-8"/>
      <point x="327" y="101"/>
      <point x="327" y="206" type="curve" smooth="yes"/>
      <point x="327" y="268"/>
      <point x="295" y="325"/>
      <point x="233" y="375" type="curve" smooth="yes"/>
      <point x="159" y="434"/>
      <point x="136" y="466"/>
      <point x="136" y="527" type="curve" smooth="yes"/>
      <point x="136" y="637"/>
      <point x="188" y="705"/>
      <point x="263" y="705" type="curve" smooth="yes"/>
      <point x="345" y="705"/>
      <point x="378" y="654"/>
      <point x="356" y="530" type="curve"/>
      <point x="389" y="530" type="line"/>
      <point x="411" y="654"/>
      <point x="374" y="736"/>
      <point x="266" y="736" type="curve" smooth="yes"/>
      <point x="147" y="736"/>
      <point x="104" y="630"/>
      <point x="104" y="523" type="curve" smooth="yes"/>
      <point x="104" y="451"/>
      <point x="132" y="414"/>
      <point x="202" y="357" type="curve" smooth="yes"/>
      <point x="269" y="303"/>
      <point x="294" y="265"/>
      <point x="294" y="208" type="curve" smooth="yes"/>
      <point x="294" y="122"/>
      <point x="259" y="22"/>
      <point x="155" y="22" type="curve" smooth="yes"/>
      <point x="48" y="22"/>
      <point x="34" y="111"/>
      <point x="56" y="225" type="curve"/>
      <point x="23" y="225" type="line"/>
      <point x="-2" y="86"/>
      <point x="28" y="-8"/>
    </contour>
  </outline>
</glyph>
<glyph name="T" format="2">
  <advance width="311"/>
  <unicode hex="0054"/>
  <anchor x="102" y="0" name="bottom"/>
  <anchor x="178" y="365" name="center"/>
  <anchor x="253" y="729" name="top"/>
  <outline>
    <contour>
      <point x="87" y="0" type="line"/>
      <point x="117" y="0" type="line"/>
      <point x="265" y="708" type="line"/>
      <point x="234" y="708" type="line"/>
    </contour>
    <contour>
      <point x="92" y="700" type="line"/>
      <point x="403" y="700" type="line"/>
      <point x="409" y="729" type="line"/>
      <point x="98" y="729" type="line"/>
    </contour>
  </outline>
</glyph>
<glyph name="U" format="2">
  <advance width="449"/>
  <unicode hex="0055"/>
  <anchor x="182" y="0" name="bottom"/>
  <anchor x="230" y="0" name="ogonek"/>
  <anchor x="322" y="729" name="top"/>
  <anchor x="472" y="729" name="topright"/>
  <outline>
    <contour>
      <point x="182" y="-10" type="curve" smooth="yes"/>
      <point x="266" y="-10"/>
      <point x="339" y="24"/>
      <point x="376" y="199" type="curve" smooth="yes"/>
      <point x="488" y="729" type="line"/>
      <point x="456" y="729" type="line"/>
      <point x="349" y="209" type="line" smooth="yes"/>
      <point x="323" y="84"/>
      <point x="284" y="21"/>
      <point x="187" y="21" type="curve" smooth="yes"/>
      <point x="96" y="21"/>
      <point x="48" y="62"/>
      <point x="88" y="251" type="curve" smooth="yes"/>
      <point x="188" y="729" type="line"/>
      <point x="156" y="729" type="line"/>
      <point x="57" y="249" type="line" smooth="yes"/>
      <point x="22" y="77"/>
      <point x="56" y="-10"/>
    </contour>
  </outline>
</glyph>
<glyph name="V" format="2">
  <advance width="389"/>
  <unicode hex="0056"/>
  <anchor x="153" y="0" name="bottom"/>
  <anchor x="304" y="729" name="top"/>
  <outline>
    <contour>
      <point x="119" y="0" type="line"/>
      <point x="163" y="0" type="line"/>
      <point x="478" y="729" type="line"/>
      <point x="444" y="729" type="line"/>
      <point x="212" y="189" type="line"/>
      <point x="149" y="27" type="line"/>
      <point x="143" y="27" type="line"/>
      <point x="145" y="191" type="line"/>
      <point x="140" y="729" type="line"/>
      <point x="108" y="729" type="line"/>
    </contour>
  </outline>
</glyph>
<glyph name="W" format="2">
  <advance width="587"/>
  <unicode hex="0057"/>
  <anchor x="251" y="0" name="bottom"/>
  <anchor x="402" y="729" name="top"/>
  <outline>
    <contour>
      <point x="81" y="0" type="line"/>
      <point x="126" y="0" type="line"/>
      <point x="318" y="512" type="line"/>
      <point x="380" y="691" type="line"/>
      <point x="385" y="691" type="line"/>
      <point x="375" y="512" type="line"/>
      <point x="355" y="0" type="line"/>
      <point x="400" y="0" type="line"/>
      <point x="669" y="729" type="line"/>
      <point x="638" y="729" type="line"/>
      <point x="476" y="289" type="line"/>
      <point x="385" y="28" type="line"/>
      <point x="379" y="28" type="line"/>
      <point x="395" y="296" type="line"/>
      <point x="412" y="729" type="line"/>
      <point x="370" y="729" type="line"/>
      <point x="200" y="277" type="line"/>
      <point x="114" y="27" type="line"/>
      <point x="108" y="27" type="line"/>
      <point x="124" y="276" type="line"/>
      <point x="143" y="729" type="line"/>
      <point x="114" y="729" type="line"/>
    </contour>
  </outline>
</glyph>
<glyph name="X" format="2">
  <advance width="379"/>
  <unicode hex="0058"/>
  <anchor x="148" y="0" name="bottom"/>
  <anchor x="299" y="729" name="top"/>
  <outline>
    <contour>
      <point x="-45" y="0" type="line"/>
      <point x="-9" y="0" type="line"/>
      <point x="143" y="244" type="line"/>
      <point x="207" y="352" type="line"/>
      <point x="211" y="352" type="line"/>
      <point x="234" y="244" type="line"/>
      <point x="286" y="0" type="line"/>
      <point x="317" y="0" type="line"/>
      <point x="235" y="373" type="line"/>
      <point x="459" y="729" type="line"/>
      <point x="424" y="729" type="line"/>
      <point x="284" y="504" type="line"/>
      <point x="221" y="398" type="line"/>
      <point x="217" y="398" type="line"/>
      <point x="195" y="504" type="line"/>
      <point x="147" y="729" type="line"/>
      <point x="116" y="729" type="line"/>
      <point x="194" y="379" type="line"/>
    </contour>
  </outline>
</glyph>
<glyph name="Y" format="2">
  <advance width="355"/>
  <unicode hex="0059"/>
  <anchor x="125" y="0" name="bottom"/>
  <anchor x="276" y="729" name="top"/>
  <anchor x="119" y="729" name="topleft"/>
  <outline>
    <contour>
      <point x="110" y="0" type="line"/>
      <point x="140" y="0" type="line"/>
      <point x="202" y="300" type="line"/>
      <point x="450" y="729" type="line"/>
      <point x="416" y="729" type="line"/>
      <point x="282" y="494" type="line"/>
      <point x="196" y="335" type="line"/>
      <point x="192" y="335" type="line"/>
      <point x="169" y="494" type="line"/>
      <point x="132" y="729" type="line"/>
      <point x="101" y="729" type="line"/>
      <point x="173" y="302" type="line"/>
    </contour>
  </outline>
</glyph>
<glyph name="Z" format="2">
  <advance width="326"/>
  <unicode hex="005A"/>
  <anchor x="111" y="0" name="bottom"/>
  <anchor x="186" y="365" name="center"/>
  <anchor x="262" y="729" name="top"/>
  <outline>
    <contour>
      <point x="-43" y="0" type="line"/>
      <point x="264" y="0" type="line"/>
      <point x="270" y="30" type="line"/>
      <point x="-2" y="30" type="line"/>
      <point x="404" y="707" type="line"/>
      <point x="408" y="729" type="line"/>
      <point x="119" y="729" type="line"/>
      <point x="113" y="700" type="line"/>
      <point x="367" y="700" type="line"/>
      <point x="-38" y="23" type="line"/>
    </contour>
  </outline>
</glyph>
<glyph name="bracketleft" format="2">
  <advance width="217"/>
  <unicode hex="005B"/>
  <outline>
    <contour>
      <point x="-18" y="-167" type="line"/>
      <point x="118" y="-167" type="line"/>
      <point x="124" y="-140" type="line"/>
      <point x="18" y="-140" type="line"/>
      <point x="208" y="766" type="line"/>
      <point x="314" y="766" type="line"/>
      <point x="320" y="793" type="line"/>
      <point x="184" y="793" type="line"/>
    </contour>
  </outline>
</glyph>
<glyph name="backslash" format="2">
  <advance width="193"/>
  <unicode hex="005C"/>
  <outline>
    <contour>
      <point x="113" y="-82" type="line"/>
      <point x="140" y="-82" type="line"/>
      <point x="108" y="729" type="line"/>
      <point x="81" y="729" type="line"/>
    </contour>
  </outline>
</glyph>
<glyph name="asciicircum" format="2">
  <advance width="480"/>
  <unicode hex="005E"/>
  <outline>
    <contour>
      <point x="149" y="475" type="line"/>
      <point x="184" y="475" type="line"/>
      <point x="334" y="695" type="line"/>
      <point x="391" y="475" type="line"/>
      <point x="422" y="475" type="line"/>
      <point x="353" y="729" type="line"/>
      <point x="325" y="729" type="line"/>
    </contour>
  </outline>
</glyph>
<glyph name="underscore" format="2">
  <advance width="332"/>
  <unicode hex="005F"/>
  <outline>
    <contour>
      <point x="-16" y="-25" type="line"/>
      <point x="231" y="-25" type="line"/>
      <point x="236" y="0" type="line"/>
      <point x="-11" y="0" type="line"/>
    </contour>
  </outline>
</glyph>
<glyph name="a" format="2">
  <advance width="341"/>
  <unicode hex="0061"/>
  <anchor x="118" y="0" name="bottom"/>
  <anchor x="227" y="0" name="ogonek"/>
  <anchor x="224" y="516" name="top"/>
  <outline>
    <contour>
      <point x="110" y="-10" type="curve" smooth="yes"/>
      <point x="153" y="-10"/>
      <point x="185" y="17"/>
      <point x="211" y="70" type="curve"/>
      <point x="212" y="70" type="line"/>
      <point x="198" y="0" type="line"/>
      <point x="227" y="0" type="line"/>
      <point x="334" y="516" type="line"/>
      <point x="307" y="516" type="line"/>
      <point x="289" y="431" type="line"/>
      <point x="287" y="431" type="line"/>
      <point x="282" y="489"/>
      <point x="261" y="525"/>
      <point x="205" y="525" type="curve" smooth="yes"/>
      <point x="143" y="525"/>
      <point x="87" y="463"/>
      <point x="45" y="262" type="curve" smooth="yes"/>
      <point x="16" y="126"/>
      <point x="8" y="-10"/>
    </contour>
    <contour>
      <point x="119" y="15" type="curve" smooth="yes"/>
      <point x="41" y="15"/>
      <point x="45" y="117"/>
      <point x="75" y="263" type="curve" smooth="yes"/>
      <point x="107" y="421"/>
      <point x="145" y="498"/>
      <point x="210" y="498" type="curve" smooth="yes"/>
      <point x="279" y="498"/>
      <point x="282" y="403"/>
      <point x="261" y="302" type="curve" smooth="yes"/>
      <point x="240" y="199" type="line" smooth="yes"/>
      <point x="214" y="73"/>
      <point x="167" y="15"/>
    </contour>
  </outline>
</glyph>
<glyph name="b" format="2">
  <advance width="342"/>
  <unicode hex="0062"/>
  <anchor x="126" y="0" name="bottom"/>
  <anchor x="277" y="729" name="top"/>
  <outline>
    <contour>
      <point x="137" y="-9" type="curve" smooth="yes"/>
      <point x="206" y="-9"/>
      <point x="258" y="67"/>
      <point x="297" y="255" type="curve" smooth="yes"/>
      <point x="332" y="419"/>
      <point x="322" y="526"/>
      <point x="231" y="526" type="curve" smooth="yes"/>
      <point x="186" y="526"/>
      <point x="152" y="494"/>
      <point x="129" y="446" type="curve"/>
      <point x="128" y="446" type="line"/>
      <point x="187" y="729" type="line"/>
      <point x="158" y="729" type="line"/>
      <point x="7" y="0" type="line"/>
      <point x="35" y="0" type="line"/>
      <point x="53" y="85" type="line"/>
      <point x="55" y="85" type="line"/>
      <point x="60" y="25"/>
      <point x="82" y="-9"/>
    </contour>
    <contour>
      <point x="132" y="18" type="curve" smooth="yes"/>
      <point x="61" y="18"/>
      <point x="60" y="116"/>
      <point x="80" y="213" type="curve" smooth="yes"/>
      <point x="101" y="316" type="line" smooth="yes"/>
      <point x="126" y="439"/>
      <point x="172" y="500"/>
      <point x="222" y="500" type="curve" smooth="yes"/>
      <point x="306" y="500"/>
      <point x="294" y="385"/>
      <point x="267" y="256" type="curve" smooth="yes"/>
      <point x="236" y="103"/>
      <point x="200" y="18"/>
    </contour>
  </outline>
</glyph>
<glyph name="c" format="2">
  <advance width="312"/>
  <unicode hex="0063"/>
  <anchor x="123" y="0" name="bottom"/>
  <anchor x="216" y="516" name="top"/>
  <outline>
    <contour>
      <point x="121" y="-10" type="curve" smooth="yes"/>
      <point x="179" y="-10"/>
      <point x="227" y="29"/>
      <point x="260" y="153" type="curve"/>
      <point x="230" y="153" type="line"/>
      <point x="204" y="67"/>
      <point x="178" y="17"/>
      <point x="125" y="17" type="curve" smooth="yes"/>
      <point x="46" y="17"/>
      <point x="44" y="118"/>
      <point x="75" y="266" type="curve" smooth="yes"/>
      <point x="113" y="448"/>
      <point x="160" y="498"/>
      <point x="212" y="498" type="curve" smooth="yes"/>
      <point x="277" y="498"/>
      <point x="281" y="435"/>
      <point x="272" y="356" type="curve"/>
      <point x="302" y="356" type="line"/>
      <point x="315" y="456"/>
      <point x="297" y="525"/>
      <point x="215" y="525" type="curve" smooth="yes"/>
      <point x="131" y="525"/>
      <point x="82" y="441"/>
      <point x="46" y="266" type="curve" smooth="yes"/>
      <point x="15" y="118"/>
      <point x="10" y="-10"/>
    </contour>
  </outline>
</glyph>
<glyph name="d" format="2">
  <advance width="339"/>
  <unicode hex="0064"/>
  <anchor x="133" y="0" name="bottom"/>
  <anchor x="324" y="631" name="center"/>
  <anchor x="284" y="729" name="top"/>
  <anchor x="378" y="729" name="topright"/>
  <outline>
    <contour>
      <point x="107" y="-10" type="curve" smooth="yes"/>
      <point x="153" y="-10"/>
      <point x="182" y="16"/>
      <point x="211" y="70" type="curve"/>
      <point x="212" y="70" type="line"/>
      <point x="201" y="0" type="line"/>
      <point x="226" y="0" type="line"/>
      <point x="377" y="729" type="line"/>
      <point x="349" y="729" type="line"/>
      <point x="287" y="431" type="line"/>
      <point x="285" y="431" type="line"/>
      <point x="281" y="488"/>
      <point x="262" y="524"/>
      <point x="206" y="524" type="curve" smooth="yes"/>
      <point x="138" y="524"/>
      <point x="85" y="457"/>
      <point x="45" y="263" type="curve" smooth="yes"/>
      <point x="15" y="123"/>
      <point x="7" y="-10"/>
    </contour>
    <contour>
      <point x="119" y="15" type="curve" smooth="yes"/>
      <point x="34" y="15"/>
      <point x="46" y="127"/>
      <point x="75" y="263" type="curve" smooth="yes"/>
      <point x="106" y="410"/>
      <point x="139" y="497"/>
      <point x="209" y="497" type="curve" smooth="yes"/>
      <point x="271" y="497"/>
      <point x="285" y="422"/>
      <point x="260" y="301" type="curve" smooth="yes"/>
      <point x="239" y="198" type="line" smooth="yes"/>
      <point x="214" y="75"/>
      <point x="170" y="15"/>
    </contour>
  </outline>
</glyph>
<glyph name="e" format="2">
  <advance width="324"/>
  <unicode hex="0065"/>
  <anchor x="122" y="0" name="bottom"/>
  <anchor x="167" y="0" name="ogonek"/>
  <anchor x="215" y="516" name="top"/>
  <outline>
    <contour>
      <point x="122" y="-10" type="curve" smooth="yes"/>
      <point x="175" y="-10"/>
      <point x="229" y="25"/>
      <point x="261" y="148" type="curve"/>
      <point x="231" y="148" type="line"/>
      <point x="210" y="70"/>
      <point x="179" y="18"/>
      <point x="126" y="18" type="curve" smooth="yes"/>
      <point x="43" y="18"/>
      <point x="46" y="124"/>
      <point x="74" y="260" type="curve"/>
      <point x="283" y="260" type="line"/>
      <point x="311" y="405"/>
      <point x="315" y="525"/>
      <point x="215" y="525" type="curve" smooth="yes"/>
      <point x="124" y="525"/>
      <point x="79" y="426"/>
      <point x="46" y="266" type="curve" smooth="yes"/>
      <point x="12" y="102"/>
      <point x="15" y="-10"/>
    </contour>
    <contour>
      <point x="77" y="281" type="line"/>
      <point x="116" y="451"/>
      <point x="161" y="497"/>
      <point x="211" y="497" type="curve" smooth="yes"/>
      <point x="285" y="497"/>
      <point x="276" y="394"/>
      <point x="257" y="282" type="curve"/>
      <point x="262" y="288" type="line"/>
      <point x="69" y="288" type="line"/>
    </contour>
  </outline>
</glyph>
<glyph name="f" format="2">
  <advance width="156"/>
  <unicode hex="0066"/>
  <anchor x="48" y="0" name="bottom"/>
  <anchor x="199" y="729" name="top"/>
  <outline>
    <contour>
      <point x="9" y="0" type="line"/>
      <point x="38" y="0" type="line"/>
      <point x="140" y="489" type="line"/>
      <point x="192" y="489" type="line"/>
      <point x="197" y="516" type="line"/>
      <point x="146" y="516" type="line"/>
      <point x="173" y="648" type="line" smooth="yes"/>
      <point x="182" y="688"/>
      <point x="196" y="700"/>
      <point x="225" y="700" type="curve" smooth="yes"/>
      <point x="240" y="700" type="line"/>
      <point x="245" y="729" type="line"/>
      <point x="229" y="729" type="line" smooth="yes"/>
      <point x="187" y="729"/>
      <point x="158" y="710"/>
      <point x="146" y="654" type="curve" smooth="yes"/>
      <point x="117" y="516" type="line"/>
      <point x="78" y="516" type="line"/>
      <point x="72" y="489" type="line"/>
      <point x="111" y="489" type="line"/>
    </contour>
  </outline>
</glyph>
<glyph name="g" format="2">
  <advance width="338"/>
  <unicode hex="0067"/>
  <anchor x="94" y="-167" name="bottom"/>
  <anchor x="235" y="516" name="top"/>
  <outline>
    <contour>
      <point x="86" y="-177" type="curve" smooth="yes"/>
      <point x="143" y="-177"/>
      <point x="194" y="-154"/>
      <point x="219" y="-31" type="curve" smooth="yes"/>
      <point x="332" y="516" type="line"/>
      <point x="304" y="516" type="line"/>
      <point x="286" y="432" type="line"/>
      <point x="284" y="432" type="line"/>
      <point x="281" y="488"/>
      <point x="258" y="526"/>
      <point x="202" y="526" type="curve" smooth="yes"/>
      <point x="139" y="526"/>
      <point x="84" y="463"/>
      <point x="44" y="270" type="curve" smooth="yes"/>
      <point x="10" y="105"/>
      <point x="24" y="10"/>
      <point x="111" y="10" type="curve" smooth="yes"/>
      <point x="158" y="10"/>
      <point x="189" y="41"/>
      <point x="214" y="89" type="curve"/>
      <point x="215" y="89" type="line"/>
      <point x="192" y="-21" type="line" smooth="yes"/>
      <point x="173" y="-113"/>
      <point x="150" y="-150"/>
      <point x="88" y="-150" type="curve" smooth="yes"/>
      <point x="39" y="-150"/>
      <point x="15" y="-118"/>
      <point x="24" y="-52" type="curve"/>
      <point x="-5" y="-52" type="line"/>
      <point x="-12" y="-134"/>
      <point x="24" y="-177"/>
    </contour>
    <contour>
      <point x="121" y="35" type="curve" smooth="yes"/>
      <point x="37" y="35"/>
      <point x="49" y="144"/>
      <point x="74" y="268" type="curve" smooth="yes"/>
      <point x="104" y="416"/>
      <point x="138" y="498"/>
      <point x="206" y="498" type="curve" smooth="yes"/>
      <point x="276" y="498"/>
      <point x="280" y="406"/>
      <point x="259" y="302" type="curve" smooth="yes"/>
      <point x="240" y="210" type="line" smooth="yes"/>
      <point x="216" y="94"/>
      <point x="170" y="35"/>
    </contour>
  </outline>
</glyph>
<glyph name="h" format="2">
  <advance width="352"/>
  <unicode hex="0068"/>
  <anchor x="135" y="0" name="bottom"/>
  <anchor x="172" y="631" name="center"/>
  <anchor x="173" y="729" name="top"/>
  <outline>
    <contour>
      <point x="7" y="0" type="line"/>
      <point x="36" y="0" type="line"/>
      <point x="110" y="355" type="line"/>
      <point x="135" y="448"/>
      <point x="176" y="501"/>
      <point x="231" y="501" type="curve" smooth="yes"/>
      <point x="299" y="501"/>
      <point x="306" y="451"/>
      <point x="289" y="366" type="curve" smooth="yes"/>
      <point x="213" y="0" type="line"/>
      <point x="242" y="0" type="line"/>
      <point x="319" y="371" type="line" smooth="yes"/>
      <point x="337" y="457"/>
      <point x="327" y="526"/>
      <point x="244" y="526" type="curve" smooth="yes"/>
      <point x="197" y="526"/>
      <point x="154" y="497"/>
      <point x="131" y="446" type="curve"/>
      <point x="130" y="446" type="line"/>
      <point x="187" y="729" type="line"/>
      <point x="158" y="729" type="line"/>
    </contour>
  </outline>
</glyph>
<glyph name="k" format="2">
  <advance width="281"/>
  <unicode hex="006B"/>
  <anchor x="98" y="0" name="bottom"/>
  <anchor x="249" y="729" name="top"/>
  <outline>
    <contour>
      <point x="7" y="0" type="line"/>
      <point x="36" y="0" type="line"/>
      <point x="70" y="170" type="line"/>
      <point x="155" y="289" type="line"/>
      <point x="160" y="231" type="line"/>
      <point x="185" y="0" type="line"/>
      <point x="217" y="0" type="line"/>
      <point x="176" y="320" type="line"/>
      <point x="316" y="516" type="line"/>
      <point x="279" y="516" type="line"/>
      <point x="130" y="303" type="line"/>
      <point x="85" y="237" type="line"/>
      <point x="187" y="729" type="line"/>
      <point x="158" y="729" type="line"/>
    </contour>
  </outline>
</glyph>
<glyph name="l" format="2">
  <advance width="149"/>
  <unicode hex="006C"/>
  <anchor x="22" y="0" name="bottom"/>
  <anchor x="97" y="365" name="center"/>
  <anchor x="172" y="729" name="top"/>
  <anchor x="187" y="729" name="topright"/>
  <outline>
    <contour>
      <point x="7" y="0" type="line"/>
      <point x="36" y="0" type="line"/>
      <point x="187" y="729" type="line"/>
      <point x="158" y="729" type="line"/>
    </contour>
  </outline>
</glyph>
<glyph name="m" format="2">
  <advance width="558"/>
  <unicode hex="006D"/>
  <anchor x="238" y="0" name="bottom"/>
  <anchor x="344" y="516" name="top"/>
  <outline>
    <contour>
      <point x="7" y="0" type="line"/>
      <point x="36" y="0" type="line"/>
      <point x="100" y="315" type="line" smooth="yes"/>
      <point x="123" y="425"/>
      <point x="165" y="501"/>
      <point x="231" y="501" type="curve" smooth="yes"/>
      <point x="296" y="501"/>
      <point x="308" y="455"/>
      <point x="289" y="366" type="curve" smooth="yes"/>
      <point x="213" y="0" type="line"/>
      <point x="242" y="0" type="line"/>
      <point x="318" y="361" type="line" smooth="yes"/>
      <point x="334" y="441"/>
      <point x="381" y="501"/>
      <point x="437" y="501" type="curve" smooth="yes"/>
      <point x="502" y="501"/>
      <point x="514" y="455"/>
      <point x="495" y="366" type="curve" smooth="yes"/>
      <point x="419" y="0" type="line"/>
      <point x="448" y="0" type="line"/>
      <point x="525" y="371" type="line" smooth="yes"/>
      <point x="544" y="462"/>
      <point x="530" y="526"/>
      <point x="449" y="526" type="curve" smooth="yes"/>
      <point x="401" y="526"/>
      <point x="351" y="493"/>
      <point x="328" y="436" type="curve"/>
      <point x="324" y="436" type="line"/>
      <point x="327" y="490"/>
      <point x="305" y="526"/>
      <point x="244" y="526" type="curve" smooth="yes"/>
      <point x="195" y="526"/>
      <point x="153" y="495"/>
      <point x="131" y="446" type="curve"/>
      <point x="130" y="446" type="line"/>
      <point x="140" y="516" type="line"/>
      <point x="113" y="516" type="line"/>
    </contour>
  </outline>
</glyph>
<glyph name="o" format="2">
  <advance width="336"/>
  <unicode hex="006F"/>
  <anchor x="128" y="0" name="bottom"/>
  <anchor x="168" y="258" name="center"/>
  <anchor x="259" y="10" name="ogonek"/>
  <anchor x="218" y="516" name="top"/>
  <anchor x="261" y="507" name="topright"/>
  <outline>
    <contour>
      <point x="122" y="-9" type="curve" smooth="yes"/>
      <point x="204" y="-9"/>
      <point x="253" y="72"/>
      <point x="290" y="249" type="curve" smooth="yes"/>
      <point x="321" y="396"/>
      <point x="330" y="525"/>
      <point x="214" y="525" type="curve" smooth="yes"/>
      <point x="132" y="525"/>
      <point x="83" y="444"/>
      <point x="46" y="267" type="curve" smooth="yes"/>
      <point x="15" y="120"/>
      <point x="6" y="-9"/>
    </contour>
    <contour>
      <point x="124" y="18" type="curve" smooth="yes"/>
      <point x="35" y="18"/>
      <point x="49" y="140"/>
      <point x="75" y="267" type="curve" smooth="yes"/>
      <point x="112" y="445"/>
      <point x="160" y="498"/>
      <point x="212" y="498" type="curve" smooth="yes"/>
      <point x="301" y="498"/>
      <point x="287" y="376"/>
      <point x="261" y="249" type="curve" smooth="yes"/>
      <point x="224" y="71"/>
      <point x="176" y="18"/>
    </contour>
  </outline>
</glyph>
<glyph name="q" format="2">
  <advance width="341"/>
  <unicode hex="0071"/>
  <anchor x="133" y="0" name="bottom"/>
  <anchor x="239" y="516" name="top"/>
  <outline>
    <contour>
      <point x="164" y="-167" type="line"/>
      <point x="193" y="-167" type="line"/>
      <point x="334" y="516" type="line"/>
      <point x="308" y="516" type="line"/>
      <point x="289" y="431" type="line"/>
      <point x="287" y="431" type="line"/>
      <point x="282" y="489"/>
      <point x="261" y="525"/>
      <point x="205" y="525" type="curve" smooth="yes"/>
      <point x="143" y="525"/>
      <point x="87" y="463"/>
      <point x="45" y="262" type="curve" smooth="yes"/>
      <point x="16" y="126"/>
      <point x="8" y="-10"/>
      <point x="110" y="-10" type="curve" smooth="yes"/>
      <point x="153" y="-10"/>
      <point x="186" y="17"/>
      <point x="212" y="70" type="curve"/>
      <point x="213" y="70" type="line"/>
    </contour>
    <contour>
      <point x="119" y="15" type="curve" smooth="yes"/>
      <point x="41" y="15"/>
      <point x="45" y="117"/>
      <point x="75" y="263" type="curve" smooth="yes"/>
      <point x="107" y="421"/>
      <point x="145" y="498"/>
      <point x="210" y="498" type="curve" smooth="yes"/>
      <point x="279" y="498"/>
      <point x="282" y="403"/>
      <point x="261" y="302" type="curve" smooth="yes"/>
      <point x="240" y="199" type="line" smooth="yes"/>
      <point x="214" y="73"/>
      <point x="168" y="15"/>
    </contour>
  </outline>
</glyph>
<glyph name="r" format="2">
  <advance width="207"/>
  <unicode hex="0072"/>
  <anchor x="22" y="0" name="bottom"/>
  <anchor x="181" y="516" name="top"/>
  <outline>
    <contour>
      <point x="7" y="0" type="line"/>
      <point x="36" y="0" type="line"/>
      <point x="102" y="320" type="line" smooth="yes"/>
      <point x="124" y="422"/>
      <point x="167" y="491"/>
      <point x="239" y="491" type="curve" smooth="yes"/>
      <point x="244" y="491"/>
      <point x="250" y="491"/>
      <point x="259" y="489" type="curve"/>
      <point x="266" y="523" type="line"/>
      <point x="262" y="525"/>
      <point x="254" y="526"/>
      <point x="245" y="526" type="curve" smooth="yes"/>
      <point x="200" y="526"/>
      <point x="159" y="498"/>
      <point x="129" y="440" type="curve"/>
      <point x="127" y="440" type="line"/>
      <point x="143" y="516" type="line"/>
      <point x="115" y="516" type="line"/>
    </contour>
  </outline>
</glyph>
<glyph name="s" format="2">
  <advance width="288"/>
  <unicode hex="0073"/>
  <anchor x="105" y="0" name="bottom"/>
  <anchor x="187" y="516" name="top"/>
  <outline>
    <contour>
      <point x="103" y="-10" type="curve" smooth="yes"/>
      <point x="174" y="-10"/>
      <point x="227" y="41"/>
      <point x="227" y="149" type="curve" smooth="yes"/>
      <point x="227" y="205"/>
      <point x="205" y="234"/>
      <point x="160" y="279" type="curve" smooth="yes"/>
      <point x="133" y="306"/>
      <point x="101" y="339"/>
      <point x="101" y="388" type="curve" smooth="yes"/>
      <point x="101" y="456"/>
      <point x="134" y="497"/>
      <point x="183" y="497" type="curve" smooth="yes"/>
      <point x="259" y="497"/>
      <point x="250" y="423"/>
      <point x="242" y="366" type="curve"/>
      <point x="269" y="366" type="line"/>
      <point x="284" y="447"/>
      <point x="279" y="526"/>
      <point x="188" y="526" type="curve" smooth="yes"/>
      <point x="119" y="526"/>
      <point x="72" y="470"/>
      <point x="72" y="384" type="curve" smooth="yes"/>
      <point x="72" y="338"/>
      <point x="92" y="299"/>
      <point x="137" y="258" type="curve" smooth="yes"/>
      <point x="181" y="217"/>
      <point x="198" y="188"/>
      <point x="198" y="146" type="curve" smooth="yes"/>
      <point x="198" y="65"/>
      <point x="163" y="18"/>
      <point x="106" y="18" type="curve" smooth="yes"/>
      <point x="24" y="18"/>
      <point x="26" y="96"/>
      <point x="36" y="161" type="curve"/>
      <point x="9" y="161" type="line"/>
      <point x="-5" y="85"/>
      <point x="0" y="-10"/>
    </contour>
  </outline>
</glyph>
<glyph name="t" format="2">
  <advance width="162"/>
  <unicode hex="0074"/>
  <anchor x="53" y="0" name="bottom"/>
  <anchor x="83" y="258" name="center"/>
  <anchor x="131" y="516" name="top"/>
  <anchor x="201" y="785" name="topright"/>
  <outline>
    <contour>
      <point x="64" y="0" type="curve" smooth="yes"/>
      <point x="91" y="0" type="line"/>
      <point x="97" y="30" type="line"/>
      <point x="72" y="30" type="line" smooth="yes"/>
      <point x="49" y="30"/>
      <point x="45" y="41"/>
      <point x="54" y="82" type="curve" smooth="yes"/>
      <point x="139" y="492" type="line"/>
      <point x="195" y="492" type="line"/>
      <point x="199" y="516" type="line"/>
      <point x="144" y="516" type="line"/>
      <point x="183" y="700" type="line"/>
      <point x="154" y="697" type="line"/>
      <point x="116" y="516" type="line"/>
      <point x="72" y="516" type="line"/>
      <point x="67" y="492" type="line"/>
      <point x="111" y="492" type="line"/>
      <point x="23" y="70" type="line" smooth="yes"/>
      <point x="12" y="18"/>
      <point x="28" y="0"/>
    </contour>
  </outline>
</glyph>
<glyph name="u" format="2">
  <advance width="351"/>
  <unicode hex="0075"/>
  <anchor x="132" y="0" name="bottom"/>
  <anchor x="276" y="10" name="ogonek"/>
  <anchor x="228" y="516" name="top"/>
  <anchor x="316" y="516" name="topright"/>
  <outline>
    <contour>
      <point x="108" y="-10" type="curve" smooth="yes"/>
      <point x="156" y="-10"/>
      <point x="198" y="19"/>
      <point x="221" y="70" type="curve"/>
      <point x="223" y="70" type="line"/>
      <point x="212" y="0" type="line"/>
      <point x="239" y="0" type="line"/>
      <point x="345" y="516" type="line"/>
      <point x="316" y="516" type="line"/>
      <point x="252" y="201" type="line" smooth="yes"/>
      <point x="229" y="88"/>
      <point x="186" y="15"/>
      <point x="120" y="15" type="curve" smooth="yes"/>
      <point x="50" y="15"/>
      <point x="46" y="68"/>
      <point x="63" y="149" type="curve" smooth="yes"/>
      <point x="139" y="516" type="line"/>
      <point x="110" y="516" type="line"/>
      <point x="33" y="145" type="line" smooth="yes"/>
      <point x="15" y="59"/>
      <point x="24" y="-10"/>
    </contour>
  </outline>
</glyph>
<glyph name="v" format="2">
  <advance width="266"/>
  <unicode hex="0076"/>
  <anchor x="90" y="0" name="bottom"/>
  <anchor x="196" y="516" name="top"/>
  <outline>
    <contour>
      <point x="61" y="0" type="line"/>
      <point x="97" y="0" type="line"/>
      <point x="306" y="516" type="line"/>
      <point x="275" y="516" type="line"/>
      <point x="129" y="151" type="line"/>
      <point x="88" y="32" type="line"/>
      <point x="84" y="32" type="line"/>
      <point x="89" y="152" type="line"/>
      <point x="95" y="516" type="line"/>
      <point x="67" y="516" type="line"/>
    </contour>
  </outline>
</glyph>
<glyph name="w" format="2">
  <advance width="468"/>
  <unicode hex="0077"/>
  <anchor x="191" y="0" name="bottom"/>
  <anchor x="285" y="516" name="top"/>
  <outline>
    <contour>
      <point x="55" y="0" type="line"/>
      <point x="96" y="0" type="line"/>
      <point x="220" y="326" type="line"/>
      <point x="276" y="480" type="line"/>
      <point x="280" y="480" type="line"/>
      <point x="274" y="326" type="line"/>
      <point x="269" y="0" type="line"/>
      <point x="308" y="0" type="line"/>
      <point x="504" y="516" type="line"/>
      <point x="473" y="516" type="line"/>
      <point x="340" y="160" type="line"/>
      <point x="296" y="29" type="line"/>
      <point x="292" y="29" type="line"/>
      <point x="297" y="160" type="line"/>
      <point x="304" y="516" type="line"/>
      <point x="265" y="516" type="line"/>
      <point x="128" y="160" type="line"/>
      <point x="82" y="30" type="line"/>
      <point x="78" y="30" type="line"/>
      <point x="86" y="160" type="line"/>
      <point x="98" y="516" type="line"/>
      <point x="70" y="516" type="line"/>
    </contour>
  </outline>
</glyph>
<glyph name="x" format="2">
  <advance width="250"/>
  <unicode hex="0078"/>
  <anchor x="72" y="0" name="bottom"/>
  <anchor x="179" y="516" name="top"/>
  <outline>
    <contour>
      <point x="-40" y="0" type="line"/>
      <point x="-9" y="0" type="line"/>
      <point x="109" y="221" type="line"/>
      <point x="121" y="244" type="line"/>
      <point x="125" y="244" type="line"/>
      <point x="127" y="221" type="line"/>
      <point x="153" y="0" type="line"/>
      <point x="180" y="0" type="line"/>
      <point x="144" y="261" type="line"/>
      <point x="287" y="516" type="line"/>
      <point x="256" y="516" type="line"/>
      <point x="143" y="303" type="line"/>
      <point x="133" y="283" type="line"/>
      <point x="129" y="283" type="line"/>
      <point x="127" y="303" type="line"/>
      <point x="104" y="516" type="line"/>
      <point x="77" y="516" type="line"/>
      <point x="110" y="266" type="line"/>
    </contour>
  </outline>
</glyph>
<glyph name="y" format="2">
  <advance width="252"/>
  <unicode hex="0079"/>
  <anchor x="157" y="0" name="bottom"/>
  <anchor x="178" y="516" name="top"/>
  <outline>
    <contour>
      <point x="-62" y="-168" type="line"/>
      <point x="-37" y="-168" type="line" smooth="yes"/>
      <point x="-3" y="-168"/>
      <point x="24" y="-153"/>
      <point x="42" y="-107" type="curve" smooth="yes"/>
      <point x="291" y="516" type="line"/>
      <point x="260" y="516" type="line"/>
      <point x="119" y="153" type="line"/>
      <point x="86" y="58" type="line"/>
      <point x="82" y="58" type="line"/>
      <point x="85" y="151" type="line"/>
      <point x="95" y="516" type="line"/>
      <point x="69" y="516" type="line"/>
      <point x="56" y="-48" type="line"/>
      <point x="71" y="39" type="line"/>
      <point x="21" y="-93" type="line" smooth="yes"/>
      <point x="5" y="-135"/>
      <point x="-11" y="-143"/>
      <point x="-43" y="-143" type="curve" smooth="yes"/>
      <point x="-57" y="-143" type="line"/>
    </contour>
  </outline>
</glyph>
<glyph name="z" format="2">
  <advance width="216"/>
  <unicode hex="007A"/>
  <anchor x="67" y="0" name="bottom"/>
  <anchor x="120" y="258" name="center"/>
  <anchor x="173" y="516" name="top"/>
  <outline>
    <contour>
      <point x="-40" y="0" type="line"/>
      <point x="150" y="0" type="line"/>
      <point x="155" y="24" type="line"/>
      <point x="-3" y="24" type="line"/>
      <point x="250" y="495" type="line"/>
      <point x="255" y="516" type="line"/>
      <point x="72" y="516" type="line"/>
      <point x="67" y="492" type="line"/>
      <point x="218" y="492" type="line"/>
      <point x="-35" y="20" type="line"/>
    </contour>
  </outline>
</glyph>
<glyph name="braceleft" format="2">
  <advance width="235"/>
  <unicode hex="007B"/>
  <outline>
    <contour>
      <point x="37" y="-167" type="curve" smooth="yes"/>
      <point x="136" y="-167" type="line"/>
      <point x="142" y="-140" type="line"/>
      <point x="36" y="-140" type="line"/>
      <point x="110" y="210" type="line" smooth="yes"/>
      <point x="122" y="269"/>
      <point x="97" y="310"/>
      <point x="63" y="311" type="curve"/>
      <point x="63" y="315" type="line"/>
      <point x="99" y="316"/>
      <point x="141" y="357"/>
      <point x="153" y="416" type="curve" smooth="yes"/>
      <point x="226" y="766" type="line"/>
      <point x="332" y="766" type="line"/>
      <point x="338" y="793" type="line"/>
      <point x="239" y="793" type="line" smooth="yes"/>
      <point x="215" y="793"/>
      <point x="199" y="777"/>
      <point x="194" y="754" type="curve" smooth="yes"/>
      <point x="123" y="415" type="line" smooth="yes"/>
      <point x="111" y="359"/>
      <point x="74" y="329"/>
      <point x="43" y="329" type="curve" smooth="yes"/>
      <point x="22" y="329" type="line"/>
      <point x="15" y="297" type="line"/>
      <point x="36" y="297" type="line" smooth="yes"/>
      <point x="67" y="297"/>
      <point x="92" y="267"/>
      <point x="80" y="211" type="curve" smooth="yes"/>
      <point x="9" y="-128" type="line" smooth="yes"/>
      <point x="4" y="-151"/>
      <point x="13" y="-167"/>
    </contour>
  </outline>
</glyph>
<glyph name="bar" format="2">
  <advance width="185"/>
  <unicode hex="007C"/>
  <outline>
    <contour>
      <point x="10" y="-67" type="line"/>
      <point x="40" y="-67" type="line"/>
      <point x="206" y="729" type="line"/>
      <point x="177" y="729" type="line"/>
    </contour>
  </outline>
</glyph>
<glyph name="asciitilde" format="2">
  <advance width="480"/>
  <unicode hex="007E"/>
  <outline>
    <contour>
      <point x="67" y="305" type="curve"/>
      <point x="98" y="305" type="line"/>
      <point x="102" y="338"/>
      <point x="120" y="366"/>
      <point x="149" y="366" type="curve" smooth="yes"/>
      <point x="187" y="366"/>
      <point x="233" y="317"/>
      <point x="286" y="317" type="curve" smooth="yes"/>
      <point x="330" y="317"/>
      <point x="374" y="343"/>
      <point x="385" y="417" type="curve"/>
      <point x="355" y="417" type="line"/>
      <point x="347" y="374"/>
      <point x="324" y="353"/>
      <point x="294" y="353" type="curve" smooth="yes"/>
      <point x="246" y="353"/>
      <point x="206" y="401"/>
      <point x="158" y="401" type="curve" smooth="yes"/>
      <point x="126" y="401"/>
      <point x="78" y="384"/>
    </contour>
  </outline>
</glyph>
<glyph name="cent" format="2">
  <advance width="319"/>
  <unicode hex="00A2"/>
  <outline>
    <contour>
      <point x="144" y="97" type="curve" smooth="yes"/>
      <point x="202" y="97"/>
      <point x="250" y="136"/>
      <point x="283" y="260" type="curve"/>
      <point x="253" y="260" type="line"/>
      <point x="227" y="174"/>
      <point x="201" y="124"/>
      <point x="148" y="124" type="curve" smooth="yes"/>
      <point x="69" y="124"/>
      <point x="67" y="225"/>
      <point x="98" y="373" type="curve" smooth="yes"/>
      <point x="136" y="555"/>
      <point x="183" y="605"/>
      <point x="235" y="605" type="curve" smooth="yes"/>
      <point x="300" y="605"/>
      <point x="304" y="542"/>
      <point x="295" y="463" type="curve"/>
      <point x="325" y="463" type="line"/>
      <point x="338" y="563"/>
      <point x="320" y="632"/>
      <point x="238" y="632" type="curve" smooth="yes"/>
      <point x="154" y="632"/>
      <point x="105" y="548"/>
      <point x="69" y="373" type="curve" smooth="yes"/>
      <point x="38" y="225"/>
      <point x="33" y="97"/>
    </contour>
    <contour>
      <point x="101" y="0" type="line"/>
      <point x="129" y="0" type="line"/>
      <point x="152" y="114" type="line"/>
      <point x="124" y="114" type="line"/>
    </contour>
    <contour>
      <point x="229" y="621" type="line"/>
      <point x="257" y="621" type="line"/>
      <point x="279" y="729" type="line"/>
      <point x="251" y="729" type="line"/>
    </contour>
  </outline>
</glyph>
<glyph name="sterling" format="2">
  <advance width="437"/>
  <unicode hex="00A3"/>
  <outline>
    <contour>
      <point x="16" y="29" type="curve"/>
      <point x="38" y="19" type="line"/>
      <point x="100" y="67"/>
      <point x="140" y="140"/>
      <point x="157" y="225" type="curve" smooth="yes"/>
      <point x="183" y="353"/>
      <point x="158" y="457"/>
      <point x="181" y="570" type="curve" smooth="yes"/>
      <point x="200" y="661"/>
      <point x="250" y="711"/>
      <point x="325" y="711" type="curve" smooth="yes"/>
      <point x="417" y="711"/>
      <point x="452" y="637"/>
      <point x="414" y="511" type="curve"/>
      <point x="447" y="511" type="line"/>
      <point x="488" y="655"/>
      <point x="436" y="739"/>
      <point x="325" y="739" type="curve" smooth="yes"/>
      <point x="238" y="739"/>
      <point x="170" y="676"/>
      <point x="150" y="579" type="curve" smooth="yes"/>
      <point x="126" y="465"/>
      <point x="151" y="358"/>
      <point x="126" y="234" type="curve" smooth="yes"/>
      <point x="109" y="149"/>
      <point x="73" y="83"/>
    </contour>
    <contour>
      <point x="-36" y="0" type="line"/>
      <point x="330" y="0" type="line"/>
      <point x="366" y="177" type="line"/>
      <point x="335" y="177" type="line"/>
      <point x="305" y="29" type="line"/>
      <point x="-30" y="29" type="line"/>
    </contour>
    <contour>
      <point x="62" y="349" type="line"/>
      <point x="337" y="349" type="line"/>
      <point x="343" y="378" type="line"/>
      <point x="68" y="378" type="line"/>
    </contour>
  </outline>
</glyph>
<glyph name="currency" format="2">
  <advance width="482"/>
  <unicode hex="00A4"/>
  <outline>
    <contour>
      <point x="80" y="156" type="line"/>
      <point x="166" y="245" type="line"/>
      <point x="191" y="225"/>
      <point x="222" y="214"/>
      <point x="257" y="214" type="curve" smooth="yes"/>
      <point x="293" y="214"/>
      <point x="324" y="226"/>
      <point x="347" y="246" type="curve"/>
      <point x="430" y="156" type="line"/>
      <point x="452" y="176" type="line"/>
      <point x="370" y="266" type="line"/>
      <point x="388" y="286"/>
      <point x="404" y="319"/>
      <point x="406" y="360" type="curve" smooth="yes"/>
      <point x="407" y="397"/>
      <point x="397" y="429"/>
      <point x="377" y="457" type="curve"/>
      <point x="464" y="545" type="line"/>
      <point x="445" y="566" type="line"/>
      <point x="355" y="477" type="line"/>
      <point x="332" y="497"/>
      <point x="301" y="507"/>
      <point x="267" y="507" type="curve" smooth="yes"/>
      <point x="233" y="507"/>
      <point x="201" y="496"/>
      <point x="175" y="477" type="curve"/>
      <point x="94" y="566" type="line"/>
      <point x="72" y="545" type="line"/>
      <point x="153" y="457" type="line"/>
      <point x="131" y="431"/>
      <point x="118" y="396"/>
      <point x="117" y="360" type="curve" smooth="yes"/>
      <point x="115" y="328"/>
      <point x="124" y="292"/>
      <point x="145" y="266" type="curve"/>
      <point x="59" y="176" type="line"/>
    </contour>
    <contour>
      <point x="258" y="243" type="curve" smooth="yes"/>
      <point x="192" y="243"/>
      <point x="144" y="293"/>
      <point x="146" y="360" type="curve" smooth="yes"/>
      <point x="149" y="428"/>
      <point x="199" y="478"/>
      <point x="266" y="478" type="curve" smooth="yes"/>
      <point x="331" y="478"/>
      <point x="377" y="429"/>
      <point x="375" y="360" type="curve" smooth="yes"/>
      <point x="373" y="292"/>
      <point x="322" y="243"/>
    </contour>
  </outline>
</glyph>
<glyph name="yen" format="2">
  <advance width="397"/>
  <unicode hex="00A5"/>
  <outline>
    <contour>
      <point x="129" y="0" type="line"/>
      <point x="159" y="0" type="line"/>
      <point x="193" y="163" type="line"/>
      <point x="327" y="163" type="line"/>
      <point x="333" y="190" type="line"/>
      <point x="198" y="190" type="line"/>
      <point x="222" y="304" type="line"/>
      <point x="356" y="304" type="line"/>
      <point x="362" y="331" type="line"/>
      <point x="241" y="331" type="line"/>
      <point x="472" y="729" type="line"/>
      <point x="437" y="729" type="line"/>
      <point x="217" y="344" type="line"/>
      <point x="213" y="344" type="line"/>
      <point x="153" y="729" type="line"/>
      <point x="122" y="729" type="line"/>
      <point x="188" y="331" type="line"/>
      <point x="66" y="331" type="line"/>
      <point x="60" y="304" type="line"/>
      <point x="191" y="304" type="line"/>
      <point x="168" y="190" type="line"/>
      <point x="37" y="190" type="line"/>
      <point x="31" y="163" type="line"/>
      <point x="162" y="163" type="line"/>
    </contour>
  </outline>
</glyph>
<glyph name="brokenbar" format="2">
  <advance width="186"/>
  <unicode hex="00A6"/>
  <outline>
    <contour>
      <point x="112" y="419" type="line"/>
      <point x="142" y="419" type="line"/>
      <point x="206" y="729" type="line"/>
      <point x="177" y="729" type="line"/>
    </contour>
    <contour>
      <point x="10" y="-67" type="line"/>
      <point x="40" y="-67" type="line"/>
      <point x="104" y="243" type="line"/>
      <point x="75" y="243" type="line"/>
    </contour>
  </outline>
</glyph>
<glyph name="section" format="2">
  <advance width="327"/>
  <unicode hex="00A7"/>
  <outline>
    <contour>
      <point x="118" y="-10" type="curve" smooth="yes"/>
      <point x="187" y="-10"/>
      <point x="242" y="41"/>
      <point x="242" y="149" type="curve" smooth="yes"/>
      <point x="242" y="179"/>
      <point x="236" y="202"/>
      <point x="223" y="223" type="curve"/>
      <point x="265" y="255"/>
      <point x="292" y="297"/>
      <point x="292" y="365" type="curve" smooth="yes"/>
      <point x="292" y="421"/>
      <point x="270" y="450"/>
      <point x="225" y="495" type="curve" smooth="yes"/>
      <point x="198" y="522"/>
      <point x="166" y="555"/>
      <point x="166" y="604" type="curve" smooth="yes"/>
      <point x="166" y="672"/>
      <point x="199" y="713"/>
      <point x="248" y="713" type="curve" smooth="yes"/>
      <point x="324" y="713"/>
      <point x="315" y="639"/>
      <point x="307" y="582" type="curve"/>
      <point x="334" y="582" type="line"/>
      <point x="348" y="650"/>
      <point x="343" y="742"/>
      <point x="250" y="742" type="curve" smooth="yes"/>
      <point x="182" y="742"/>
      <point x="137" y="685"/>
      <point x="137" y="601" type="curve" smooth="yes"/>
      <point x="137" y="570"/>
      <point x="145" y="542"/>
      <point x="165" y="515" type="curve"/>
      <point x="117" y="487"/>
      <point x="87" y="444"/>
      <point x="87" y="384" type="curve" smooth="yes"/>
      <point x="87" y="338"/>
      <point x="107" y="299"/>
      <point x="152" y="258" type="curve" smooth="yes"/>
      <point x="196" y="217"/>
      <point x="213" y="188"/>
      <point x="213" y="146" type="curve" smooth="yes"/>
      <point x="213" y="65"/>
      <point x="178" y="18"/>
      <point x="121" y="18" type="curve" smooth="yes"/>
      <point x="39" y="18"/>
      <point x="41" y="96"/>
      <point x="51" y="161" type="curve"/>
      <point x="24" y="161" type="line"/>
      <point x="9" y="87"/>
      <point x="18" y="-10"/>
    </contour>
    <contour>
      <point x="208" y="244" type="curve"/>
      <point x="199" y="255"/>
      <point x="191" y="264"/>
      <point x="175" y="279" type="curve" smooth="yes"/>
      <point x="148" y="306"/>
      <point x="116" y="339"/>
      <point x="116" y="388" type="curve" smooth="yes"/>
      <point x="116" y="438"/>
      <point x="141" y="471"/>
      <point x="181" y="496" type="curve"/>
      <point x="187" y="488"/>
      <point x="194" y="481"/>
      <point x="202" y="474" type="curve" smooth="yes"/>
      <point x="246" y="433"/>
      <point x="263" y="404"/>
      <point x="263" y="362" type="curve" smooth="yes"/>
      <point x="263" y="309"/>
      <point x="243" y="273"/>
    </contour>
  </outline>
</glyph>
<glyph name="ordfeminine" format="2">
  <advance width="275"/>
  <unicode hex="00AA"/>
  <outline>
    <contour>
      <point x="155" y="385" type="curve" smooth="yes"/>
      <point x="183" y="385"/>
      <point x="204" y="403"/>
      <point x="221" y="437" type="curve"/>
      <point x="222" y="437" type="line"/>
      <point x="213" y="392" type="line"/>
      <point x="243" y="392" type="line"/>
      <point x="313" y="729" type="line"/>
      <point x="284" y="729" type="line"/>
      <point x="273" y="675" type="line"/>
      <point x="271" y="675" type="line"/>
      <point x="268" y="712"/>
      <point x="253" y="735"/>
      <point x="217" y="735" type="curve" smooth="yes"/>
      <point x="174" y="735"/>
      <point x="138" y="692"/>
      <point x="111" y="564" type="curve" smooth="yes"/>
      <point x="92" y="474"/>
      <point x="87" y="385"/>
    </contour>
    <contour>
      <point x="167" y="409" type="curve" smooth="yes"/>
      <point x="119" y="409"/>
      <point x="122" y="470"/>
      <point x="141" y="564" type="curve" smooth="yes"/>
      <point x="161" y="662"/>
      <point x="183" y="709"/>
      <point x="223" y="709" type="curve" smooth="yes"/>
      <point x="266" y="709"/>
      <point x="268" y="650"/>
      <point x="254" y="586" type="curve" smooth="yes"/>
      <point x="241" y="525" type="line" smooth="yes"/>
      <point x="224" y="445"/>
      <point x="196" y="409"/>
    </contour>
  </outline>
</glyph>
<glyph name="logicalnot" format="2">
  <advance width="480"/>
  <unicode hex="00AC"/>
  <outline>
    <contour>
      <point x="397" y="145" type="line"/>
      <point x="424" y="145" type="line"/>
      <point x="472" y="375" type="line"/>
      <point x="2" y="375" type="line"/>
      <point x="-4" y="347" type="line"/>
      <point x="440" y="347" type="line"/>
    </contour>
  </outline>
</glyph>
<glyph name="registered" format="2">
  <advance width="471"/>
  <unicode hex="00AE"/>
  <outline>
    <contour>
      <point x="247" y="233" type="curve" smooth="yes"/>
      <point x="357" y="233"/>
      <point x="437" y="325"/>
      <point x="467" y="469" type="curve" smooth="yes"/>
      <point x="497" y="613"/>
      <point x="455" y="737"/>
      <point x="317" y="737" type="curve" smooth="yes"/>
      <point x="211" y="737"/>
      <point x="130" y="648"/>
      <point x="99" y="501" type="curve" smooth="yes"/>
      <point x="67" y="352"/>
      <point x="111" y="233"/>
    </contour>
    <contour>
      <point x="252" y="259" type="curve" smooth="yes"/>
      <point x="127" y="259"/>
      <point x="97" y="363"/>
      <point x="125" y="501" type="curve" smooth="yes"/>
      <point x="150" y="621"/>
      <point x="214" y="711"/>
      <point x="314" y="711" type="curve" smooth="yes"/>
      <point x="438" y="711"/>
      <point x="469" y="606"/>
      <point x="440" y="469" type="curve" smooth="yes"/>
      <point x="413" y="342"/>
      <point x="350" y="259"/>
    </contour>
    <contour>
      <point x="188" y="343" type="line"/>
      <point x="212" y="343" type="line"/>
      <point x="267" y="608" type="line"/>
      <point x="306" y="608" type="line" smooth="yes"/>
      <point x="338" y="608"/>
      <point x="348" y="588"/>
      <point x="341" y="555" type="curve" smooth="yes"/>
      <point x="333" y="520"/>
      <point x="321" y="502"/>
      <point x="280" y="502" type="curve" smooth="yes"/>
      <point x="240" y="502" type="line"/>
      <point x="235" y="479" type="line"/>
      <point x="286" y="479" type="line" smooth="yes"/>
      <point x="309" y="479"/>
      <point x="319" y="468"/>
      <point x="312" y="438" type="curve" smooth="yes"/>
      <point x="297" y="368" type="line" smooth="yes"/>
      <point x="296" y="363"/>
      <point x="294" y="353"/>
      <point x="294" y="343" type="curve"/>
      <point x="318" y="343" type="line"/>
      <point x="317" y="348"/>
      <point x="318" y="354"/>
      <point x="321" y="369" type="curve" smooth="yes"/>
      <point x="335" y="438" type="line" smooth="yes"/>
      <point x="339" y="457"/>
      <point x="340" y="478"/>
      <point x="319" y="488" type="curve"/>
      <point x="319" y="489" type="line"/>
      <point x="341" y="499"/>
      <point x="359" y="516"/>
      <point x="366" y="551" type="curve" smooth="yes"/>
      <point x="375" y="599"/>
      <point x="360" y="631"/>
      <point x="314" y="631" type="curve" smooth="yes"/>
      <point x="248" y="631" type="line"/>
    </contour>
  </outline>
</glyph>
<glyph name="degree" format="2">
  <advance width="407"/>
  <unicode hex="00B0"/>
  <outline>
    <contour>
      <point x="266" y="443" type="curve" smooth="yes"/>
      <point x="353" y="443"/>
      <point x="423" y="506"/>
      <point x="423" y="596" type="curve" smooth="yes"/>
      <point x="423" y="681"/>
      <point x="359" y="737"/>
      <point x="276" y="737" type="curve" smooth="yes"/>
      <point x="190" y="737"/>
      <point x="121" y="675"/>
      <point x="121" y="584" type="curve" smooth="yes"/>
      <point x="121" y="500"/>
      <point x="184" y="443"/>
    </contour>
    <contour>
      <point x="267" y="478" type="curve" smooth="yes"/>
      <point x="204" y="478"/>
      <point x="157" y="522"/>
      <point x="157" y="586" type="curve" smooth="yes"/>
      <point x="157" y="654"/>
      <point x="210" y="702"/>
      <point x="275" y="702" type="curve" smooth="yes"/>
      <point x="339" y="702"/>
      <point x="386" y="658"/>
      <point x="386" y="594" type="curve" smooth="yes"/>
      <point x="386" y="526"/>
      <point x="334" y="478"/>
    </contour>
  </outline>
</glyph>
<glyph name="plusminus" format="2">
  <advance width="480"/>
  <unicode hex="00B1"/>
  <outline>
    <contour>
      <point x="207" y="168" type="line"/>
      <point x="237" y="168" type="line"/>
      <point x="274" y="347" type="line"/>
      <point x="450" y="347" type="line"/>
      <point x="456" y="375" type="line"/>
      <point x="279" y="375" type="line"/>
      <point x="317" y="554" type="line"/>
      <point x="288" y="554" type="line"/>
      <point x="250" y="375" type="line"/>
      <point x="74" y="375" type="line"/>
      <point x="68" y="347" type="line"/>
      <point x="244" y="347" type="line"/>
    </contour>
    <contour>
      <point x="-5" y="0" type="line"/>
      <point x="377" y="0" type="line"/>
      <point x="383" y="28" type="line"/>
      <point x="1" y="28" type="line"/>
    </contour>
  </outline>
</glyph>
<glyph name="paragraph" format="2">
  <advance width="495"/>
  <unicode hex="00B6"/>
  <outline>
    <contour>
      <point x="262" y="0" type="line"/>
      <point x="293" y="0" type="line"/>
      <point x="293" y="702" type="line"/>
      <point x="389" y="702" type="line"/>
      <point x="389" y="0" type="line"/>
      <point x="419" y="0" type="line"/>
      <point x="419" y="702" type="line"/>
      <point x="502" y="702" type="line"/>
      <point x="502" y="729" type="line"/>
      <point x="263" y="729" type="line" smooth="yes"/>
      <point x="162" y="729"/>
      <point x="94" y="673"/>
      <point x="94" y="581" type="curve" smooth="yes"/>
      <point x="94" y="494"/>
      <point x="155" y="438"/>
      <point x="262" y="441" type="curve"/>
    </contour>
  </outline>
</glyph>
<glyph name="periodcentered" format="2">
  <advance width="147"/>
  <unicode hex="00B7"/>
  <outline>
    <contour>
      <point x="78" y="241" type="curve" smooth="yes"/>
      <point x="100" y="241"/>
      <point x="115" y="256"/>
      <point x="115" y="277" type="curve" smooth="yes"/>
      <point x="115" y="298"/>
      <point x="100" y="313"/>
      <point x="78" y="313" type="curve" smooth="yes"/>
      <point x="55" y="313"/>
      <point x="40" y="298"/>
      <point x="40" y="277" type="curve" smooth="yes"/>
      <point x="40" y="256"/>
      <point x="55" y="241"/>
    </contour>
  </outline>
</glyph>
<glyph name="ordmasculine" format="2">
  <advance width="267"/>
  <unicode hex="00BA"/>
  <anchor x="169" y="392" name="bottom"/>
  <anchor x="196" y="561" name="center"/>
  <anchor x="258" y="399" name="ogonek"/>
  <anchor x="228" y="729" name="top"/>
  <anchor x="335" y="729" name="topright"/>
  <outline>
    <contour>
      <point x="167" y="386" type="curve" smooth="yes"/>
      <point x="230" y="386"/>
      <point x="260" y="451"/>
      <point x="283" y="562" type="curve" smooth="yes"/>
      <point x="307" y="674"/>
      <point x="293" y="735"/>
      <point x="226" y="735" type="curve" smooth="yes"/>
      <point x="170" y="735"/>
      <point x="135" y="683"/>
      <point x="111" y="567" type="curve" smooth="yes"/>
      <point x="90" y="468"/>
      <point x="89" y="386"/>
    </contour>
    <contour>
      <point x="170" y="412" type="curve" smooth="yes"/>
      <point x="115" y="412"/>
      <point x="124" y="486"/>
      <point x="140" y="566" type="curve" smooth="yes"/>
      <point x="163" y="678"/>
      <point x="192" y="710"/>
      <point x="224" y="710" type="curve" smooth="yes"/>
      <point x="276" y="710"/>
      <point x="270" y="635"/>
      <point x="254" y="560" type="curve" smooth="yes"/>
      <point x="229" y="439"/>
      <point x="200" y="412"/>
    </contour>
  </outline>
</glyph>
<glyph name="AE" format="2">
  <advance width="509"/>
  <unicode hex="00C6"/>
  <anchor x="202" y="0" name="bottom"/>
  <anchor x="353" y="729" name="top"/>
  <outline>
    <contour>
      <point x="-44" y="0" type="line"/>
      <point x="-10" y="0" type="line"/>
      <point x="78" y="205" type="line"/>
      <point x="292" y="205" type="line"/>
      <point x="294" y="0" type="line"/>
      <point x="445" y="0" type="line"/>
      <point x="451" y="28" type="line"/>
      <point x="326" y="28" type="line"/>
      <point x="321" y="361" type="line"/>
      <point x="490" y="361" type="line"/>
      <point x="495" y="389" type="line"/>
      <point x="320" y="389" type="line"/>
      <point x="315" y="701" type="line"/>
      <point x="591" y="701" type="line"/>
      <point x="596" y="729" type="line"/>
      <point x="271" y="729" type="line"/>
    </contour>
    <contour>
      <point x="89" y="231" type="line"/>
      <point x="222" y="540" type="line"/>
      <point x="285" y="702" type="line"/>
      <point x="291" y="702" type="line"/>
      <point x="289" y="538" type="line"/>
      <point x="292" y="231" type="line"/>
    </contour>
  </outline>
</glyph>
<glyph name="multiply" format="2">
  <advance width="480"/>
  <unicode hex="00D7"/>
  <outline>
    <contour>
      <point x="108" y="214" type="line"/>
      <point x="261" y="342" type="line"/>
      <point x="359" y="215" type="line"/>
      <point x="382" y="235" type="line"/>
      <point x="284" y="361" type="line"/>
      <point x="435" y="487" type="line"/>
      <point x="418" y="510" type="line"/>
      <point x="267" y="384" type="line"/>
      <point x="169" y="508" type="line"/>
      <point x="146" y="488" type="line"/>
      <point x="243" y="364" type="line"/>
      <point x="90" y="237" type="line"/>
    </contour>
  </outline>
</glyph>
<glyph name="germandbls" format="2">
  <advance width="385"/>
  <unicode hex="00DF"/>
  <outline>
    <contour>
      <point x="22" y="0" type="line"/>
      <point x="51" y="0" type="line"/>
      <point x="171" y="577" type="line" smooth="yes"/>
      <point x="191" y="671"/>
      <point x="229" y="708"/>
      <point x="284" y="708" type="curve" smooth="yes"/>
      <point x="341" y="708"/>
      <point x="376" y="672"/>
      <point x="366" y="578" type="curve" smooth="yes"/>
      <point x="353" y="475"/>
      <point x="300" y="408"/>
      <point x="226" y="408" type="curve" smooth="yes"/>
      <point x="197" y="408" type="line"/>
      <point x="190" y="379" type="line"/>
      <point x="212" y="379" type="line" smooth="yes"/>
      <point x="297" y="379"/>
      <point x="341" y="319"/>
      <point x="316" y="198" type="curve" smooth="yes"/>
      <point x="290" y="76"/>
      <point x="226" y="26"/>
      <point x="134" y="26" type="curve" smooth="yes"/>
      <point x="118" y="26" type="line"/>
      <point x="112" y="0" type="line"/>
      <point x="131" y="0" type="line" smooth="yes"/>
      <point x="249" y="0"/>
      <point x="323" y="76"/>
      <point x="344" y="196" type="curve" smooth="yes"/>
      <point x="360" y="288"/>
      <point x="344" y="373"/>
      <point x="269" y="392" type="curve"/>
      <point x="269" y="395" type="line"/>
      <point x="342" y="409"/>
      <point x="385" y="497"/>
      <point x="394" y="579" type="curve" smooth="yes"/>
      <point x="406" y="673"/>
      <point x="367" y="736"/>
      <point x="285" y="736" type="curve" smooth="yes"/>
      <point x="220" y="736"/>
      <point x="166" y="691"/>
      <point x="144" y="588" type="curve"/>
    </contour>
    <contour>
      <point x="44" y="489" type="line"/>
      <point x="131" y="489" type="line"/>
      <point x="136" y="516" type="line"/>
      <point x="50" y="516" type="line"/>
    </contour>
  </outline>
</glyph>
<glyph name="ae" format="2">
  <advance width="504"/>
  <unicode hex="00E6"/>
  <outline>
    <contour>
      <point x="86" y="-10" type="curve" smooth="yes"/>
      <point x="136" y="-10"/>
      <point x="179" y="18"/>
      <point x="208" y="90" type="curve"/>
      <point x="210" y="90" type="line"/>
      <point x="215" y="30"/>
      <point x="247" y="-10"/>
      <point x="302" y="-10" type="curve" smooth="yes"/>
      <point x="355" y="-10"/>
      <point x="409" y="25"/>
      <point x="441" y="148" type="curve"/>
      <point x="411" y="148" type="line"/>
      <point x="390" y="70"/>
      <point x="359" y="18"/>
      <point x="306" y="18" type="curve" smooth="yes"/>
      <point x="221" y="18"/>
      <point x="226" y="129"/>
      <point x="250" y="241" type="curve" smooth="yes"/>
      <point x="262" y="298" type="line" smooth="yes"/>
      <point x="293" y="447"/>
      <point x="340" y="497"/>
      <point x="391" y="497" type="curve" smooth="yes"/>
      <point x="466" y="497"/>
      <point x="456" y="393"/>
      <point x="437" y="280" type="curve"/>
      <point x="252" y="280" type="line"/>
      <point x="247" y="252" type="line"/>
      <point x="461" y="252" type="line"/>
      <point x="491" y="401"/>
      <point x="497" y="525"/>
      <point x="395" y="525" type="curve" smooth="yes"/>
      <point x="346" y="525"/>
      <point x="310" y="496"/>
      <point x="283" y="445" type="curve"/>
      <point x="281" y="445" type="line"/>
      <point x="273" y="498"/>
      <point x="245" y="526"/>
      <point x="197" y="526" type="curve" smooth="yes"/>
      <point x="125" y="526"/>
      <point x="88" y="467"/>
      <point x="68" y="377" type="curve"/>
      <point x="98" y="377" type="line"/>
      <point x="118" y="471"/>
      <point x="150" y="499"/>
      <point x="194" y="499" type="curve" smooth="yes"/>
      <point x="242" y="499"/>
      <point x="266" y="459"/>
      <point x="245" y="355" type="curve" smooth="yes"/>
      <point x="200" y="136" type="line" smooth="yes"/>
      <point x="184" y="58"/>
      <point x="140" y="15"/>
      <point x="92" y="15" type="curve" smooth="yes"/>
      <point x="57" y="15"/>
      <point x="33" y="40"/>
      <point x="33" y="95" type="curve" smooth="yes"/>
      <point x="33" y="190"/>
      <point x="86" y="252"/>
      <point x="179" y="252" type="curve" smooth="yes"/>
      <point x="231" y="252" type="line"/>
      <point x="236" y="280" type="line"/>
      <point x="184" y="280" type="line" smooth="yes"/>
      <point x="70" y="280"/>
      <point x="3" y="205"/>
      <point x="3" y="93" type="curve" smooth="yes"/>
      <point x="3" y="31"/>
      <point x="36" y="-10"/>
    </contour>
  </outline>
</glyph>
<glyph name="eth" format="2">
  <advance width="347"/>
  <unicode hex="00F0"/>
  <outline>
    <contour>
      <point x="120" y="-10" type="curve" smooth="yes"/>
      <point x="195" y="-10"/>
      <point x="248" y="69"/>
      <point x="290" y="240" type="curve" smooth="yes"/>
      <point x="328" y="399"/>
      <point x="318" y="563"/>
      <point x="249" y="729" type="curve"/>
      <point x="221" y="729" type="line"/>
      <point x="259" y="644"/>
      <point x="283" y="541"/>
      <point x="289" y="440" type="curve"/>
      <point x="287" y="439" type="line"/>
      <point x="275" y="486"/>
      <point x="248" y="507"/>
      <point x="210" y="507" type="curve" smooth="yes"/>
      <point x="140" y="507"/>
      <point x="86" y="430"/>
      <point x="47" y="269" type="curve" smooth="yes"/>
      <point x="18" y="155"/>
      <point x="-5" y="-10"/>
    </contour>
    <contour>
      <point x="122" y="17" type="curve" smooth="yes"/>
      <point x="23" y="17"/>
      <point x="49" y="166"/>
      <point x="74" y="262" type="curve" smooth="yes"/>
      <point x="110" y="412"/>
      <point x="154" y="480"/>
      <point x="210" y="480" type="curve" smooth="yes"/>
      <point x="311" y="480"/>
      <point x="282" y="327"/>
      <point x="257" y="228" type="curve" smooth="yes"/>
      <point x="222" y="83"/>
      <point x="179" y="17"/>
    </contour>
    <contour>
      <point x="136" y="594" type="line"/>
      <point x="375" y="613" type="line"/>
      <point x="381" y="637" type="line"/>
      <point x="142" y="617" type="line"/>
    </contour>
  </outline>
</glyph>
<glyph name="divide" format="2">
  <advance width="480"/>
  <unicode hex="00F7"/>
  <outline>
    <contour>
      <point x="67" y="347" type="line"/>
      <point x="449" y="347" type="line"/>
      <point x="455" y="375" type="line"/>
      <point x="73" y="375" type="line"/>
    </contour>
    <contour>
      <point x="207" y="196" type="line"/>
      <point x="244" y="196" type="line"/>
      <point x="256" y="250" type="line"/>
      <point x="219" y="250" type="line"/>
    </contour>
    <contour>
      <point x="265" y="472" type="line"/>
      <point x="303" y="472" type="line"/>
      <point x="314" y="526" type="line"/>
      <point x="277" y="526" type="line"/>
    </contour>
  </outline>
</glyph>
<glyph name="thorn" format="2">
  <advance width="341"/>
  <unicode hex="00FE"/>
  <anchor x="115" y="0" name="bottom"/>
  <anchor x="266" y="729" name="top"/>
  <outline>
    <contour>
      <point x="-28" y="-167" type="line"/>
      <point x="1" y="-167" type="line"/>
      <point x="53" y="84" type="line"/>
      <point x="54" y="84" type="line"/>
      <point x="58" y="25"/>
      <point x="82" y="-8"/>
      <point x="136" y="-8" type="curve" smooth="yes"/>
      <point x="201" y="-8"/>
      <point x="256" y="58"/>
      <point x="296" y="253" type="curve" smooth="yes"/>
      <point x="326" y="392"/>
      <point x="333" y="526"/>
      <point x="232" y="526" type="curve" smooth="yes"/>
      <point x="190" y="526"/>
      <point x="157" y="499"/>
      <point x="130" y="445" type="curve"/>
      <point x="128" y="445" type="line"/>
      <point x="187" y="729" type="line"/>
      <point x="158" y="729" type="line"/>
    </contour>
    <contour>
      <point x="132" y="19" type="curve" smooth="yes"/>
      <point x="67" y="19"/>
      <point x="56" y="99"/>
      <point x="80" y="214" type="curve" smooth="yes"/>
      <point x="102" y="319" type="line" smooth="yes"/>
      <point x="128" y="443"/>
      <point x="171" y="501"/>
      <point x="222" y="501" type="curve" smooth="yes"/>
      <point x="307" y="501"/>
      <point x="295" y="389"/>
      <point x="266" y="252" type="curve" smooth="yes"/>
      <point x="233" y="92"/>
      <point x="197" y="19"/>
    </contour>
  </outline>
</glyph>
<glyph name="idotless" format="2">
  <advance width="151"/>
  <unicode hex="0131"/>
  <anchor x="22" y="0" name="bottom"/>
  <anchor x="36" y="0" name="ogonek"/>
  <anchor x="128" y="516" name="top"/>
  <outline>
    <contour>
      <point x="7" y="0" type="line"/>
      <point x="36" y="0" type="line"/>
      <point x="144" y="516" type="line"/>
      <point x="115" y="516" type="line"/>
    </contour>
  </outline>
</glyph>
<glyph name="Eng" format="2">
  <advance width="445"/>
  <unicode hex="014A"/>
  <outline>
    <contour>
      <point x="12" y="0" type="line"/>
      <point x="43" y="0" type="line"/>
      <point x="128" y="410" type="line"/>
      <point x="182" y="685" type="line"/>
      <point x="188" y="685" type="line"/>
      <point x="277" y="0" type="line"/>
      <point x="326" y="0" type="line"/>
      <point x="477" y="729" type="line"/>
      <point x="446" y="729" type="line"/>
      <point x="363" y="328" type="line"/>
      <point x="306" y="39" type="line"/>
      <point x="301" y="39" type="line"/>
      <point x="212" y="729" type="line"/>
      <point x="163" y="729" type="line"/>
    </contour>
    <contour>
      <point x="206" y="-167" type="line"/>
      <point x="228" y="-167" type="line" smooth="yes"/>
      <point x="277" y="-167"/>
      <point x="298" y="-138"/>
      <point x="307" y="-94" type="curve" smooth="yes"/>
      <point x="326" y="0" type="line"/>
      <point x="297" y="0" type="line"/>
      <point x="279" y="-89" type="line" smooth="yes"/>
      <point x="271" y="-128"/>
      <point x="257" y="-140"/>
      <point x="228" y="-140" type="curve" smooth="yes"/>
      <point x="211" y="-140" type="line"/>
    </contour>
  </outline>
</glyph>
<glyph name="eng" format="2">
  <advance width="352"/>
  <unicode hex="014B"/>
  <outline>
    <contour>
      <point x="122" y="-167" type="line"/>
      <point x="138" y="-167" type="line" smooth="yes"/>
      <point x="185" y="-167"/>
      <point x="211" y="-150"/>
      <point x="222" y="-97" type="curve" smooth="yes"/>
      <point x="319" y="371" type="line" smooth="yes"/>
      <point x="337" y="458"/>
      <point x="327" y="526"/>
      <point x="244" y="526" type="curve" smooth="yes"/>
      <point x="195" y="526"/>
      <point x="153" y="495"/>
      <point x="131" y="446" type="curve"/>
      <point x="130" y="446" type="line"/>
      <point x="140" y="516" type="line"/>
      <point x="113" y="516" type="line"/>
      <point x="7" y="0" type="line"/>
      <point x="36" y="0" type="line"/>
      <point x="100" y="315" type="line" smooth="yes"/>
      <point x="122" y="425"/>
      <point x="165" y="501"/>
      <point x="231" y="501" type="curve" smooth="yes"/>
      <point x="296" y="501"/>
      <point x="307" y="455"/>
      <point x="289" y="366" type="curve" smooth="yes"/>
      <point x="195" y="-89" type="line" smooth="yes"/>
      <point x="188" y="-122"/>
      <point x="176" y="-140"/>
      <point x="142" y="-140" type="curve" smooth="yes"/>
      <point x="128" y="-140" type="line"/>
    </contour>
  </outline>
</glyph>
<glyph name="OE" format="2">
  <advance width="530"/>
  <unicode hex="0152"/>
  <anchor x="212" y="0" name="bottom"/>
  <anchor x="363" y="729" name="top"/>
  <outline>
    <contour>
      <point x="183" y="-9" type="curve" smooth="yes"/>
      <point x="205" y="-9"/>
      <point x="226" y="-6"/>
      <point x="246" y="0" type="curve"/>
      <point x="466" y="0" type="line"/>
      <point x="472" y="28" type="line"/>
      <point x="268" y="28" type="line"/>
      <point x="338" y="361" type="line"/>
      <point x="511" y="361" type="line"/>
      <point x="516" y="389" type="line"/>
      <point x="343" y="389" type="line"/>
      <point x="408" y="701" type="line"/>
      <point x="612" y="701" type="line"/>
      <point x="617" y="729" type="line"/>
      <point x="381" y="729" type="line"/>
      <point x="362" y="735"/>
      <point x="338" y="739"/>
      <point x="315" y="739" type="curve" smooth="yes"/>
      <point x="200" y="739"/>
      <point x="126" y="665"/>
      <point x="71" y="382" type="curve" smooth="yes"/>
      <point x="17" y="114"/>
      <point x="52" y="-9"/>
    </contour>
    <contour>
      <point x="186" y="20" type="curve" smooth="yes"/>
      <point x="79" y="20"/>
      <point x="56" y="128"/>
      <point x="104" y="380" type="curve" smooth="yes"/>
      <point x="142" y="576"/>
      <point x="189" y="710"/>
      <point x="316" y="710" type="curve" smooth="yes"/>
      <point x="334" y="710"/>
      <point x="357" y="707"/>
      <point x="377" y="698" type="curve"/>
      <point x="237" y="27" type="line"/>
      <point x="222" y="22"/>
      <point x="204" y="20"/>
    </contour>
  </outline>
</glyph>
<glyph name="oe" format="2">
  <advance width="543"/>
  <unicode hex="0153"/>
  <anchor x="232" y="0" name="bottom"/>
  <anchor x="328" y="516" name="top"/>
  <outline>
    <contour>
      <point x="122" y="-9" type="curve" smooth="yes"/>
      <point x="180" y="-9"/>
      <point x="219" y="31"/>
      <point x="247" y="101" type="curve"/>
      <point x="246" y="101" type="line"/>
      <point x="250" y="32"/>
      <point x="276" y="-10"/>
      <point x="341" y="-10" type="curve" smooth="yes"/>
      <point x="394" y="-10"/>
      <point x="448" y="25"/>
      <point x="480" y="148" type="curve"/>
      <point x="450" y="148" type="line"/>
      <point x="429" y="70"/>
      <point x="398" y="18"/>
      <point x="345" y="18" type="curve" smooth="yes"/>
      <point x="260" y="18"/>
      <point x="265" y="129"/>
      <point x="295" y="270" type="curve" smooth="yes"/>
      <point x="298" y="284" type="line" smooth="yes"/>
      <point x="327" y="417"/>
      <point x="364" y="497"/>
      <point x="430" y="497" type="curve" smooth="yes"/>
      <point x="503" y="497"/>
      <point x="495" y="397"/>
      <point x="477" y="286" type="curve"/>
      <point x="479" y="288" type="line"/>
      <point x="291" y="288" type="line"/>
      <point x="286" y="260" type="line"/>
      <point x="502" y="260" type="line"/>
      <point x="530" y="405"/>
      <point x="534" y="525"/>
      <point x="434" y="525" type="curve" smooth="yes"/>
      <point x="377" y="525"/>
      <point x="337" y="485"/>
      <point x="308" y="417" type="curve"/>
      <point x="309" y="417" type="line"/>
      <point x="305" y="481"/>
      <point x="281" y="525"/>
      <point x="214" y="525" type="curve" smooth="yes"/>
      <point x="132" y="525"/>
      <point x="83" y="444"/>
      <point x="46" y="267" type="curve" smooth="yes"/>
      <point x="15" y="120"/>
      <point x="6" y="-9"/>
    </contour>
    <contour>
      <point x="125" y="18" type="curve" smooth="yes"/>
      <point x="35" y="18"/>
      <point x="49" y="140"/>
      <point x="75" y="267" type="curve" smooth="yes"/>
      <point x="112" y="446"/>
      <point x="160" y="498"/>
      <point x="212" y="498" type="curve" smooth="yes"/>
      <point x="297" y="498"/>
      <point x="288" y="376"/>
      <point x="263" y="257" type="curve" smooth="yes"/>
      <point x="222" y="61"/>
      <point x="176" y="18"/>
    </contour>
  </outline>
</glyph>
<glyph name="florin" format="2">
  <advance width="203"/>
  <unicode hex="0192"/>
  <outline>
    <contour>
      <point x="-58" y="-167" type="line"/>
      <point x="-41" y="-167" type="line" smooth="yes"/>
      <point x="0" y="-167"/>
      <point x="32" y="-150"/>
      <point x="44" y="-92" type="curve" smooth="yes"/>
      <point x="197" y="648" type="line" smooth="yes"/>
      <point x="204" y="684"/>
      <point x="216" y="700"/>
      <point x="248" y="700" type="curve" smooth="yes"/>
      <point x="265" y="700" type="line"/>
      <point x="271" y="729" type="line"/>
      <point x="254" y="729" type="line" smooth="yes"/>
      <point x="213" y="729"/>
      <point x="181" y="712"/>
      <point x="169" y="654" type="curve" smooth="yes"/>
      <point x="16" y="-86" type="line" smooth="yes"/>
      <point x="9" y="-122"/>
      <point x="-3" y="-138"/>
      <point x="-35" y="-138" type="curve" smooth="yes"/>
      <point x="-52" y="-138" type="line"/>
    </contour>
    <contour>
      <point x="69" y="431" type="line"/>
      <point x="207" y="431" type="line"/>
      <point x="213" y="459" type="line"/>
      <point x="75" y="459" type="line"/>
    </contour>
  </outline>
</glyph>
<glyph name="jdotless" format="2">
  <advance width="150"/>
  <unicode hex="0237"/>
  <anchor x="-8" y="-200" name="bottom"/>
  <anchor x="129" y="516" name="top"/>
  <outline>
    <contour>
      <point x="-85" y="-167" type="line"/>
      <point x="-69" y="-167" type="line" smooth="yes"/>
      <point x="-22" y="-167"/>
      <point x="4" y="-150"/>
      <point x="15" y="-97" type="curve" smooth="yes"/>
      <point x="143" y="516" type="line"/>
      <point x="114" y="516" type="line"/>
      <point x="-12" y="-89" type="line" smooth="yes"/>
      <point x="-18" y="-122"/>
      <point x="-31" y="-140"/>
      <point x="-65" y="-140" type="curve" smooth="yes"/>
      <point x="-79" y="-140" type="line"/>
    </contour>
  </outline>
</glyph>
<glyph name="tildecomb" format="2">
  <unicode hex="0303"/>
  <anchor x="225" y="672" name="_top"/>
  <outline>
    <contour>
      <point x="291" y="777" type="curve" smooth="yes"/>
      <point x="312" y="777"/>
      <point x="336" y="787"/>
      <point x="357" y="825" type="curve"/>
      <point x="342" y="836" type="line"/>
      <point x="328" y="817"/>
      <point x="313" y="807"/>
      <point x="294" y="807" type="curve" smooth="yes"/>
      <point x="266" y="807"/>
      <point x="243" y="835"/>
      <point x="213" y="835" type="curve" smooth="yes"/>
      <point x="190" y="835"/>
      <point x="169" y="820"/>
      <point x="149" y="786" type="curve"/>
      <point x="164" y="775" type="line"/>
      <point x="181" y="797"/>
      <point x="197" y="804"/>
      <point x="210" y="804" type="curve" smooth="yes"/>
      <point x="238" y="804"/>
      <point x="257" y="777"/>
    </contour>
  </outline>
</glyph>
<glyph name="macroncomb" format="2">
  <unicode hex="0304"/>
  <anchor x="223" y="671" name="_top"/>
  <outline>
    <contour>
      <point x="148" y="780" type="line"/>
      <point x="341" y="780" type="line"/>
      <point x="347" y="807" type="line"/>
      <point x="154" y="807" type="line"/>
    </contour>
  </outline>
</glyph>
<glyph name="brevecomb" format="2">
  <unicode hex="0306"/>
  <anchor x="214" y="672" name="_top"/>
  <outline>
    <contour>
      <point x="233" y="741" type="curve" smooth="yes"/>
      <point x="289" y="739"/>
      <point x="323" y="783"/>
      <point x="337" y="882" type="curve"/>
      <point x="308" y="882" type="line"/>
      <point x="296" y="800"/>
      <point x="272" y="766"/>
      <point x="235" y="768" type="curve" smooth="yes"/>
      <point x="198" y="770"/>
      <point x="186" y="810"/>
      <point x="197" y="882" type="curve"/>
      <point x="169" y="882" type="line"/>
      <point x="158" y="800"/>
      <point x="173" y="743"/>
    </contour>
  </outline>
</glyph>
<glyph name="dotaccentcomb" format="2">
  <unicode hex="0307"/>
  <anchor x="154" y="672" name="_top"/>
  <outline>
    <contour>
      <point x="175" y="772" type="curve" smooth="yes"/>
      <point x="188" y="772"/>
      <point x="198" y="781"/>
      <point x="198" y="795" type="curve" smooth="yes"/>
      <point x="198" y="809"/>
      <point x="188" y="818"/>
      <point x="175" y="818" type="curve" smooth="yes"/>
      <point x="162" y="818"/>
      <point x="152" y="809"/>
      <point x="152" y="795" type="curve" smooth="yes"/>
      <point x="152" y="781"/>
      <point x="162" y="772"/>
    </contour>
  </outline>
</glyph>
<glyph name="dieresiscomb" format="2">
  <unicode hex="0308"/>
  <anchor x="209" y="672" name="_top"/>
  <outline>
    <contour>
      <point x="285" y="772" type="curve" smooth="yes"/>
      <point x="299" y="772"/>
      <point x="309" y="782"/>
      <point x="309" y="796" type="curve" smooth="yes"/>
      <point x="309" y="810"/>
      <point x="299" y="818"/>
      <point x="287" y="818" type="curve" smooth="yes"/>
      <point x="273" y="818"/>
      <point x="263" y="808"/>
      <point x="263" y="794" type="curve" smooth="yes"/>
      <point x="263" y="780"/>
      <point x="273" y="772"/>
    </contour>
    <contour>
      <point x="175" y="772" type="curve" smooth="yes"/>
      <point x="188" y="772"/>
      <point x="198" y="781"/>
      <point x="198" y="795" type="curve" smooth="yes"/>
      <point x="198" y="809"/>
      <point x="188" y="818"/>
      <point x="175" y="818" type="curve" smooth="yes"/>
      <point x="162" y="818"/>
      <point x="152" y="809"/>
      <point x="152" y="795" type="curve" smooth="yes"/>
      <point x="152" y="781"/>
      <point x="162" y="772"/>
    </contour>
  </outline>
</glyph>
<glyph name="hookabovecomb" format="2">
  <unicode hex="0309"/>
  <anchor x="189" y="673" name="_top"/>
  <outline>
    <contour>
      <point x="185" y="731" type="line"/>
      <point x="247" y="756"/>
      <point x="299" y="793"/>
      <point x="299" y="846" type="curve" smooth="yes"/>
      <point x="299" y="891"/>
      <point x="262" y="914"/>
      <point x="210" y="914" type="curve" smooth="yes"/>
      <point x="199" y="914"/>
      <point x="187" y="913"/>
      <point x="175" y="910" type="curve"/>
      <point x="170" y="881" type="line"/>
      <point x="181" y="884"/>
      <point x="194" y="885"/>
      <point x="205" y="885" type="curve" smooth="yes"/>
      <point x="241" y="885"/>
      <point x="264" y="874"/>
      <point x="264" y="844" type="curve" smooth="yes"/>
      <point x="264" y="801"/>
      <point x="220" y="777"/>
      <point x="171" y="757" type="curve"/>
    </contour>
  </outline>
</glyph>
<glyph name="ringcomb" format="2">
  <unicode hex="030A"/>
  <anchor x="188" y="672" name="_top"/>
  <outline>
    <contour>
      <point x="207" y="741" type="curve" smooth="yes"/>
      <point x="242" y="741"/>
      <point x="270" y="770"/>
      <point x="282" y="825" type="curve" smooth="yes"/>
      <point x="292" y="872"/>
      <point x="282" y="919"/>
      <point x="234" y="919" type="curve" smooth="yes"/>
      <point x="199" y="919"/>
      <point x="171" y="889"/>
      <point x="159" y="835" type="curve" smooth="yes"/>
      <point x="149" y="789"/>
      <point x="161" y="741"/>
    </contour>
    <contour>
      <point x="210" y="766" type="curve" smooth="yes"/>
      <point x="180" y="766"/>
      <point x="179" y="800"/>
      <point x="186" y="833" type="curve" smooth="yes"/>
      <point x="192" y="869"/>
      <point x="209" y="894"/>
      <point x="231" y="894" type="curve" smooth="yes"/>
      <point x="262" y="894"/>
      <point x="263" y="860"/>
      <point x="256" y="826" type="curve" smooth="yes"/>
      <point x="247" y="789"/>
      <point x="232" y="766"/>
    </contour>
  </outline>
</glyph>
<glyph name="hungarumlautcomb" format="2">
  <unicode hex="030B"/>
  <anchor x="183" y="672" name="_top"/>
  <outline>
    <contour>
      <point x="141" y="746" type="line"/>
      <point x="170" y="746" type="line"/>
      <point x="267" y="882" type="line"/>
      <point x="233" y="882" type="line"/>
    </contour>
    <contour>
      <point x="227" y="746" type="line"/>
      <point x="257" y="746" type="line"/>
      <point x="365" y="882" type="line"/>
      <point x="328" y="882" type="line"/>
    </contour>
  </outline>
</glyph>
<glyph name="caroncomb" format="2">
  <unicode hex="030C"/>
  <anchor x="214" y="672" name="_top"/>
  <outline>
    <contour>
      <point x="210" y="746" type="line"/>
      <point x="249" y="746" type="line"/>
      <point x="346" y="882" type="line"/>
      <point x="315" y="882" type="line"/>
      <point x="232" y="767" type="line"/>
      <point x="196" y="882" type="line"/>
      <point x="169" y="882" type="line"/>
    </contour>
  </outline>
</glyph>
<glyph name="commaturnedabovecomb" format="2">
  <unicode hex="0312"/>
  <anchor x="142" y="672" name="_top"/>
  <outline>
    <contour>
      <point x="141" y="746" type="line"/>
      <point x="171" y="746" type="line"/>
      <point x="178" y="780" type="line" smooth="yes"/>
      <point x="187" y="825"/>
      <point x="217" y="857"/>
      <point x="255" y="882" type="curve"/>
      <point x="244" y="900" type="line"/>
      <point x="202" y="875"/>
      <point x="160" y="836"/>
      <point x="148" y="780" type="curve" smooth="yes"/>
    </contour>
  </outline>
</glyph>
<glyph name="horncomb" format="2">
  <unicode hex="031B"/>
  <anchor x="93" y="516" name="_topright"/>
  <outline>
    <contour>
      <point x="88" y="492" type="line"/>
      <point x="161" y="492"/>
      <point x="202" y="537"/>
      <point x="211" y="636" type="curve"/>
      <point x="184" y="636" type="line"/>
      <point x="177" y="554"/>
      <point x="147" y="516"/>
      <point x="93" y="516" type="curve"/>
    </contour>
  </outline>
</glyph>
<glyph name="dotbelowcomb" format="2">
  <unicode hex="0323"/>
  <anchor x="10" y="0" name="_bottom"/>
  <outline>
    <contour>
      <point x="-9" y="-115" type="curve" smooth="yes"/>
      <point x="4" y="-115"/>
      <point x="14" y="-106"/>
      <point x="14" y="-92" type="curve" smooth="yes"/>
      <point x="14" y="-78"/>
      <point x="4" y="-69"/>
      <point x="-9" y="-69" type="curve" smooth="yes"/>
      <point x="-22" y="-69"/>
      <point x="-32" y="-78"/>
      <point x="-32" y="-92" type="curve" smooth="yes"/>
      <point x="-32" y="-106"/>
      <point x="-22" y="-115"/>
    </contour>
  </outline>
</glyph>
<glyph name="commaaccentcomb" format="2">
  <unicode hex="0326"/>
  <anchor x="43" y="0" name="_bottom"/>
  <outline>
    <contour>
      <point x="-54" y="-195" type="line"/>
      <point x="-28" y="-195" type="line"/>
      <point x="45" y="-59" type="line"/>
      <point x="16" y="-59" type="line"/>
    </contour>
  </outline>
</glyph>
<glyph name="ogonekcomb" format="2">
  <unicode hex="0328"/>
  <anchor x="78" y="0" name="_ogonek"/>
  <outline>
    <contour>
      <point x="17" y="-187" type="curve" smooth="yes"/>
      <point x="32" y="-187"/>
      <point x="47" y="-184"/>
      <point x="56" y="-180" type="curve"/>
      <point x="60" y="-156" type="line"/>
      <point x="50" y="-160"/>
      <point x="35" y="-162"/>
      <point x="25" y="-162" type="curve" smooth="yes"/>
      <point x="1" y="-162"/>
      <point x="-12" y="-149"/>
      <point x="-12" y="-124" type="curve" smooth="yes"/>
      <point x="-12" y="-92"/>
      <point x="19" y="-49"/>
      <point x="78" y="0" type="curve"/>
      <point x="74" y="8" type="line"/>
      <point x="56" y="8" type="line"/>
      <point x="-13" y="-47"/>
      <point x="-39" y="-94"/>
      <point x="-39" y="-129" type="curve" smooth="yes"/>
      <point x="-39" y="-164"/>
      <point x="-17" y="-187"/>
    </contour>
  </outline>
</glyph>
<glyph name="strokeshortcomb" format="2">
  <unicode hex="0335"/>
  <anchor x="144" y="306" name="_center"/>
  <outline>
    <contour>
      <point x="47" y="293" type="line"/>
      <point x="235" y="293" type="line"/>
      <point x="241" y="320" type="line"/>
      <point x="53" y="320" type="line"/>
    </contour>
  </outline>
</glyph>
<glyph name="strokelongcomb" format="2">
  <unicode hex="0336"/>
  <anchor x="272" y="369" name="_center"/>
  <outline>
    <contour>
      <point x="60" y="355" type="line"/>
      <point x="478" y="355" type="line"/>
      <point x="484" y="383" type="line"/>
      <point x="66" y="383" type="line"/>
    </contour>
  </outline>
</glyph>
<glyph name="slashshortcomb" format="2">
  <unicode hex="0337"/>
  <anchor x="122" y="354" name="_center"/>
  <outline>
    <contour>
      <point x="50" y="303" type="line"/>
      <point x="188" y="373" type="line"/>
      <point x="194" y="404" type="line"/>
      <point x="56" y="334" type="line"/>
    </contour>
  </outline>
</glyph>
<glyph name="slashlongcomb" format="2">
  <unicode hex="0338"/>
  <anchor x="175" y="258" name="_center"/>
  <outline>
    <contour>
      <point x="-26" y="-60" type="line"/>
      <point x="5" y="-60" type="line"/>
      <point x="376" y="576" type="line"/>
      <point x="345" y="576" type="line"/>
    </contour>
  </outline>
</glyph>
<glyph name="mu" format="2">
  <advance width="372"/>
  <unicode hex="03BC"/>
  <outline>
    <contour>
      <point x="-1" y="-132" type="line"/>
      <point x="28" y="-132" type="line"/>
      <point x="58" y="39" type="line"/>
      <point x="55" y="38" type="line"/>
      <point x="64" y="6"/>
      <point x="86" y="-10"/>
      <point x="120" y="-10" type="curve" smooth="yes"/>
      <point x="173" y="-10"/>
      <point x="216" y="21"/>
      <point x="242" y="77" type="curve"/>
      <point x="244" y="77" type="line"/>
      <point x="231" y="0" type="line"/>
      <point x="259" y="0" type="line"/>
      <point x="350" y="516" type="line"/>
      <point x="321" y="516" type="line"/>
      <point x="267" y="209" type="line" smooth="yes"/>
      <point x="247" y="95"/>
      <point x="206" y="16"/>
      <point x="132" y="16" type="curve" smooth="yes"/>
      <point x="82" y="16"/>
      <point x="59" y="41"/>
      <point x="77" y="145" type="curve" smooth="yes"/>
      <point x="142" y="516" type="line"/>
      <point x="113" y="516" type="line"/>
    </contour>
  </outline>
</glyph>
<glyph name="pi" format="2">
  <advance width="340"/>
  <unicode hex="03C0"/>
  <outline>
    <contour>
      <point x="234" y="-5" type="curve" smooth="yes"/>
      <point x="243" y="-5"/>
      <point x="258" y="-4"/>
      <point x="270" y="0" type="curve"/>
      <point x="276" y="29" type="line"/>
      <point x="265" y="25"/>
      <point x="255" y="24"/>
      <point x="244" y="24" type="curve" smooth="yes"/>
      <point x="226" y="24"/>
      <point x="220" y="31"/>
      <point x="227" y="61" type="curve" smooth="yes"/>
      <point x="317" y="489" type="line"/>
      <point x="372" y="489" type="line"/>
      <point x="378" y="516" type="line"/>
      <point x="55" y="516" type="line"/>
      <point x="49" y="489" type="line"/>
      <point x="117" y="489" type="line"/>
      <point x="14" y="0" type="line"/>
      <point x="44" y="0" type="line"/>
      <point x="146" y="489" type="line"/>
      <point x="287" y="489" type="line"/>
      <point x="195" y="52" type="line" smooth="yes"/>
      <point x="188" y="16"/>
      <point x="197" y="-5"/>
    </contour>
  </outline>
</glyph>
<glyph name="Germandbls" format="2">
  <advance width="412"/>
  <unicode hex="1E9E"/>
  <outline>
    <contour>
      <point x="12" y="0" type="line"/>
      <point x="43" y="0" type="line"/>
      <point x="190" y="701" type="line"/>
      <point x="418" y="701" type="line"/>
      <point x="225" y="426" type="line"/>
      <point x="220" y="400" type="line"/>
      <point x="244" y="400" type="line" smooth="yes"/>
      <point x="328" y="400"/>
      <point x="371" y="339"/>
      <point x="346" y="210" type="curve" smooth="yes"/>
      <point x="322" y="94"/>
      <point x="270" y="29"/>
      <point x="150" y="29" type="curve" smooth="yes"/>
      <point x="116" y="29" type="line"/>
      <point x="110" y="0" type="line"/>
      <point x="146" y="0" type="line" smooth="yes"/>
      <point x="263" y="0"/>
      <point x="351" y="59"/>
      <point x="378" y="209" type="curve" smooth="yes"/>
      <point x="401" y="346"/>
      <point x="354" y="426"/>
      <point x="248" y="426" type="curve" smooth="yes"/>
      <point x="241" y="426" type="line"/>
      <point x="256" y="413" type="line"/>
      <point x="260" y="429" type="line"/>
      <point x="447" y="697" type="line"/>
      <point x="454" y="729" type="line"/>
      <point x="165" y="729" type="line"/>
    </contour>
  </outline>
</glyph>
<glyph name="endash" format="2">
  <advance width="371"/>
  <unicode hex="2013"/>
  <outline>
    <contour>
      <point x="40" y="246" type="line"/>
      <point x="327" y="246" type="line"/>
      <point x="332" y="271" type="line"/>
      <point x="45" y="271" type="line"/>
    </contour>
  </outline>
</glyph>
<glyph name="emdash" format="2">
  <advance width="520"/>
  <unicode hex="2014"/>
  <outline>
    <contour>
      <point x="40" y="246" type="line"/>
      <point x="476" y="246" type="line"/>
      <point x="481" y="271" type="line"/>
      <point x="45" y="271" type="line"/>
    </contour>
  </outline>
</glyph>
<glyph name="bullet" format="2">
  <advance width="261"/>
  <unicode hex="2022"/>
  <outline>
    <contour>
      <point x="131" y="171" type="curve" smooth="yes"/>
      <point x="197" y="171"/>
      <point x="242" y="218"/>
      <point x="242" y="281" type="curve" smooth="yes"/>
      <point x="242" y="341"/>
      <point x="202" y="384"/>
      <point x="139" y="384" type="curve" smooth="yes"/>
      <point x="75" y="384"/>
      <point x="27" y="337"/>
      <point x="27" y="273" type="curve" smooth="yes"/>
      <point x="27" y="214"/>
      <point x="70" y="171"/>
    </contour>
  </outline>
</glyph>
<glyph name="perthousand" format="2">
  <advance width="837"/>
  <unicode hex="2030"/>
  <outline>
    <contour>
      <point x="92" y="0" type="line"/>
      <point x="126" y="0" type="line"/>
      <point x="558" y="729" type="line"/>
      <point x="522" y="729" type="line"/>
    </contour>
    <contour>
      <point x="176" y="321" type="curve" smooth="yes"/>
      <point x="235" y="321"/>
      <point x="276" y="389"/>
      <point x="303" y="513" type="curve" smooth="yes"/>
      <point x="327" y="630"/>
      <point x="326" y="725"/>
      <point x="246" y="725" type="curve" smooth="yes"/>
      <point x="187" y="725"/>
      <point x="145" y="660"/>
      <point x="119" y="535" type="curve" smooth="yes"/>
      <point x="88" y="389"/>
      <point x="107" y="321"/>
    </contour>
    <contour>
      <point x="171" y="349" type="curve" smooth="yes"/>
      <point x="120" y="353"/>
      <point x="135" y="451"/>
      <point x="151" y="528" type="curve" smooth="yes"/>
      <point x="177" y="652"/>
      <point x="203" y="696"/>
      <point x="243" y="696" type="curve" smooth="yes"/>
      <point x="294" y="696"/>
      <point x="295" y="630"/>
      <point x="271" y="518" type="curve" smooth="yes"/>
      <point x="241" y="376"/>
      <point x="211" y="346"/>
    </contour>
    <contour>
      <point x="401" y="-5" type="curve" smooth="yes"/>
      <point x="463" y="-5"/>
      <point x="502" y="67"/>
      <point x="528" y="189" type="curve" smooth="yes"/>
      <point x="555" y="317"/>
      <point x="545" y="399"/>
      <point x="471" y="399" type="curve" smooth="yes"/>
      <point x="408" y="399"/>
      <point x="368" y="327"/>
      <point x="343" y="205" type="curve" smooth="yes"/>
      <point x="318" y="88"/>
      <point x="322" y="-5"/>
    </contour>
    <contour>
      <point x="395" y="24" type="curve" smooth="yes"/>
      <point x="345" y="28"/>
      <point x="359" y="123"/>
      <point x="376" y="204" type="curve" smooth="yes"/>
      <point x="402" y="331"/>
      <point x="430" y="371"/>
      <point x="468" y="371" type="curve" smooth="yes"/>
      <point x="520" y="371"/>
      <point x="519" y="302"/>
      <point x="495" y="189" type="curve" smooth="yes"/>
      <point x="466" y="50"/>
      <point x="437" y="21"/>
    </contour>
    <contour>
      <point x="634" y="-5" type="curve" smooth="yes"/>
      <point x="695" y="-5"/>
      <point x="734" y="67"/>
      <point x="761" y="189" type="curve" smooth="yes"/>
      <point x="788" y="317"/>
      <point x="778" y="399"/>
      <point x="703" y="399" type="curve" smooth="yes"/>
      <point x="641" y="399"/>
      <point x="601" y="327"/>
      <point x="576" y="205" type="curve" smooth="yes"/>
      <point x="551" y="88"/>
      <point x="555" y="-5"/>
    </contour>
    <contour>
      <point x="628" y="24" type="curve" smooth="yes"/>
      <point x="578" y="28"/>
      <point x="592" y="123"/>
      <point x="609" y="204" type="curve" smooth="yes"/>
      <point x="635" y="331"/>
      <point x="663" y="371"/>
      <point x="701" y="371" type="curve" smooth="yes"/>
      <point x="753" y="371"/>
      <point x="752" y="302"/>
      <point x="728" y="189" type="curve" smooth="yes"/>
      <point x="698" y="50"/>
      <point x="669" y="21"/>
    </contour>
  </outline>
</glyph>
<glyph name="guilsinglleft" format="2">
  <advance width="259"/>
  <unicode hex="2039"/>
  <outline>
    <contour>
      <point x="143" y="79" type="line"/>
      <point x="172" y="79" type="line"/>
      <point x="99" y="297" type="line"/>
      <point x="245" y="516" type="line"/>
      <point x="210" y="516" type="line"/>
      <point x="62" y="297" type="line"/>
    </contour>
  </outline>
</glyph>
<glyph name="fraction" format="2">
  <advance width="61"/>
  <unicode hex="2044"/>
  <outline>
    <contour>
      <point x="-229" y="0" type="line"/>
      <point x="-196" y="0" type="line"/>
      <point x="333" y="721" type="line"/>
      <point x="300" y="721" type="line"/>
    </contour>
  </outline>
</glyph>
<glyph name="zeroinferior" format="2">
  <advance width="291"/>
  <unicode hex="2080"/>
  <anchor x="129" y="177" name="_center"/>
  <outline>
    <contour>
      <point x="90" y="-45" type="curve" smooth="yes"/>
      <point x="153" y="-45"/>
      <point x="196" y="24"/>
      <point x="227" y="169" type="curve" smooth="yes"/>
      <point x="251" y="285"/>
      <point x="257" y="397"/>
      <point x="167" y="397" type="curve" smooth="yes"/>
      <point x="104" y="397"/>
      <point x="61" y="328"/>
      <point x="31" y="185" type="curve" smooth="yes"/>
      <point x="6" y="67"/>
      <point x="0" y="-45"/>
    </contour>
    <contour>
      <point x="93" y="-19" type="curve" smooth="yes"/>
      <point x="25" y="-19"/>
      <point x="38" y="79"/>
      <point x="59" y="181" type="curve" smooth="yes"/>
      <point x="91" y="333"/>
      <point x="124" y="371"/>
      <point x="164" y="371" type="curve" smooth="yes"/>
      <point x="232" y="371"/>
      <point x="219" y="273"/>
      <point x="198" y="173" type="curve" smooth="yes"/>
      <point x="166" y="19"/>
      <point x="133" y="-19"/>
    </contour>
  </outline>
</glyph>
<glyph name="oneinferior" format="2">
  <advance width="160"/>
  <unicode hex="2081"/>
  <anchor x="55" y="177" name="_center"/>
  <outline>
    <contour>
      <point x="9" y="-40" type="line"/>
      <point x="38" y="-40" type="line"/>
      <point x="129" y="393" type="line"/>
      <point x="102" y="393" type="line"/>
      <point x="93" y="357"/>
      <point x="75" y="334"/>
      <point x="42" y="334" type="curve" smooth="yes"/>
      <point x="30" y="334" type="line"/>
      <point x="25" y="307" type="line"/>
      <point x="82" y="307" type="line"/>
    </contour>
  </outline>
</glyph>
<glyph name="twoinferior" format="2">
  <advance width="236"/>
  <unicode hex="2082"/>
  <anchor x="90" y="177" name="_center"/>
  <outline>
    <contour>
      <point x="-31" y="-40" type="line"/>
      <point x="148" y="-40" type="line"/>
      <point x="153" y="-14" type="line"/>
      <point x="8" y="-14" type="line"/>
      <point x="21" y="73"/>
      <point x="180" y="152"/>
      <point x="208" y="285" type="curve" smooth="yes"/>
      <point x="221" y="346"/>
      <point x="202" y="398"/>
      <point x="137" y="398" type="curve" smooth="yes"/>
      <point x="83" y="398"/>
      <point x="47" y="353"/>
      <point x="33" y="276" type="curve"/>
      <point x="63" y="276" type="line"/>
      <point x="73" y="336"/>
      <point x="97" y="371"/>
      <point x="134" y="371" type="curve" smooth="yes"/>
      <point x="175" y="371"/>
      <point x="189" y="337"/>
      <point x="179" y="289" type="curve" smooth="yes"/>
      <point x="154" y="171"/>
      <point x="-5" y="93"/>
      <point x="-27" y="-22" type="curve" smooth="yes"/>
    </contour>
  </outline>
</glyph>
<glyph name="threeinferior" format="2">
  <advance width="262"/>
  <unicode hex="2083"/>
  <anchor x="107" y="177" name="_center"/>
  <outline>
    <contour>
      <point x="72" y="-44" type="curve" smooth="yes"/>
      <point x="130" y="-44"/>
      <point x="165" y="0"/>
      <point x="179" y="70" type="curve" smooth="yes"/>
      <point x="189" y="117"/>
      <point x="186" y="163"/>
      <point x="145" y="181" type="curve"/>
      <point x="145" y="183" type="line"/>
      <point x="181" y="193"/>
      <point x="209" y="235"/>
      <point x="217" y="278" type="curve" smooth="yes"/>
      <point x="229" y="342"/>
      <point x="209" y="397"/>
      <point x="142" y="397" type="curve" smooth="yes"/>
      <point x="93" y="397"/>
      <point x="53" y="359"/>
      <point x="39" y="278" type="curve"/>
      <point x="67" y="278" type="line"/>
      <point x="78" y="335"/>
      <point x="101" y="371"/>
      <point x="139" y="371" type="curve" smooth="yes"/>
      <point x="186" y="371"/>
      <point x="198" y="329"/>
      <point x="187" y="276" type="curve" smooth="yes"/>
      <point x="177" y="229"/>
      <point x="150" y="193"/>
      <point x="111" y="197" type="curve" smooth="yes"/>
      <point x="90" y="199" type="line"/>
      <point x="84" y="173" type="line"/>
      <point x="106" y="171" type="line" smooth="yes"/>
      <point x="152" y="167"/>
      <point x="161" y="125"/>
      <point x="150" y="72" type="curve" smooth="yes"/>
      <point x="137" y="11"/>
      <point x="112" y="-20"/>
      <point x="75" y="-20" type="curve" smooth="yes"/>
      <point x="19" y="-20"/>
      <point x="15" y="32"/>
      <point x="29" y="99" type="curve"/>
      <point x="-1" y="99" type="line"/>
      <point x="-17" y="21"/>
      <point x="-3" y="-44"/>
    </contour>
  </outline>
</glyph>
<glyph name="fourinferior" format="2">
  <advance width="254"/>
  <unicode hex="2084"/>
  <anchor x="94" y="177" name="_center"/>
  <outline>
    <contour>
      <point x="96" y="-40" type="line"/>
      <point x="125" y="-40" type="line"/>
      <point x="216" y="393" type="line"/>
      <point x="177" y="393" type="line"/>
      <point x="-23" y="98" type="line"/>
      <point x="-28" y="74" type="line"/>
      <point x="192" y="74" type="line"/>
      <point x="197" y="100" type="line"/>
      <point x="6" y="100" type="line"/>
      <point x="181" y="360" type="line"/>
      <point x="180" y="360" type="line"/>
    </contour>
  </outline>
</glyph>
<glyph name="fiveinferior" format="2">
  <advance width="268"/>
  <unicode hex="2085"/>
  <anchor x="131" y="177" name="_center"/>
  <outline>
    <contour>
      <point x="81" y="-44" type="curve" smooth="yes"/>
      <point x="134" y="-48"/>
      <point x="177" y="-12"/>
      <point x="199" y="92" type="curve" smooth="yes"/>
      <point x="216" y="172"/>
      <point x="208" y="242"/>
      <point x="137" y="242" type="curve" smooth="yes"/>
      <point x="112" y="242"/>
      <point x="89" y="229"/>
      <point x="74" y="207" type="curve"/>
      <point x="71" y="207" type="line"/>
      <point x="111" y="366" type="line"/>
      <point x="248" y="366" type="line"/>
      <point x="253" y="393" type="line"/>
      <point x="89" y="393" type="line"/>
      <point x="32" y="154" type="line"/>
      <point x="61" y="152" type="line"/>
      <point x="76" y="197"/>
      <point x="99" y="217"/>
      <point x="127" y="217" type="curve" smooth="yes"/>
      <point x="182" y="217"/>
      <point x="184" y="164"/>
      <point x="170" y="95" type="curve" smooth="yes"/>
      <point x="153" y="14"/>
      <point x="127" y="-20"/>
      <point x="89" y="-20" type="curve" smooth="yes"/>
      <point x="35" y="-20"/>
      <point x="30" y="35"/>
      <point x="44" y="97" type="curve"/>
      <point x="16" y="97" type="line"/>
      <point x="1" y="22"/>
      <point x="11" y="-39"/>
    </contour>
  </outline>
</glyph>
<glyph name="sixinferior" format="2">
  <advance width="279"/>
  <unicode hex="2086"/>
  <anchor x="125" y="177" name="_center"/>
  <outline>
    <contour>
      <point x="94" y="-46" type="curve" smooth="yes"/>
      <point x="142" y="-46"/>
      <point x="182" y="-10"/>
      <point x="203" y="92" type="curve" smooth="yes"/>
      <point x="220" y="173"/>
      <point x="212" y="239"/>
      <point x="142" y="239" type="curve" smooth="yes"/>
      <point x="113" y="239"/>
      <point x="81" y="223"/>
      <point x="59" y="169" type="curve"/>
      <point x="55" y="169" type="line"/>
      <point x="86" y="304"/>
      <point x="113" y="371"/>
      <point x="163" y="371" type="curve" smooth="yes"/>
      <point x="207" y="371"/>
      <point x="213" y="335"/>
      <point x="207" y="284" type="curve"/>
      <point x="234" y="283" type="line"/>
      <point x="241" y="346"/>
      <point x="230" y="392"/>
      <point x="170" y="397" type="curve" smooth="yes"/>
      <point x="112" y="401"/>
      <point x="64" y="355"/>
      <point x="26" y="158" type="curve" smooth="yes"/>
      <point x="0" y="26"/>
      <point x="12" y="-46"/>
    </contour>
    <contour>
      <point x="95" y="-20" type="curve" smooth="yes"/>
      <point x="41" y="-20"/>
      <point x="37" y="36"/>
      <point x="50" y="99" type="curve" smooth="yes"/>
      <point x="65" y="170"/>
      <point x="91" y="215"/>
      <point x="132" y="215" type="curve" smooth="yes"/>
      <point x="182" y="215"/>
      <point x="190" y="169"/>
      <point x="174" y="94" type="curve" smooth="yes"/>
      <point x="159" y="24"/>
      <point x="139" y="-20"/>
    </contour>
  </outline>
</glyph>
<glyph name="seveninferior" format="2">
  <advance width="217"/>
  <unicode hex="2087"/>
  <anchor x="128" y="177" name="_center"/>
  <outline>
    <contour>
      <point x="19" y="-40" type="curve"/>
      <point x="50" y="-40" type="line"/>
      <point x="76" y="87"/>
      <point x="123" y="200"/>
      <point x="233" y="368" type="curve"/>
      <point x="238" y="393" type="line"/>
      <point x="43" y="393" type="line"/>
      <point x="17" y="268" type="line"/>
      <point x="43" y="268" type="line"/>
      <point x="63" y="365" type="line"/>
      <point x="201" y="365" type="line"/>
      <point x="115" y="232"/>
      <point x="50" y="107"/>
    </contour>
  </outline>
</glyph>
<glyph name="eightinferior" format="2">
  <advance width="284"/>
  <unicode hex="2088"/>
  <anchor x="123" y="177" name="_center"/>
  <outline>
    <contour>
      <point x="91" y="-45" type="curve" smooth="yes"/>
      <point x="146" y="-45"/>
      <point x="187" y="-5"/>
      <point x="202" y="68" type="curve" smooth="yes"/>
      <point x="211" y="112"/>
      <point x="205" y="162"/>
      <point x="167" y="180" type="curve"/>
      <point x="167" y="183" type="line"/>
      <point x="202" y="192"/>
      <point x="230" y="231"/>
      <point x="240" y="278" type="curve" smooth="yes"/>
      <point x="254" y="348"/>
      <point x="227" y="397"/>
      <point x="161" y="397" type="curve" smooth="yes"/>
      <point x="112" y="397"/>
      <point x="70" y="360"/>
      <point x="57" y="296" type="curve" smooth="yes"/>
      <point x="48" y="252"/>
      <point x="54" y="207"/>
      <point x="87" y="190" type="curve"/>
      <point x="86" y="187" type="line"/>
      <point x="51" y="179"/>
      <point x="18" y="141"/>
      <point x="7" y="86" type="curve" smooth="yes"/>
      <point x="-9" y="8"/>
      <point x="17" y="-45"/>
    </contour>
    <contour>
      <point x="92" y="-20" type="curve" smooth="yes"/>
      <point x="37" y="-20"/>
      <point x="23" y="24"/>
      <point x="37" y="87" type="curve" smooth="yes"/>
      <point x="48" y="138"/>
      <point x="74" y="172"/>
      <point x="117" y="172" type="curve" smooth="yes"/>
      <point x="171" y="172"/>
      <point x="185" y="128"/>
      <point x="174" y="76" type="curve" smooth="yes"/>
      <point x="160" y="11"/>
      <point x="134" y="-20"/>
    </contour>
    <contour>
      <point x="135" y="196" type="curve" smooth="yes"/>
      <point x="90" y="196"/>
      <point x="73" y="236"/>
      <point x="84" y="289" type="curve" smooth="yes"/>
      <point x="95" y="340"/>
      <point x="119" y="372"/>
      <point x="159" y="372" type="curve" smooth="yes"/>
      <point x="210" y="372"/>
      <point x="222" y="330"/>
      <point x="211" y="278" type="curve" smooth="yes"/>
      <point x="201" y="228"/>
      <point x="173" y="196"/>
    </contour>
  </outline>
</glyph>
<glyph name="peseta" format="2">
  <advance width="828"/>
  <unicode hex="20A7"/>
  <outline>
    <contour>
      <point x="25" y="0" type="line"/>
      <point x="56" y="0" type="line"/>
      <point x="203" y="711" type="line"/>
      <point x="169" y="701" type="line"/>
      <point x="254" y="701" type="line" smooth="yes"/>
      <point x="346" y="701"/>
      <point x="389" y="645"/>
      <point x="360" y="510" type="curve" smooth="yes"/>
      <point x="333" y="382"/>
      <point x="272" y="343"/>
      <point x="190" y="343" type="curve" smooth="yes"/>
      <point x="100" y="343" type="line"/>
      <point x="94" y="315" type="line"/>
      <point x="186" y="315" type="line" smooth="yes"/>
      <point x="306" y="315"/>
      <point x="367" y="392"/>
      <point x="392" y="505" type="curve" smooth="yes"/>
      <point x="419" y="632"/>
      <point x="388" y="729"/>
      <point x="262" y="729" type="curve" smooth="yes"/>
      <point x="177" y="729" type="line"/>
    </contour>
    <contour>
      <point x="432" y="0" type="curve" smooth="yes"/>
      <point x="459" y="0" type="line"/>
      <point x="465" y="30" type="line"/>
      <point x="440" y="30" type="line" smooth="yes"/>
      <point x="417" y="30"/>
      <point x="413" y="41"/>
      <point x="422" y="82" type="curve" smooth="yes"/>
      <point x="507" y="492" type="line"/>
      <point x="563" y="492" type="line"/>
      <point x="567" y="516" type="line"/>
      <point x="512" y="516" type="line"/>
      <point x="551" y="700" type="line"/>
      <point x="522" y="697" type="line"/>
      <point x="484" y="516" type="line"/>
      <point x="440" y="516" type="line"/>
      <point x="435" y="492" type="line"/>
      <point x="479" y="492" type="line"/>
      <point x="391" y="70" type="line" smooth="yes"/>
      <point x="380" y="18"/>
      <point x="396" y="0"/>
    </contour>
    <contour>
      <point x="639" y="-10" type="curve" smooth="yes"/>
      <point x="708" y="-10"/>
      <point x="759" y="39"/>
      <point x="763" y="142" type="curve" smooth="yes"/>
      <point x="765" y="203"/>
      <point x="743" y="232"/>
      <point x="696" y="279" type="curve" smooth="yes"/>
      <point x="668" y="307"/>
      <point x="635" y="341"/>
      <point x="637" y="392" type="curve" smooth="yes"/>
      <point x="639" y="458"/>
      <point x="671" y="497"/>
      <point x="719" y="497" type="curve" smooth="yes"/>
      <point x="766" y="497"/>
      <point x="795" y="472"/>
      <point x="778" y="366" type="curve"/>
      <point x="805" y="366" type="line"/>
      <point x="825" y="467"/>
      <point x="800" y="526"/>
      <point x="724" y="526" type="curve" smooth="yes"/>
      <point x="657" y="526"/>
      <point x="611" y="473"/>
      <point x="608" y="390" type="curve" smooth="yes"/>
      <point x="606" y="342"/>
      <point x="626" y="301"/>
      <point x="673" y="258" type="curve" smooth="yes"/>
      <point x="720" y="215"/>
      <point x="736" y="185"/>
      <point x="734" y="139" type="curve" smooth="yes"/>
      <point x="731" y="62"/>
      <point x="697" y="18"/>
      <point x="642" y="18" type="curve" smooth="yes"/>
      <point x="580" y="18"/>
      <point x="555" y="64"/>
      <point x="572" y="161" type="curve"/>
      <point x="545" y="161" type="line"/>
      <point x="525" y="58"/>
      <point x="554" y="-10"/>
    </contour>
  </outline>
</glyph>
<glyph name="won" format="2">
  <advance width="593"/>
  <unicode hex="20A9"/>
  <outline>
    <contour>
      <point x="97" y="0" type="line"/>
      <point x="149" y="0" type="line"/>
      <point x="273" y="359" type="line"/>
      <point x="380" y="681" type="line"/>
      <point x="385" y="681" type="line"/>
      <point x="361" y="358" type="line"/>
      <point x="340" y="0" type="line"/>
      <point x="388" y="0" type="line"/>
      <point x="643" y="729" type="line"/>
      <point x="611" y="729" type="line"/>
      <point x="481" y="359" type="line"/>
      <point x="372" y="29" type="line"/>
      <point x="366" y="29" type="line"/>
      <point x="393" y="358" type="line"/>
      <point x="417" y="729" type="line"/>
      <point x="368" y="729" type="line"/>
      <point x="239" y="360" type="line"/>
      <point x="132" y="28" type="line"/>
      <point x="126" y="28" type="line"/>
      <point x="152" y="361" type="line"/>
      <point x="175" y="729" type="line"/>
      <point x="145" y="729" type="line"/>
    </contour>
    <contour>
      <point x="45" y="351" type="line"/>
      <point x="585" y="351" type="line"/>
      <point x="589" y="376" type="line"/>
      <point x="50" y="376" type="line"/>
    </contour>
  </outline>
</glyph>
<glyph name="sheqel" format="2">
  <advance width="595"/>
  <unicode hex="20AA"/>
  <outline>
    <contour>
      <point x="161" y="0" type="line"/>
      <point x="405" y="0" type="line" smooth="yes"/>
      <point x="446" y="0"/>
      <point x="468" y="17"/>
      <point x="477" y="61" type="curve" smooth="yes"/>
      <point x="615" y="729" type="line"/>
      <point x="583" y="729" type="line"/>
      <point x="439" y="30" type="line"/>
      <point x="199" y="30" type="line"/>
      <point x="311" y="571" type="line"/>
      <point x="279" y="571" type="line"/>
    </contour>
    <contour>
      <point x="25" y="0" type="line"/>
      <point x="57" y="0" type="line"/>
      <point x="201" y="699" type="line"/>
      <point x="441" y="699" type="line"/>
      <point x="329" y="158" type="line"/>
      <point x="361" y="158" type="line"/>
      <point x="467" y="668" type="line" smooth="yes"/>
      <point x="476" y="712"/>
      <point x="460" y="729"/>
      <point x="419" y="729" type="curve" smooth="yes"/>
      <point x="175" y="729" type="line"/>
    </contour>
  </outline>
</glyph>
<glyph name="euro" format="2">
  <advance width="447"/>
  <unicode hex="20AC"/>
  <outline>
    <contour>
      <point x="202" y="-9" type="curve" smooth="yes"/>
      <point x="283" y="-9"/>
      <point x="361" y="46"/>
      <point x="399" y="234" type="curve"/>
      <point x="368" y="234" type="line"/>
      <point x="336" y="100"/>
      <point x="291" y="20"/>
      <point x="205" y="20" type="curve" smooth="yes"/>
      <point x="84" y="20"/>
      <point x="97" y="185"/>
      <point x="136" y="374" type="curve" smooth="yes"/>
      <point x="182" y="593"/>
      <point x="239" y="708"/>
      <point x="329" y="708" type="curve" smooth="yes"/>
      <point x="431" y="708"/>
      <point x="437" y="617"/>
      <point x="422" y="495" type="curve"/>
      <point x="453" y="495" type="line"/>
      <point x="476" y="652"/>
      <point x="447" y="738"/>
      <point x="333" y="738" type="curve" smooth="yes"/>
      <point x="234" y="738"/>
      <point x="161" y="645"/>
      <point x="104" y="375" type="curve" smooth="yes"/>
      <point x="62" y="177"/>
      <point x="47" y="-9"/>
    </contour>
    <contour>
      <point x="30" y="280" type="line"/>
      <point x="246" y="280" type="line"/>
      <point x="256" y="309" type="line"/>
      <point x="36" y="309" type="line"/>
    </contour>
    <contour>
      <point x="59" y="420" type="line"/>
      <point x="296" y="420" type="line"/>
      <point x="305" y="448" type="line"/>
      <point x="64" y="448" type="line"/>
    </contour>
  </outline>
</glyph>
<glyph name="tenge" format="2">
  <advance width="357"/>
  <unicode hex="20B8"/>
  <outline>
    <contour>
      <point x="230" y="578" type="line"/>
      <point x="111" y="0" type="line"/>
      <point x="142" y="0" type="line"/>
      <point x="261" y="578" type="line"/>
    </contour>
    <contour>
      <point x="402" y="570" type="line"/>
      <point x="408" y="599" type="line"/>
      <point x="93" y="599" type="line"/>
      <point x="87" y="570" type="line"/>
    </contour>
    <contour>
      <point x="428" y="700" type="line"/>
      <point x="434" y="729" type="line"/>
      <point x="119" y="729" type="line"/>
      <point x="113" y="700" type="line"/>
    </contour>
  </outline>
</glyph>
<glyph name="rupeeIndian" format="2">
  <advance width="405"/>
  <unicode hex="20B9"/>
  <outline>
    <contour>
      <point x="235" y="0" type="line"/>
      <point x="264" y="0" type="line"/>
      <point x="264" y="202" type="line" smooth="yes"/>
      <point x="264" y="277"/>
      <point x="243" y="320"/>
      <point x="202" y="338" type="curve"/>
      <point x="203" y="344" type="line"/>
      <point x="287" y="366"/>
      <point x="347" y="434"/>
      <point x="367" y="513" type="curve"/>
      <point x="437" y="513" type="line"/>
      <point x="442" y="539" type="line"/>
      <point x="372" y="539" type="line"/>
      <point x="387" y="614"/>
      <point x="361" y="676"/>
      <point x="317" y="699" type="curve"/>
      <point x="317" y="701" type="line"/>
      <point x="477" y="701" type="line"/>
      <point x="483" y="729" type="line"/>
      <point x="128" y="729" type="line"/>
      <point x="122" y="701" type="line"/>
      <point x="218" y="701" type="line" smooth="yes"/>
      <point x="295" y="701"/>
      <point x="363" y="658"/>
      <point x="339" y="539" type="curve"/>
      <point x="88" y="539" type="line"/>
      <point x="83" y="513" type="line"/>
      <point x="334" y="513" type="line"/>
      <point x="309" y="416"/>
      <point x="232" y="354"/>
      <point x="127" y="354" type="curve" smooth="yes"/>
      <point x="50" y="354" type="line"/>
      <point x="44" y="327" type="line"/>
      <point x="130" y="327" type="line" smooth="yes"/>
      <point x="203" y="327"/>
      <point x="235" y="305"/>
      <point x="235" y="187" type="curve" smooth="yes"/>
    </contour>
  </outline>
</glyph>
<glyph name="liraTurkish" format="2">
  <advance width="431"/>
  <unicode hex="20BA"/>
  <outline>
    <contour>
      <point x="75" y="0" type="line"/>
      <point x="100" y="0" type="line" smooth="yes"/>
      <point x="258" y="0"/>
      <point x="381" y="126"/>
      <point x="417" y="316" type="curve"/>
      <point x="385" y="316" type="line"/>
      <point x="351" y="147"/>
      <point x="250" y="32"/>
      <point x="113" y="29" type="curve"/>
      <point x="257" y="729" type="line"/>
      <point x="225" y="729" type="line"/>
    </contour>
    <contour>
      <point x="31" y="288" type="line"/>
      <point x="346" y="403" type="line"/>
      <point x="353" y="436" type="line"/>
      <point x="38" y="320" type="line"/>
    </contour>
    <contour>
      <point x="64" y="446" type="line"/>
      <point x="379" y="562" type="line"/>
      <point x="386" y="594" type="line"/>
      <point x="70" y="477" type="line"/>
    </contour>
  </outline>
</glyph>
<glyph name="literSign" format="2">
  <advance width="363"/>
  <unicode hex="2113"/>
  <outline>
    <contour>
      <point x="163" y="-10" type="curve" smooth="yes"/>
      <point x="211" y="-10"/>
      <point x="255" y="13"/>
      <point x="302" y="106" type="curve"/>
      <point x="274" y="116" type="line"/>
      <point x="245" y="59"/>
      <point x="214" y="21"/>
      <point x="166" y="21" type="curve" smooth="yes"/>
      <point x="76" y="21"/>
      <point x="100" y="232"/>
      <point x="132" y="395" type="curve" smooth="yes"/>
      <point x="170" y="589"/>
      <point x="219" y="707"/>
      <point x="290" y="707" type="curve" smooth="yes"/>
      <point x="353" y="707"/>
      <point x="354" y="626"/>
      <point x="332" y="542" type="curve" smooth="yes"/>
      <point x="286" y="366"/>
      <point x="161" y="217"/>
      <point x="7" y="161" type="curve"/>
      <point x="1" y="129" type="line"/>
      <point x="176" y="188"/>
      <point x="320" y="359"/>
      <point x="366" y="547" type="curve" smooth="yes"/>
      <point x="394" y="662"/>
      <point x="365" y="739"/>
      <point x="294" y="739" type="curve" smooth="yes"/>
      <point x="215" y="739"/>
      <point x="155" y="660"/>
      <point x="102" y="399" type="curve" smooth="yes"/>
      <point x="65" y="216"/>
      <point x="42" y="-10"/>
    </contour>
  </outline>
</glyph>
<glyph name="numero" format="2">
  <advance width="684"/>
  <unicode hex="2116"/>
  <outline>
    <contour>
      <point x="25" y="0" type="line"/>
      <point x="56" y="0" type="line"/>
      <point x="141" y="410" type="line"/>
      <point x="195" y="685" type="line"/>
      <point x="201" y="685" type="line"/>
      <point x="290" y="0" type="line"/>
      <point x="339" y="0" type="line"/>
      <point x="490" y="729" type="line"/>
      <point x="459" y="729" type="line"/>
      <point x="376" y="328" type="line"/>
      <point x="319" y="39" type="line"/>
      <point x="314" y="39" type="line"/>
      <point x="225" y="729" type="line"/>
      <point x="176" y="729" type="line"/>
    </contour>
    <contour>
      <point x="468" y="243" type="line"/>
      <point x="624" y="243" type="line"/>
      <point x="630" y="273" type="line"/>
      <point x="474" y="273" type="line"/>
    </contour>
    <contour>
      <point x="570" y="335" type="curve" smooth="yes"/>
      <point x="629" y="335"/>
      <point x="670" y="403"/>
      <point x="697" y="527" type="curve" smooth="yes"/>
      <point x="721" y="644"/>
      <point x="720" y="739"/>
      <point x="640" y="739" type="curve" smooth="yes"/>
      <point x="581" y="739"/>
      <point x="539" y="674"/>
      <point x="513" y="549" type="curve" smooth="yes"/>
      <point x="482" y="403"/>
      <point x="501" y="335"/>
    </contour>
    <contour>
      <point x="573" y="363" type="curve" smooth="yes"/>
      <point x="522" y="363"/>
      <point x="521" y="429"/>
      <point x="545" y="542" type="curve" smooth="yes"/>
      <point x="571" y="666"/>
      <point x="597" y="710"/>
      <point x="637" y="710" type="curve" smooth="yes"/>
      <point x="688" y="710"/>
      <point x="689" y="644"/>
      <point x="665" y="532" type="curve" smooth="yes"/>
      <point x="639" y="407"/>
      <point x="613" y="363"/>
    </contour>
  </outline>
</glyph>
<glyph name="trademark" format="2">
  <advance width="584"/>
  <unicode hex="2122"/>
  <outline>
    <contour>
      <point x="308" y="419" type="line"/>
      <point x="334" y="419" type="line"/>
      <point x="366" y="573" type="line"/>
      <point x="391" y="693" type="line"/>
      <point x="393" y="693" type="line"/>
      <point x="406" y="419" type="line"/>
      <point x="439" y="419" type="line"/>
      <point x="568" y="693" type="line"/>
      <point x="570" y="693" type="line"/>
      <point x="543" y="573" type="line"/>
      <point x="511" y="419" type="line"/>
      <point x="540" y="419" type="line"/>
      <point x="603" y="729" type="line"/>
      <point x="559" y="729" type="line"/>
      <point x="431" y="453" type="line"/>
      <point x="429" y="453" type="line"/>
      <point x="415" y="729" type="line"/>
      <point x="373" y="729" type="line"/>
    </contour>
    <contour>
      <point x="136" y="419" type="line"/>
      <point x="163" y="419" type="line"/>
      <point x="222" y="704" type="line"/>
      <point x="310" y="704" type="line"/>
      <point x="315" y="729" type="line"/>
      <point x="117" y="729" type="line"/>
      <point x="112" y="704" type="line"/>
      <point x="195" y="704" type="line"/>
    </contour>
  </outline>
</glyph>
<glyph name="estimated" format="2">
  <advance width="832"/>
  <unicode hex="212E"/>
  <outline>
    <contour>
      <point x="460" y="-9" type="curve" smooth="yes"/>
      <point x="564" y="-9"/>
      <point x="670" y="27"/>
      <point x="737" y="90" type="curve"/>
      <point x="719" y="120" type="line"/>
      <point x="658" y="64"/>
      <point x="560" y="26"/>
      <point x="460" y="26" type="curve" smooth="yes"/>
      <point x="364" y="26"/>
      <point x="292" y="53"/>
      <point x="235" y="107" type="curve"/>
      <point x="235" y="362" type="line"/>
      <point x="766" y="362" type="line"/>
      <point x="766" y="416" type="line" smooth="yes"/>
      <point x="766" y="609"/>
      <point x="635" y="737"/>
      <point x="439" y="737" type="curve" smooth="yes"/>
      <point x="231" y="737"/>
      <point x="93" y="588"/>
      <point x="93" y="364" type="curve" smooth="yes"/>
      <point x="93" y="140"/>
      <point x="240" y="-9"/>
    </contour>
    <contour>
      <point x="235" y="395" type="line"/>
      <point x="235" y="620" type="line"/>
      <point x="285" y="679"/>
      <point x="368" y="704"/>
      <point x="439" y="704" type="curve" smooth="yes"/>
      <point x="514" y="704"/>
      <point x="597" y="681"/>
      <point x="641" y="626" type="curve"/>
      <point x="641" y="395" type="line"/>
    </contour>
  </outline>
</glyph>
<glyph name="leftArrow" format="2">
  <advance width="671"/>
  <unicode hex="2190"/>
  <outline>
    <contour>
      <point x="613" y="380" type="line"/>
      <point x="123" y="380" type="line"/>
      <point x="235" y="533" type="line"/>
      <point x="198" y="533" type="line"/>
      <point x="74" y="365" type="line"/>
      <point x="198" y="197" type="line"/>
      <point x="235" y="197" type="line"/>
      <point x="123" y="350" type="line"/>
      <point x="613" y="350" type="line"/>
    </contour>
  </outline>
</glyph>
<glyph name="upArrow" format="2">
  <advance width="482"/>
  <unicode hex="2191"/>
  <outline>
    <contour>
      <point x="264" y="95" type="line"/>
      <point x="294" y="95" type="line"/>
      <point x="294" y="585" type="line"/>
      <point x="447" y="473" type="line"/>
      <point x="447" y="510" type="line"/>
      <point x="279" y="634" type="line"/>
      <point x="111" y="510" type="line"/>
      <point x="111" y="473" type="line"/>
      <point x="264" y="585" type="line"/>
    </contour>
  </outline>
</glyph>
<glyph name="rightArrow" format="2">
  <advance width="671"/>
  <unicode hex="2192"/>
  <outline>
    <contour>
      <point x="87" y="380" type="line"/>
      <point x="87" y="350" type="line"/>
      <point x="577" y="350" type="line"/>
      <point x="465" y="197" type="line"/>
      <point x="502" y="197" type="line"/>
      <point x="626" y="365" type="line"/>
      <point x="502" y="533" type="line"/>
      <point x="465" y="533" type="line"/>
      <point x="577" y="380" type="line"/>
    </contour>
  </outline>
</glyph>
<glyph name="downArrow" format="2">
  <advance width="482"/>
  <unicode hex="2193"/>
  <outline>
    <contour>
      <point x="211" y="634" type="line"/>
      <point x="211" y="144" type="line"/>
      <point x="58" y="256" type="line"/>
      <point x="58" y="219" type="line"/>
      <point x="226" y="95" type="line"/>
      <point x="394" y="219" type="line"/>
      <point x="394" y="256" type="line"/>
      <point x="241" y="144" type="line"/>
      <point x="241" y="634" type="line"/>
    </contour>
  </outline>
</glyph>
<glyph name="leftRightArrow" format="2">
  <advance width="748"/>
  <unicode hex="2194"/>
  <outline>
    <contour>
      <point x="195" y="197" type="line"/>
      <point x="232" y="197" type="line"/>
      <point x="120" y="350" type="line"/>
      <point x="651" y="350" type="line"/>
      <point x="539" y="197" type="line"/>
      <point x="576" y="197" type="line"/>
      <point x="700" y="365" type="line"/>
      <point x="576" y="533" type="line"/>
      <point x="539" y="533" type="line"/>
      <point x="651" y="380" type="line"/>
      <point x="120" y="380" type="line"/>
      <point x="232" y="533" type="line"/>
      <point x="195" y="533" type="line"/>
      <point x="71" y="365" type="line"/>
    </contour>
  </outline>
</glyph>
<glyph name="emptyset" format="2">
  <advance width="770"/>
  <unicode hex="2205"/>
  <outline>
    <contour>
      <point x="408" y="0" type="curve" smooth="yes"/>
      <point x="604" y="0"/>
      <point x="767" y="151"/>
      <point x="767" y="366" type="curve" smooth="yes"/>
      <point x="767" y="578"/>
      <point x="604" y="729"/>
      <point x="408" y="729" type="curve" smooth="yes"/>
      <point x="210" y="729"/>
      <point x="48" y="578"/>
      <point x="48" y="366" type="curve" smooth="yes"/>
      <point x="48" y="151"/>
      <point x="210" y="0"/>
    </contour>
    <contour>
      <point x="408" y="28" type="curve" smooth="yes"/>
      <point x="294" y="28"/>
      <point x="192" y="87"/>
      <point x="133" y="181" type="curve"/>
      <point x="697" y="524" type="line"/>
      <point x="721" y="478"/>
      <point x="734" y="424"/>
      <point x="734" y="366" type="curve" smooth="yes"/>
      <point x="734" y="171"/>
      <point x="584" y="28"/>
    </contour>
    <contour>
      <point x="118" y="207" type="line"/>
      <point x="94" y="254"/>
      <point x="81" y="308"/>
      <point x="81" y="366" type="curve" smooth="yes"/>
      <point x="81" y="560"/>
      <point x="231" y="701"/>
      <point x="408" y="701" type="curve" smooth="yes"/>
      <point x="521" y="701"/>
      <point x="623" y="643"/>
      <point x="681" y="551" type="curve"/>
    </contour>
  </outline>
</glyph>
<glyph name="product" format="2">
  <advance width="409"/>
  <unicode hex="220F"/>
  <outline>
    <contour>
      <point x="-27" y="-151" type="line"/>
      <point x="4" y="-151" type="line"/>
      <point x="182" y="699" type="line"/>
      <point x="413" y="699" type="line"/>
      <point x="234" y="-151" type="line"/>
      <point x="264" y="-151" type="line"/>
      <point x="449" y="729" type="line"/>
      <point x="158" y="729" type="line"/>
    </contour>
  </outline>
</glyph>
<glyph name="summation" format="2">
  <advance width="319"/>
  <unicode hex="2211"/>
  <outline>
    <contour>
      <point x="-79" y="-151" type="line"/>
      <point x="234" y="-151" type="line"/>
      <point x="241" y="-122" type="line"/>
      <point x="43" y="-122" type="line"/>
      <point x="-38" y="-122" type="line"/>
      <point x="-38" y="-119" type="line"/>
      <point x="227" y="287" type="line"/>
      <point x="129" y="697" type="line"/>
      <point x="129" y="700" type="line"/>
      <point x="195" y="700" type="line"/>
      <point x="412" y="700" type="line"/>
      <point x="419" y="729" type="line"/>
      <point x="106" y="729" type="line"/>
      <point x="98" y="694" type="line"/>
      <point x="191" y="293" type="line"/>
      <point x="191" y="290" type="line"/>
      <point x="-71" y="-116" type="line"/>
    </contour>
  </outline>
</glyph>
<glyph name="radical" format="2">
  <advance width="402"/>
  <unicode hex="221A"/>
  <outline>
    <contour>
      <point x="79" y="-151" type="line"/>
      <point x="114" y="-151" type="line"/>
      <point x="500" y="729" type="line"/>
      <point x="468" y="729" type="line"/>
      <point x="104" y="-100" type="line"/>
      <point x="102" y="-100" type="line"/>
      <point x="96" y="369" type="line"/>
      <point x="19" y="369" type="line"/>
      <point x="12" y="335" type="line"/>
      <point x="68" y="335" type="line"/>
    </contour>
  </outline>
</glyph>
<glyph name="infinity" format="2">
  <advance width="800"/>
  <unicode hex="221E"/>
  <outline>
    <contour>
      <point x="222" y="189" type="curve" smooth="yes"/>
      <point x="317" y="189"/>
      <point x="374" y="262"/>
      <point x="423" y="342" type="curve"/>
      <point x="476" y="254"/>
      <point x="530" y="189"/>
      <point x="625" y="189" type="curve" smooth="yes"/>
      <point x="729" y="189"/>
      <point x="787" y="274"/>
      <point x="787" y="363" type="curve" smooth="yes"/>
      <point x="787" y="456"/>
      <point x="729" y="540"/>
      <point x="625" y="540" type="curve" smooth="yes"/>
      <point x="526" y="540"/>
      <point x="472" y="466"/>
      <point x="423" y="388" type="curve"/>
      <point x="374" y="466"/>
      <point x="319" y="540"/>
      <point x="221" y="540" type="curve" smooth="yes"/>
      <point x="118" y="540"/>
      <point x="56" y="458"/>
      <point x="56" y="363" type="curve" smooth="yes"/>
      <point x="56" y="266"/>
      <point x="117" y="189"/>
    </contour>
    <contour>
      <point x="221" y="218" type="curve" smooth="yes"/>
      <point x="140" y="218"/>
      <point x="84" y="275"/>
      <point x="84" y="364" type="curve" smooth="yes"/>
      <point x="84" y="450"/>
      <point x="139" y="512"/>
      <point x="220" y="512" type="curve" smooth="yes"/>
      <point x="295" y="512"/>
      <point x="340" y="462"/>
      <point x="405" y="365" type="curve"/>
      <point x="338" y="261"/>
      <point x="288" y="218"/>
    </contour>
    <contour>
      <point x="625" y="218" type="curve" smooth="yes"/>
      <point x="550" y="218"/>
      <point x="506" y="266"/>
      <point x="440" y="365" type="curve"/>
      <point x="505" y="463"/>
      <point x="551" y="512"/>
      <point x="625" y="512" type="curve" smooth="yes"/>
      <point x="706" y="512"/>
      <point x="761" y="448"/>
      <point x="761" y="364" type="curve" smooth="yes"/>
      <point x="761" y="282"/>
      <point x="706" y="218"/>
    </contour>
  </outline>
</glyph>
<glyph name="integral" format="2">
  <advance width="264"/>
  <unicode hex="222B"/>
  <outline>
    <contour>
      <point x="-92" y="-151" type="line"/>
      <point x="21" y="-151" type="line" smooth="yes"/>
      <point x="54" y="-151"/>
      <point x="67" y="-129"/>
      <point x="71" y="-106" type="curve" smooth="yes"/>
      <point x="240" y="699" type="line"/>
      <point x="362" y="699" type="line"/>
      <point x="369" y="729" type="line"/>
      <point x="254" y="729" type="line" smooth="yes"/>
      <point x="230" y="729"/>
      <point x="213" y="712"/>
      <point x="206" y="680" type="curve" smooth="yes"/>
      <point x="38" y="-122" type="line"/>
      <point x="-85" y="-122" type="line"/>
    </contour>
  </outline>
</glyph>
<glyph name="approxequal" format="2">
  <advance width="480"/>
  <unicode hex="2248"/>
  <outline>
    <contour>
      <point x="301" y="217" type="curve" smooth="yes"/>
      <point x="344" y="217"/>
      <point x="389" y="243"/>
      <point x="399" y="317" type="curve"/>
      <point x="369" y="317" type="line"/>
      <point x="361" y="274"/>
      <point x="339" y="253"/>
      <point x="308" y="253" type="curve" smooth="yes"/>
      <point x="260" y="253"/>
      <point x="220" y="301"/>
      <point x="172" y="301" type="curve" smooth="yes"/>
      <point x="140" y="301"/>
      <point x="92" y="284"/>
      <point x="81" y="205" type="curve"/>
      <point x="112" y="205" type="line"/>
      <point x="116" y="238"/>
      <point x="134" y="266"/>
      <point x="163" y="266" type="curve" smooth="yes"/>
      <point x="201" y="266"/>
      <point x="247" y="217"/>
    </contour>
    <contour>
      <point x="344" y="424" type="curve" smooth="yes"/>
      <point x="393" y="424"/>
      <point x="433" y="455"/>
      <point x="442" y="523" type="curve"/>
      <point x="412" y="523" type="line"/>
      <point x="405" y="481"/>
      <point x="381" y="460"/>
      <point x="352" y="460" type="curve" smooth="yes"/>
      <point x="304" y="460"/>
      <point x="263" y="508"/>
      <point x="215" y="508" type="curve" smooth="yes"/>
      <point x="184" y="508"/>
      <point x="135" y="490"/>
      <point x="124" y="411" type="curve"/>
      <point x="155" y="411" type="line"/>
      <point x="160" y="448"/>
      <point x="179" y="473"/>
      <point x="206" y="473" type="curve" smooth="yes"/>
      <point x="244" y="473"/>
      <point x="291" y="424"/>
    </contour>
  </outline>
</glyph>
<glyph name="notequal" format="2">
  <advance width="480"/>
  <unicode hex="2260"/>
  <outline>
    <contour>
      <point x="92" y="100" type="line"/>
      <point x="124" y="100" type="line"/>
      <point x="433" y="630" type="line"/>
      <point x="402" y="630" type="line"/>
    </contour>
    <contour>
      <point x="47" y="247" type="line"/>
      <point x="429" y="247" type="line"/>
      <point x="435" y="275" type="line"/>
      <point x="53" y="275" type="line"/>
    </contour>
    <contour>
      <point x="89" y="447" type="line"/>
      <point x="471" y="447" type="line"/>
      <point x="477" y="475" type="line"/>
      <point x="95" y="475" type="line"/>
    </contour>
  </outline>
</glyph>
<glyph name="lessequal" format="2">
  <advance width="480"/>
  <unicode hex="2264"/>
  <outline>
    <contour>
      <point x="427" y="145" type="line"/>
      <point x="433" y="177" type="line"/>
      <point x="75" y="357" type="line"/>
      <point x="75" y="361" type="line"/>
      <point x="510" y="541" type="line"/>
      <point x="518" y="577" type="line"/>
      <point x="50" y="383" type="line"/>
      <point x="40" y="339" type="line"/>
    </contour>
    <contour>
      <point x="-31" y="0" type="line"/>
      <point x="396" y="0" type="line"/>
      <point x="402" y="28" type="line"/>
      <point x="-25" y="28" type="line"/>
    </contour>
  </outline>
</glyph>
<glyph name="greaterequal" format="2">
  <advance width="480"/>
  <unicode hex="2265"/>
  <outline>
    <contour>
      <point x="6" y="145" type="line"/>
      <point x="474" y="339" type="line"/>
      <point x="484" y="383" type="line"/>
      <point x="97" y="577" type="line"/>
      <point x="91" y="545" type="line"/>
      <point x="449" y="365" type="line"/>
      <point x="449" y="361" type="line"/>
      <point x="14" y="181" type="line"/>
    </contour>
    <contour>
      <point x="-24" y="0" type="line"/>
      <point x="403" y="0" type="line"/>
      <point x="409" y="28" type="line"/>
      <point x="-18" y="28" type="line"/>
    </contour>
  </outline>
</glyph>
<glyph name="dottedCircle" format="2">
  <advance width="732"/>
  <unicode hex="25CC"/>
  <anchor x="313" y="0" name="bottom"/>
  <anchor x="388" y="365" name="center"/>
  <anchor x="313" y="0" name="ogonek"/>
  <anchor x="463" y="729" name="top"/>
  <anchor x="463" y="729" name="topright"/>
  <outline>
    <contour>
      <point x="388" y="589" type="curve" smooth="yes"/>
      <point x="414" y="589"/>
      <point x="433" y="608"/>
      <point x="433" y="634" type="curve" smooth="yes"/>
      <point x="433" y="660"/>
      <point x="414" y="679"/>
      <point x="388" y="679" type="curve" smooth="yes"/>
      <point x="362" y="679"/>
      <point x="343" y="660"/>
      <point x="343" y="634" type="curve" smooth="yes"/>
      <point x="343" y="608"/>
      <point x="362" y="589"/>
    </contour>
    <contour>
      <point x="523" y="553" type="curve" smooth="yes"/>
      <point x="549" y="553"/>
      <point x="568" y="572"/>
      <point x="568" y="598" type="curve" smooth="yes"/>
      <point x="568" y="624"/>
      <point x="549" y="643"/>
      <point x="523" y="643" type="curve" smooth="yes"/>
      <point x="497" y="643"/>
      <point x="478" y="624"/>
      <point x="478" y="598" type="curve" smooth="yes"/>
      <point x="478" y="572"/>
      <point x="497" y="553"/>
    </contour>
    <contour>
      <point x="622" y="454" type="curve" smooth="yes"/>
      <point x="648" y="454"/>
      <point x="667" y="473"/>
      <point x="667" y="499" type="curve" smooth="yes"/>
      <point x="667" y="525"/>
      <point x="648" y="544"/>
      <point x="622" y="544" type="curve" smooth="yes"/>
      <point x="596" y="544"/>
      <point x="577" y="525"/>
      <point x="577" y="499" type="curve" smooth="yes"/>
      <point x="577" y="473"/>
      <point x="596" y="454"/>
    </contour>
    <contour>
      <point x="658" y="320" type="curve" smooth="yes"/>
      <point x="684" y="320"/>
      <point x="703" y="338"/>
      <point x="703" y="365" type="curve" smooth="yes"/>
      <point x="703" y="391"/>
      <point x="684" y="409"/>
      <point x="658" y="409" type="curve" smooth="yes"/>
      <point x="632" y="409"/>
      <point x="613" y="391"/>
      <point x="613" y="365" type="curve" smooth="yes"/>
      <point x="613" y="338"/>
      <point x="632" y="320"/>
    </contour>
    <contour>
      <point x="622" y="185" type="curve" smooth="yes"/>
      <point x="648" y="185"/>
      <point x="667" y="204"/>
      <point x="667" y="230" type="curve" smooth="yes"/>
      <point x="667" y="256"/>
      <point x="648" y="275"/>
      <point x="622" y="275" type="curve" smooth="yes"/>
      <point x="596" y="275"/>
      <point x="577" y="256"/>
      <point x="577" y="230" type="curve" smooth="yes"/>
      <point x="577" y="204"/>
      <point x="596" y="185"/>
    </contour>
    <contour>
      <point x="523" y="86" type="curve" smooth="yes"/>
      <point x="549" y="86"/>
      <point x="568" y="105"/>
      <point x="568" y="131" type="curve" smooth="yes"/>
      <point x="568" y="157"/>
      <point x="549" y="176"/>
      <point x="523" y="176" type="curve" smooth="yes"/>
      <point x="497" y="176"/>
      <point x="478" y="157"/>
      <point x="478" y="131" type="curve" smooth="yes"/>
      <point x="478" y="105"/>
      <point x="497" y="86"/>
    </contour>
    <contour>
      <point x="388" y="50" type="curve" smooth="yes"/>
      <point x="414" y="50"/>
      <point x="433" y="69"/>
      <point x="433" y="95" type="curve" smooth="yes"/>
      <point x="433" y="121"/>
      <point x="414" y="140"/>
      <point x="388" y="140" type="curve" smooth="yes"/>
      <point x="362" y="140"/>
      <point x="343" y="121"/>
      <point x="343" y="95" type="curve" smooth="yes"/>
      <point x="343" y="69"/>
      <point x="362" y="50"/>
    </contour>
    <contour>
      <point x="253" y="86" type="curve" smooth="yes"/>
      <point x="279" y="86"/>
      <point x="298" y="105"/>
      <point x="298" y="131" type="curve" smooth="yes"/>
      <point x="298" y="157"/>
      <point x="279" y="176"/>
      <point x="253" y="176" type="curve" smooth="yes"/>
      <point x="227" y="176"/>
      <point x="208" y="157"/>
      <point x="208" y="131" type="curve" smooth="yes"/>
      <point x="208" y="105"/>
      <point x="227" y="86"/>
    </contour>
    <contour>
      <point x="154" y="185" type="curve" smooth="yes"/>
      <point x="180" y="185"/>
      <point x="199" y="204"/>
      <point x="199" y="230" type="curve" smooth="yes"/>
      <point x="199" y="256"/>
      <point x="180" y="275"/>
      <point x="154" y="275" type="curve" smooth="yes"/>
      <point x="128" y="275"/>
      <point x="109" y="256"/>
      <point x="109" y="230" type="curve" smooth="yes"/>
      <point x="109" y="204"/>
      <point x="128" y="185"/>
    </contour>
    <contour>
      <point x="118" y="320" type="curve" smooth="yes"/>
      <point x="144" y="320"/>
      <point x="163" y="338"/>
      <point x="163" y="365" type="curve" smooth="yes"/>
      <point x="163" y="391"/>
      <point x="144" y="409"/>
      <point x="118" y="409" type="curve" smooth="yes"/>
      <point x="92" y="409"/>
      <point x="73" y="391"/>
      <point x="73" y="365" type="curve" smooth="yes"/>
      <point x="73" y="338"/>
      <point x="92" y="320"/>
    </contour>
    <contour>
      <point x="154" y="454" type="curve" smooth="yes"/>
      <point x="180" y="454"/>
      <point x="199" y="473"/>
      <point x="199" y="499" type="curve" smooth="yes"/>
      <point x="199" y="525"/>
      <point x="180" y="544"/>
      <point x="154" y="544" type="curve" smooth="yes"/>
      <point x="128" y="544"/>
      <point x="109" y="525"/>
      <point x="109" y="499" type="curve" smooth="yes"/>
      <point x="109" y="473"/>
      <point x="128" y="454"/>
    </contour>
    <contour>
      <point x="253" y="553" type="curve" smooth="yes"/>
      <point x="279" y="553"/>
      <point x="298" y="572"/>
      <point x="298" y="598" type="curve" smooth="yes"/>
      <point x="298" y="624"/>
      <point x="279" y="643"/>
      <point x="253" y="643" type="curve" smooth="yes"/>
      <point x="227" y="643"/>
      <point x="208" y="624"/>
      <point x="208" y="598" type="curve" smooth="yes"/>
      <point x="208" y="572"/>
      <point x="227" y="553"/>
    </contour>
  </outline>
</glyph>
<glyph name="blackCircle" format="2">
  <advance width="727"/>
  <unicode hex="25CF"/>
  <anchor x="386" y="365" name="center"/>
  <outline>
    <contour>
      <point x="386" y="-9" type="curve" smooth="yes"/>
      <point x="192" y="-9"/>
      <point x="97" y="142"/>
      <point x="97" y="365" type="curve" smooth="yes"/>
      <point x="97" y="588"/>
      <point x="192" y="739"/>
      <point x="386" y="739" type="curve" smooth="yes"/>
      <point x="580" y="739"/>
      <point x="675" y="589"/>
      <point x="675" y="365" type="curve" smooth="yes"/>
      <point x="675" y="141"/>
      <point x="580" y="-9"/>
    </contour>
  </outline>
</glyph>
<glyph name="checkmark" format="2">
  <advance width="672"/>
  <unicode hex="2713"/>
  <outline>
    <contour>
      <point x="252" y="137" type="line"/>
      <point x="768" y="560" type="line"/>
      <point x="746" y="587" type="line"/>
      <point x="258" y="187" type="line"/>
      <point x="103" y="412" type="line"/>
      <point x="77" y="389" type="line"/>
    </contour>
  </outline>
</glyph>
<glyph name="fi" format="2">
  <advance width="320"/>
  <unicode hex="FB01"/>
  <outline>
    <contour>
      <point x="9" y="0" type="line"/>
      <point x="38" y="0" type="line"/>
      <point x="140" y="489" type="line"/>
      <point x="278" y="489" type="line"/>
      <point x="176" y="0" type="line"/>
      <point x="205" y="0" type="line"/>
      <point x="313" y="516" type="line"/>
      <point x="146" y="516" type="line"/>
      <point x="173" y="648" type="line" smooth="yes"/>
      <point x="182" y="688"/>
      <point x="196" y="700"/>
      <point x="225" y="700" type="curve" smooth="yes"/>
      <point x="240" y="700" type="line"/>
      <point x="245" y="729" type="line"/>
      <point x="229" y="729" type="line" smooth="yes"/>
      <point x="187" y="729"/>
      <point x="158" y="710"/>
      <point x="146" y="654" type="curve" smooth="yes"/>
      <point x="117" y="516" type="line"/>
      <point x="78" y="516" type="line"/>
      <point x="72" y="489" type="line"/>
      <point x="111" y="489" type="line"/>
    </contour>
    <contour>
      <point x="318" y="616" type="curve" smooth="yes"/>
      <point x="331" y="616"/>
      <point x="341" y="625"/>
      <point x="341" y="639" type="curve" smooth="yes"/>
      <point x="341" y="653"/>
      <point x="331" y="662"/>
      <point x="318" y="662" type="curve" smooth="yes"/>
      <point x="305" y="662"/>
      <point x="295" y="653"/>
      <point x="295" y="639" type="curve" smooth="yes"/>
      <point x="295" y="625"/>
      <point x="305" y="616"/>
    </contour>
  </outline>
</glyph>
<glyph name="G.ss06" format="2">
  <advance width="415"/>
  <anchor x="166" y="0" name="bottom"/>
  <anchor x="298" y="729" name="top"/>
  <outline>
    <contour>
      <point x="166" y="-9" type="curve" smooth="yes"/>
      <point x="249" y="-9"/>
      <point x="324" y="36"/>
      <point x="367" y="246" type="curve" smooth="yes"/>
      <point x="393" y="375" type="line"/>
      <point x="221" y="375" type="line"/>
      <point x="215" y="344" type="line"/>
      <point x="367" y="344" type="line"/>
      <point x="356" y="354" type="line"/>
      <point x="335" y="247" type="line" smooth="yes"/>
      <point x="303" y="93"/>
      <point x="252" y="20"/>
      <point x="168" y="20" type="curve" smooth="yes"/>
      <point x="51" y="20"/>
      <point x="61" y="180"/>
      <point x="101" y="374" type="curve" smooth="yes"/>
      <point x="143" y="573"/>
      <point x="196" y="708"/>
      <point x="294" y="708" type="curve" smooth="yes"/>
      <point x="395" y="708"/>
      <point x="401" y="619"/>
      <point x="386" y="494" type="curve"/>
      <point x="418" y="494" type="line"/>
      <point x="438" y="636"/>
      <point x="419" y="738"/>
      <point x="298" y="738" type="curve" smooth="yes"/>
      <point x="196" y="738"/>
      <point x="124" y="639"/>
      <point x="69" y="375" type="curve" smooth="yes"/>
      <point x="27" y="177"/>
      <point x="12" y="-9"/>
    </contour>
  </outline>
</glyph>
<glyph name="I.ss02" format="2">
  <advance width="212"/>
  <anchor x="54" y="0" name="bottom"/>
  <anchor x="153" y="0" name="ogonek"/>
  <anchor x="204" y="729" name="top"/>
  <anchor x="93" y="729" name="topleft"/>
  <outline>
    <contour>
      <point x="42" y="21" type="line"/>
      <point x="73" y="21" type="line"/>
      <point x="215" y="708" type="line"/>
      <point x="184" y="708" type="line"/>
    </contour>
    <contour>
      <point x="98" y="700" type="line"/>
      <point x="297" y="700" type="line"/>
      <point x="303" y="729" type="line"/>
      <point x="104" y="729" type="line"/>
    </contour>
    <contour>
      <point x="-46" y="0" type="line"/>
      <point x="153" y="0" type="line"/>
      <point x="159" y="29" type="line"/>
      <point x="-40" y="29" type="line"/>
    </contour>
  </outline>
</glyph>
